<svg width="132" height="132" viewBox="0 0 132 132" fill="none" xmlns="http://www.w3.org/2000/svg">
<rect x="0.193166" y="0.193166" width="131.614" height="131.614" stroke="#282828" strokeWidth="0.386331"/>
<path d="M74.3849 66.7641C71.5218 66.858 69.7428 67.3747 69.7428 69.2606C69.7428 70.4815 70.7161 71.8051 73.1872 71.8051C76.5002 71.8051 78.2686 69.9992 78.2686 67.0374L78.2688 66.7117C77.1073 66.7117 75.675 66.7218 74.3849 66.7641ZM81.4265 70.6773C81.4265 71.5962 81.4531 72.5033 81.5333 73.3201H78.5961C78.5177 72.6475 78.4891 71.9792 78.4891 71.331C76.9011 73.2831 75.0123 73.8442 72.392 73.8442C68.5057 73.8442 66.4248 71.7901 66.4248 69.4141C66.4248 65.9729 69.255 64.7596 74.1683 64.647C75.5119 64.6164 77.0211 64.6118 78.2688 64.6118L78.2686 64.2756C78.2686 61.9718 76.7914 61.0246 74.2316 61.0246C72.3312 61.0246 70.9307 61.811 70.7864 63.17H67.4687C67.8198 59.7817 71.3796 58.9248 74.5096 58.9248C78.2593 58.9248 81.4265 60.2589 81.4265 64.225L81.4265 70.6773Z" fill="#575757"/>
<path d="M47.0716 65.0838C46.949 62.13 44.817 61.0246 42.5384 61.0246C40.0813 61.0246 38.1196 62.268 37.776 65.0838H47.0716ZM37.7079 67.1836C37.8783 70.0496 39.8547 71.7447 42.5723 71.7447C44.4551 71.7447 46.1299 70.9775 46.6907 69.3086H49.9474C49.314 72.6949 45.7159 73.8442 42.6189 73.8442C36.9878 73.8442 34.4922 70.743 34.4922 66.5608C34.4922 61.9569 37.0735 58.9248 42.6703 58.9248C47.1251 58.9248 50.3892 61.2562 50.3892 66.3448V67.1836H37.7079Z" fill="#575757"/>
<path d="M58.4906 71.6861C61.4252 71.6861 63.4332 69.5739 63.4332 66.3863C63.4332 63.1991 61.4252 61.0865 58.4906 61.0865C55.5725 61.0865 53.5477 63.1991 53.5477 66.3863C53.5477 69.5739 55.5725 71.6861 58.4906 71.6861ZM50.3907 53.3735H53.5477L53.5474 61.3052C55.0948 59.4615 57.2266 58.9262 59.3249 58.9262C62.8432 58.9262 66.7509 61.3003 66.7509 66.4264C66.7509 70.7189 63.6431 73.8457 59.2663 73.8457C56.9754 73.8457 54.8189 73.0238 53.489 71.3956C53.489 72.0459 53.4527 72.7014 53.3816 73.3215H50.2832C50.3371 72.319 50.3907 71.0708 50.3907 70.0608L50.3907 53.3735Z" fill="#575757"/>
<path d="M97.5071 59.4521L87.7438 78.6261H84.2085L87.0154 73.302L79.668 59.4521H83.3621L88.7688 70.2731L94.1602 59.4521H97.5071Z" fill="#575757"/>
</svg>
