<svg width="133" height="132" viewBox="0 0 133 132" fill="none" xmlns="http://www.w3.org/2000/svg">
<rect x="0.23904" y="0.194118" width="131.612" height="131.612" stroke="#282828" strokeWidth="0.388235"/>
<g clipPath="url(#clip0_523_1108)">
<path d="M80.9913 66C80.9913 57.824 74.3285 51.1992 66.1055 51.1992C57.8826 51.1992 51.2197 57.824 51.2197 66C51.2197 74.1759 56.0249 78.7641 62.5091 80.3626V70.5231H59.4367V66H62.5091V64.0522C62.5091 59.014 64.8015 56.6814 69.7734 56.6814C71.4628 56.6814 72.3457 56.8649 73.0066 57.0485V61.1512C72.6553 61.1157 72.048 61.098 71.2858 61.098C68.8445 61.098 67.9037 62.0156 67.9037 64.4074V66.0059H72.7684L71.9348 70.529H67.9097V80.7001C75.2811 79.812 80.9913 73.572 80.9913 66.0059V66Z" fill="#575757"/>
</g>
<defs>
<clipPath id="clip0_523_1108">
<rect width="31.0816" height="29.6015" fill="white" transform="translate(50.5039 51.1992)"/>
</clipPath>
</defs>
</svg>
