<svg width="131" height="132" viewBox="0 0 131 132" fill="none" xmlns="http://www.w3.org/2000/svg">
<rect x="0.191371" y="1.12496" width="129.75" height="129.75" stroke="#282828" strokeWidth="0.382742"/>
<g clipPath="url(#clip0_523_1105)">
<path d="M79.8006 65.9995C79.8006 57.9393 73.232 51.4082 65.1254 51.4082C57.0188 51.4082 50.4502 57.9393 50.4502 65.9995C50.4502 74.0598 55.1873 78.5831 61.5799 80.159V70.4587H58.5509V65.9995H61.5799V64.0793C61.5799 59.1124 63.8398 56.8128 68.7414 56.8128C70.4069 56.8128 71.2772 56.9938 71.9288 57.1747V61.2194C71.5825 61.1844 70.9837 61.1669 70.2324 61.1669C67.8256 61.1669 66.8982 62.0716 66.8982 64.4295V66.0054H71.694L70.8722 70.4645H66.904V80.4917C74.1712 79.6162 79.8006 73.4645 79.8006 66.0054V65.9995Z" fill="#575757"/>
</g>
<defs>
<clipPath id="clip0_523_1105">
<rect width="30.6418" height="29.1827" fill="white" transform="translate(49.7451 51.4082)"/>
</clipPath>
</defs>
</svg>
