<svg width="133" height="132" viewBox="0 0 133 132" fill="none" xmlns="http://www.w3.org/2000/svg">
<rect x="0.553493" y="0.194118" width="131.612" height="131.612" stroke="#282828" strokeWidth="0.388235"/>
<path d="M102.265 69.909L100.062 66.9889L102.073 65.3405C102.201 65.2465 102.276 65.0939 102.272 64.9323C102.274 64.8677 102.264 64.8034 102.241 64.7433C102.217 64.6831 102.182 64.6285 102.138 64.5828C102.093 64.5372 102.04 64.5014 101.981 64.4778C101.922 64.4541 101.859 64.4431 101.796 64.4455C101.668 64.439 101.544 64.4906 101.459 64.5871L98.5726 66.9889V61.714C98.5707 61.648 98.556 61.583 98.5295 61.5228C98.5029 61.4626 98.465 61.4083 98.4179 61.3631C98.3709 61.3179 98.3155 61.2826 98.2551 61.2593C98.1947 61.236 98.1303 61.2251 98.0658 61.2272C98.0027 61.2249 97.9398 61.2359 97.881 61.2595C97.8222 61.2832 97.7688 61.3189 97.7241 61.3646C97.6795 61.4103 97.6445 61.4649 97.6214 61.525C97.5983 61.5851 97.5875 61.6495 97.5898 61.714V70.2233C97.5918 70.2893 97.6064 70.3543 97.633 70.4145C97.6595 70.4747 97.6974 70.529 97.7445 70.5742C97.7916 70.6194 97.8469 70.6547 97.9073 70.678C97.9678 70.7013 98.0321 70.7122 98.0966 70.71C98.1598 70.7124 98.2227 70.7014 98.2815 70.6778C98.3403 70.6541 98.3936 70.6184 98.4383 70.5727C98.483 70.527 98.5179 70.4724 98.5411 70.4123C98.5642 70.3522 98.5749 70.2878 98.5726 70.2233V68.1666L99.2482 67.6174L101.474 70.4905C101.52 70.5562 101.58 70.6111 101.649 70.6517C101.718 70.6923 101.794 70.7177 101.873 70.7261C101.936 70.7285 101.999 70.7175 102.058 70.6939C102.117 70.6702 102.17 70.6345 102.215 70.5888C102.259 70.5431 102.294 70.4885 102.317 70.4284C102.34 70.3683 102.351 70.3039 102.349 70.2394C102.361 70.182 102.36 70.1227 102.347 70.0656C102.334 70.0086 102.308 69.9553 102.272 69.9097L102.265 69.909ZM94.4204 67.0675C93.6838 66.8009 93.0857 66.5807 93.0857 66.0372C93.0857 65.4938 93.7612 65.3463 94.1295 65.3463C94.6332 65.3186 95.1117 65.5073 95.4643 65.8647C95.5069 65.9122 95.5592 65.9496 95.6175 65.9741C95.6759 65.9986 95.7388 66.0096 95.8018 66.0063C96.036 65.9979 96.2236 65.8131 96.2318 65.5665C96.2284 65.453 96.1911 65.3433 96.1247 65.2523C95.8835 64.9603 95.5788 64.7301 95.2349 64.5803C94.8911 64.4305 94.5177 64.3651 94.1447 64.3895C92.9012 64.3895 92.1337 65.0488 92.1337 66.0379C92.1337 67.278 93.2084 67.6476 94.1447 68.0005C94.8511 68.2362 95.4794 68.4403 95.4794 68.9895C95.4794 69.5388 94.6811 69.8524 94.2051 69.8524C93.6259 69.8826 93.063 69.6592 92.6544 69.2407C92.5611 69.1502 92.4437 69.0901 92.3169 69.0681C92.0827 69.0765 91.8951 69.2613 91.8869 69.5079C91.8903 69.6214 91.9276 69.7311 91.994 69.8221C92.2739 70.1428 92.6206 70.3952 93.0084 70.5609C93.3963 70.7266 93.8155 70.8013 94.2353 70.7796C95.6475 70.7796 96.4767 70.0887 96.4767 68.9895C96.4767 67.8904 95.356 67.4036 94.4198 67.0739L94.4204 67.0675ZM88.618 65.2774C89.6254 65.2774 90.1291 65.8582 90.1687 66.9889H86.8992C87.0063 65.8898 87.6057 65.2774 88.618 65.2774ZM91.1364 66.9889C91.134 66.4044 90.969 65.8326 90.6605 65.3405C90.4274 65.0169 90.1178 64.7593 89.7606 64.5918C89.4034 64.4243 89.0105 64.3525 88.6187 64.383C86.915 64.383 85.9322 65.5446 85.9322 67.5704C85.9322 69.5961 86.8992 70.7886 88.7566 70.7886C89.5121 70.8157 90.238 70.5452 90.7983 70.0352C90.8511 69.9954 90.8939 69.9434 90.9232 69.8834C90.9525 69.8234 90.9676 69.7572 90.9671 69.6901C90.9589 69.4506 90.7782 69.2587 90.5371 69.2503C90.4397 69.2519 90.3465 69.2912 90.2764 69.3604C89.8612 69.7109 89.3409 69.9048 88.8025 69.9097C87.6969 69.9097 86.9912 69.1563 86.9603 67.947H90.5679C91.1358 67.8839 91.1358 67.3353 91.1358 66.9896L91.1364 66.9889ZM82.2465 69.8768C81.1107 69.8768 80.5428 69.1235 80.5428 67.5845C80.5428 66.0456 81.1107 65.2922 82.2465 65.2922C82.5828 65.3111 82.9085 65.4196 83.1912 65.6068C83.4739 65.7941 83.7039 66.0537 83.8583 66.3598V68.1499C83.8432 69.2175 83.2444 69.8768 82.2314 69.8768H82.2465ZM84.3343 61.195C84.2711 61.1927 84.2082 61.2037 84.1494 61.2273C84.0907 61.251 84.0373 61.2867 83.9926 61.3324C83.9479 61.3781 83.913 61.4327 83.8899 61.4928C83.8667 61.5529 83.856 61.6173 83.8583 61.6818V65.0417C83.4213 64.5987 82.8308 64.3508 82.2213 64.3508C80.4816 64.3508 79.6117 65.4133 79.6117 67.5382C79.6117 69.6734 80.5479 70.7564 82.2981 70.7564C84.0484 70.7564 84.877 69.7674 84.877 68.119V61.7134C84.8624 61.5729 84.7982 61.4428 84.6964 61.3473C84.5946 61.2519 84.4623 61.1977 84.3242 61.195H84.3343ZM76.1829 64.3502C75.8781 64.3366 75.5743 64.3947 75.2949 64.5199C75.0155 64.6452 74.7679 64.8343 74.5711 65.0726V61.7121C74.5733 61.6434 74.5617 61.575 74.537 61.5111C74.5123 61.4472 74.475 61.3892 74.4275 61.3406C74.38 61.292 74.3233 61.2539 74.2608 61.2286C74.1983 61.2034 74.1314 61.1915 74.0643 61.1938C73.9984 61.191 73.9327 61.2028 73.8716 61.2283C73.8105 61.2538 73.7556 61.2925 73.7104 61.3416C73.6652 61.3908 73.631 61.4493 73.6099 61.5133C73.5888 61.5772 73.5815 61.645 73.5883 61.7121V70.2213C73.5862 70.2873 73.5969 70.3531 73.6196 70.4149C73.6424 70.4767 73.6769 70.5333 73.7211 70.5815C73.7654 70.6296 73.8184 70.6684 73.8773 70.6955C73.9362 70.7227 73.9997 70.7377 74.0643 70.7397C74.1314 70.7419 74.1983 70.73 74.2608 70.7048C74.3233 70.6795 74.38 70.6414 74.4275 70.5928C74.475 70.5442 74.5123 70.4862 74.537 70.4223C74.5617 70.3584 74.5733 70.29 74.5711 70.2213V67.0185C74.5711 65.8569 75.1084 65.2761 76.1829 65.2761C77.2576 65.2761 77.6259 65.7629 77.6259 66.9245V70.2213C77.6237 70.29 77.6353 70.3584 77.66 70.4223C77.6847 70.4862 77.722 70.5442 77.7695 70.5928C77.817 70.6414 77.8737 70.6795 77.9362 70.7048C77.9987 70.73 78.0656 70.7419 78.1327 70.7397C78.1986 70.7424 78.2644 70.7307 78.3254 70.7051C78.3865 70.6796 78.4414 70.641 78.4866 70.5918C78.5318 70.5426 78.566 70.4841 78.5871 70.4202C78.6082 70.3562 78.6155 70.2884 78.6087 70.2213V66.7539C78.5772 65.1679 77.7795 64.3521 76.1678 64.3521L76.1829 64.3502ZM70.3805 67.0662C69.6439 66.7996 69.0458 66.5794 69.0458 66.0359C69.0458 65.4925 69.7213 65.345 70.0896 65.345C70.5933 65.3173 71.0718 65.506 71.4244 65.8634C71.5103 65.9499 71.6261 65.9984 71.7467 65.9984C71.8673 65.9984 71.9831 65.9499 72.0691 65.8634C72.1156 65.8198 72.1521 65.7663 72.1761 65.7066C72.2 65.647 72.2108 65.5826 72.2076 65.5182C72.2043 65.4047 72.1669 65.295 72.1006 65.204C71.8594 64.912 71.5546 64.6818 71.2107 64.532C70.8669 64.3822 70.4935 64.3168 70.1205 64.3412C68.877 64.3412 68.1095 65.0005 68.1095 65.9896C68.1095 67.2297 69.1843 67.5993 70.1205 67.9522C70.8269 68.1879 71.4552 68.392 71.4552 68.9412C71.4552 69.4905 70.6569 69.8041 70.1809 69.8041C69.6017 69.8343 69.0388 69.6109 68.6302 69.1924C68.5369 69.1019 68.4195 69.0418 68.2928 69.0198C68.0585 69.0282 67.8709 69.213 67.8627 69.4596C67.8661 69.5731 67.9034 69.6828 67.9698 69.7738C68.2417 70.1014 68.5805 70.364 68.9625 70.543C69.3444 70.722 69.7602 70.8131 70.1803 70.8099C71.5925 70.8099 72.4217 70.1189 72.4217 69.0198C72.4217 67.9206 71.301 67.41 70.3648 67.0733L70.3805 67.0662ZM64.6084 65.2761C65.6157 65.2761 66.1194 65.8569 66.159 66.9876H62.8738C62.9808 65.8885 63.5802 65.2761 64.5926 65.2761H64.6084ZM67.0801 66.9876C67.0778 66.4031 66.9127 65.8313 66.6042 65.3392C66.3712 65.0157 66.0615 64.758 65.7043 64.5905C65.3471 64.423 64.9542 64.3512 64.5624 64.3817C62.8587 64.3817 61.8759 65.5433 61.8759 67.5691C61.8759 69.5948 62.843 70.8034 64.6852 70.8034C65.4407 70.8305 66.1666 70.56 66.7269 70.05C66.7797 70.0102 66.8225 69.9582 66.8518 69.8982C66.8811 69.8382 66.8962 69.772 66.8957 69.7049C66.8875 69.4654 66.7068 69.2735 66.4657 69.2651C66.3683 69.2667 66.2751 69.3061 66.205 69.3752C65.7898 69.7257 65.2695 69.9196 64.7311 69.9245C63.6255 69.9245 62.9198 69.1711 62.8889 67.9619H66.5116C67.0795 67.8833 67.0795 67.334 67.0795 66.9883L67.0801 66.9876ZM61.1336 64.383C60.4769 64.3489 59.848 64.656 59.4601 65.1995V64.9329C59.4601 64.647 59.2335 64.4146 58.9533 64.4146C58.6731 64.4146 58.4465 64.6464 58.4465 64.9329V70.2239C58.4443 70.2926 58.4559 70.361 58.4806 70.4249C58.5053 70.4888 58.5425 70.5468 58.5901 70.5954C58.6376 70.644 58.6943 70.6821 58.7568 70.7074C58.8193 70.7326 58.8862 70.7445 58.9533 70.7422C59.0906 70.7519 59.224 70.6997 59.3216 70.6006C59.4192 70.5014 59.4689 70.3643 59.4601 70.2239V67.3038C59.4601 66.0636 60.1048 65.3412 61.1336 65.3412C61.1967 65.3435 61.2596 65.3325 61.3184 65.3089C61.3772 65.2852 61.4306 65.2495 61.4753 65.2038C61.5199 65.1581 61.5549 65.1035 61.578 65.0434C61.6011 64.9833 61.6119 64.9189 61.6096 64.8544C61.6014 64.5916 61.3905 64.383 61.1336 64.3843V64.383ZM57.2956 61.5415C55.6221 61.5415 55.0082 62.7501 55.0082 63.8808V64.5717H54.6859C54.4983 64.5369 54.3081 64.62 54.2036 64.7822C54.0991 64.9445 54.0985 65.1557 54.2036 65.3186C54.3088 65.4815 54.4983 65.5633 54.6859 65.5292H55.0234V70.2703C55.0212 70.3389 55.0328 70.4073 55.0575 70.4712C55.0822 70.5351 55.1194 70.5932 55.1669 70.6418C55.2144 70.6904 55.2712 70.7285 55.3337 70.7537C55.3961 70.779 55.463 70.7908 55.5302 70.7886C55.6674 70.7983 55.8009 70.7461 55.8985 70.6469C55.9961 70.5478 56.0458 70.4106 56.037 70.2703V65.4815H57.1117C57.3384 65.4397 57.5021 65.2381 57.5021 65.0025C57.5021 64.7668 57.3384 64.5659 57.1117 64.5234H56.0339V63.8325C56.0339 63.2208 56.2643 62.4674 57.3384 62.4674C57.3981 62.4716 57.458 62.4635 57.5145 62.4436C57.5711 62.4237 57.6232 62.3924 57.6677 62.3515C57.7577 62.2691 57.8106 62.1583 57.8144 62.0283C57.798 61.7546 57.5751 61.5408 57.3075 61.5415H57.2956Z" fill="#4D4D4D"/>
<path d="M40.5451 55.5494H48.2211C48.5605 55.5464 48.8971 55.6126 49.2112 55.744C49.5254 55.8755 49.8107 56.0696 50.0507 56.315C50.2907 56.5605 50.4805 56.8523 50.6091 57.1736C50.7376 57.4949 50.8023 57.8391 50.7993 58.1862V66.0367C50.7987 68.799 49.7255 71.4479 47.8157 73.4011C45.9059 75.3543 43.3158 76.4519 40.615 76.4526H40.557C39.2187 76.4541 37.8932 76.1859 36.6563 75.6633C35.4193 75.1407 34.2952 74.374 33.3481 73.4069C32.4011 72.4397 31.6499 71.291 31.1374 70.0266C30.6249 68.7621 30.3611 67.4068 30.3613 66.038C30.3613 60.266 34.9133 55.6106 40.5457 55.5513L40.5451 55.5494Z" fill="#575757"/>
<path d="M40.545 60.2051C37.9605 60.2051 35.8652 62.348 35.8652 64.9912V68.2455C35.8745 68.6647 36.0415 69.0641 36.3314 69.3605C36.6213 69.657 37.0117 69.8278 37.4216 69.8373H38.7456V66.1026H36.9576V65.0576C37.0665 63.0891 38.6588 61.5502 40.5866 61.5502C42.5144 61.5502 44.1123 63.0956 44.2156 65.0576V66.1026H42.4042V69.8373H43.6005V69.8965C43.5879 70.7046 42.9507 71.3563 42.1606 71.3691H40.7314C40.6155 71.3691 40.4877 71.4284 40.4877 71.5475C40.494 71.6763 40.5992 71.7909 40.7314 71.7967H42.1713C42.6631 71.7935 43.1338 71.5923 43.4816 71.2366C43.8293 70.8809 44.0261 70.3995 44.0292 69.8965V69.778C44.7344 69.6158 45.2255 68.9732 45.2255 68.2339V65.0511C45.2903 62.3544 43.2 60.2051 40.545 60.2051Z" fill="white"/>
</svg>
