<svg width="133" height="132" viewBox="0 0 133 132" fill="none" xmlns="http://www.w3.org/2000/svg">
<rect x="1.10037" y="0.194118" width="131.612" height="131.612" stroke="#282828" strokeWidth="0.388235"/>
<g clipPath="url(#clip0_523_1095)">
<mask id="mask0_523_1095" style="mask-type:luminance" maskUnits="userSpaceOnUse" x="30" y="57" width="23" height="18">
<path d="M52.826 57.623H30.4424V74.3766H52.826V57.623Z" fill="white"/>
</mask>
<g mask="url(#mask0_523_1095)">
<path d="M31.9714 74.377H35.5313V65.7489L30.4434 61.9458V72.8691C30.4434 73.7068 31.1318 74.3937 31.9714 74.3937V74.377Z" fill="#575757"/>
<path d="M47.7393 74.377H51.2991C52.1387 74.377 52.8272 73.6901 52.8272 72.8524V61.9458L47.7393 65.7489" fill="#575757"/>
<path d="M47.7393 59.1479V65.7488L52.8272 61.9458V59.9186C52.8272 58.0422 50.6778 56.9532 49.1666 58.0925" fill="#575757"/>
<path d="M35.5312 65.7479V59.147L41.6435 63.7207L47.7558 59.147V65.7479L41.6435 70.3216" fill="#575757"/>
<path d="M30.4434 59.902V61.9292L35.5313 65.7323V59.1481L34.104 58.0759C32.5927 56.9534 30.4434 58.0256 30.4434 59.902Z" fill="#575757"/>
</g>
<path d="M74.0347 66.6367C74.0347 68.2953 73.5478 69.6188 72.5571 70.6073C71.4488 71.78 69.9879 72.3664 68.1912 72.3664C66.3944 72.3664 65.0007 71.7633 63.8085 70.5738C62.6162 69.3843 62.0117 67.9099 62.0117 66.1676C62.0117 64.4252 62.6162 62.9509 63.8085 61.7614C65.0007 60.5719 66.4616 59.9688 68.1912 59.9688C69.9207 59.9688 69.8871 60.1195 70.6764 60.4379C71.4488 60.7394 72.0869 61.1918 72.5906 61.7446L71.4992 62.8336C71.1297 62.398 70.6596 62.0462 70.0718 61.7949C69.4841 61.5436 68.8628 61.4263 68.2079 61.4263C66.915 61.4263 65.8067 61.8787 64.9167 62.7666C64.0268 63.6713 63.5902 64.8105 63.5902 66.1676C63.5902 67.5246 64.0268 68.6639 64.9167 69.5686C65.8067 70.4565 66.915 70.9088 68.2079 70.9088C69.5009 70.9088 70.3741 70.5738 71.1633 69.9204C71.9525 69.2502 72.4059 68.3455 72.5235 67.1895H68.2079V65.7655H73.9844C74.0347 66.0671 74.0683 66.3686 74.0683 66.6534L74.0347 66.6367Z" fill="#575757"/>
<path d="M77.1579 72.0976H75.6299V63.9722H77.0908V65.0946H77.1579C77.393 64.6926 77.7457 64.3575 78.2326 64.1062C78.7196 63.8381 79.1898 63.7041 79.6767 63.7041C80.1637 63.7041 80.8018 63.8381 81.2552 64.1229C81.7086 64.4078 82.0444 64.7763 82.2459 65.2622C82.9176 64.2235 83.8579 63.7041 85.0502 63.7041C86.2424 63.7041 86.7126 63.9889 87.2331 64.5585C87.7369 65.1282 88.0055 65.9491 88.0055 67.0213V72.0976H86.4775V67.2559C86.4775 66.4852 86.3431 65.9491 86.0577 65.5973C85.7722 65.2622 85.3188 65.0946 84.6639 65.0946C84.0091 65.0946 83.5893 65.346 83.1863 65.8486C82.7832 66.3512 82.5817 66.9375 82.5817 67.6077V72.0976H81.0537V67.2559C81.0537 66.4852 80.9193 65.9491 80.6339 65.5973C80.3484 65.2622 79.895 65.0946 79.2401 65.0946C78.5853 65.0946 78.1655 65.346 77.7625 65.8486C77.3594 66.3512 77.1579 66.9375 77.1579 67.6077V72.0976Z" fill="#575757"/>
<path d="M92.8081 63.7044C93.9332 63.7044 94.8232 64.006 95.478 64.6091C96.1329 65.2122 96.452 66.0332 96.452 67.0886V72.098H94.9911V70.9755H94.9239C94.2858 71.8969 93.4462 72.366 92.3883 72.366C91.3304 72.366 90.7427 72.098 90.1382 71.5618C89.5337 71.0257 89.2314 70.3723 89.2314 69.5682C89.2314 68.764 89.5505 68.0603 90.1886 67.5577C90.8267 67.0551 91.6831 66.8038 92.741 66.8038C93.7989 66.8038 94.4034 66.9714 94.9911 67.3064V66.9546C94.9911 66.4185 94.7728 65.9661 94.353 65.5976C93.9332 65.229 93.4462 65.0447 92.8753 65.0447C92.0189 65.0447 91.3472 65.3965 90.8435 66.1169L89.5001 65.2625C90.239 64.207 91.3472 63.6709 92.7913 63.6709L92.8081 63.7044ZM90.8267 69.6017C90.8267 70.0038 90.9946 70.3388 91.3304 70.5901C91.6663 70.8582 92.0693 70.9922 92.5227 70.9922C92.976 70.9922 93.7317 70.7577 94.2354 70.2718C94.7392 69.8027 94.9911 69.2331 94.9911 68.5965C94.5209 68.2279 93.8492 68.0268 92.9928 68.0268C92.1364 68.0268 91.851 68.1776 91.4312 68.4792C91.0114 68.7807 90.8099 69.1493 90.8099 69.5849L90.8267 69.6017Z" fill="#575757"/>
<path d="M100.163 61.1578C100.163 61.4594 100.063 61.7107 99.8444 61.9285C99.6261 62.1463 99.3742 62.2468 99.0719 62.2468C98.7697 62.2468 98.5178 62.1463 98.2995 61.9285C98.0812 61.7107 97.9805 61.4594 97.9805 61.1578C97.9805 60.8563 98.0812 60.605 98.2995 60.3872C98.5178 60.1694 98.7697 60.0688 99.0719 60.0688C99.3742 60.0688 99.6261 60.1694 99.8444 60.3872C100.063 60.605 100.163 60.8563 100.163 61.1578ZM99.8612 63.9724V72.0979H98.3331V63.9724H99.8612Z" fill="#575757"/>
<path d="M103.371 60.2192V72.0975H101.843V60.2192H103.371Z" fill="#575757"/>
</g>
<defs>
<clipPath id="clip0_523_1095">
<rect width="72.9274" height="16.7536" fill="white" transform="translate(30.4424 57.623)"/>
</clipPath>
</defs>
</svg>
