<svg width="132" height="132" viewBox="0 0 132 132" fill="none" xmlns="http://www.w3.org/2000/svg">
<rect x="0.194118" y="0.194118" width="131.612" height="131.612" stroke="#282828" strokeWidth="0.388235"/>
<g clipPath="url(#clip0_523_1111)">
<path d="M59.7041 50.9042C58.0865 50.9805 56.9819 51.2386 56.0163 51.6181C55.0168 52.0076 54.1698 52.5302 53.3269 53.3761C52.4841 54.2219 51.9651 55.0696 51.5784 56.0706C51.2041 57.0383 50.9505 58.1439 50.8791 59.7623C50.8076 61.3808 50.7918 61.901 50.7997 66.0294C50.8076 70.1577 50.8258 70.6752 50.9043 72.297C50.9815 73.9142 51.2387 75.0185 51.6182 75.9845C52.0083 76.9839 52.5303 77.8307 53.3765 78.6738C54.2227 79.5169 55.0698 80.0347 56.0731 80.4221C57.04 80.7958 58.1458 81.0505 59.764 81.1214C61.3821 81.1922 61.9029 81.2087 66.0301 81.2007C70.1572 81.1928 70.6768 81.1746 72.2983 81.0977C73.9198 81.0208 75.0184 80.7617 75.9846 80.3841C76.984 79.9931 77.8314 79.4719 78.6739 78.6255C79.5164 77.779 80.0351 76.9307 80.4216 75.9292C80.7962 74.9623 81.0507 73.8565 81.1209 72.2395C81.1917 70.6168 81.2085 70.0987 81.2006 65.971C81.1927 61.8432 81.1741 61.3257 81.0972 59.7045C81.0203 58.0834 80.7627 56.9824 80.3836 56.0158C79.9929 55.0164 79.4714 54.1703 78.6256 53.3265C77.7797 52.4828 76.9308 51.9644 75.9296 51.5789C74.9621 51.2046 73.8569 50.9495 72.2387 50.8795C70.6206 50.8096 70.0998 50.7917 65.9711 50.7996C61.8424 50.8075 61.3255 50.8251 59.7041 50.9042ZM59.8816 78.3865C58.3994 78.322 57.5946 78.0757 57.0582 77.8696C56.348 77.596 55.842 77.2651 55.3075 76.7358C54.773 76.2065 54.4446 75.6987 54.1673 74.99C53.9591 74.4536 53.7082 73.6497 53.6389 72.1675C53.5635 70.5654 53.5477 70.0844 53.5389 66.0257C53.5301 61.967 53.5456 61.4866 53.6158 59.8839C53.679 58.4029 53.9268 57.5972 54.1327 57.0611C54.4063 56.35 54.7359 55.845 55.2665 55.3107C55.797 54.7765 56.3033 54.4476 57.0126 54.1703C57.5484 53.9611 58.3523 53.7124 59.8339 53.6418C61.4371 53.5658 61.9175 53.5506 65.9757 53.5418C70.0338 53.533 70.5154 53.5482 72.1193 53.6187C73.6003 53.6832 74.4063 53.9285 74.9417 54.1356C75.6523 54.4092 76.1579 54.7379 76.6921 55.2694C77.2263 55.8009 77.5556 56.3053 77.8329 57.0161C78.0424 57.5504 78.2911 58.354 78.3611 59.8365C78.4374 61.4397 78.4547 61.9204 78.462 65.9783C78.4693 70.0361 78.455 70.518 78.3848 72.12C78.32 73.6023 78.0743 74.4074 77.8679 74.9443C77.5942 75.6543 77.2644 76.1605 76.7335 76.6944C76.2026 77.2284 75.697 77.5573 74.9873 77.8346C74.4522 78.0435 73.6474 78.2928 72.167 78.3634C70.5637 78.4388 70.0833 78.4546 66.0237 78.4634C61.964 78.4722 61.4852 78.4558 59.8819 78.3865M72.2749 57.8751C72.2755 58.2359 72.3831 58.5885 72.5841 58.8882C72.7851 59.1878 73.0704 59.4212 73.404 59.5587C73.7376 59.6962 74.1045 59.7317 74.4583 59.6606C74.8121 59.5896 75.1369 59.4153 75.3915 59.1596C75.6462 58.904 75.8194 58.5786 75.8891 58.2246C75.9588 57.8706 75.922 57.5038 75.7833 57.1707C75.6446 56.8376 75.4102 56.5531 75.1098 56.3532C74.8093 56.1533 74.4564 56.047 74.0956 56.0478C73.6118 56.0487 73.1483 56.2418 72.8069 56.5844C72.4655 56.9271 72.2741 57.3914 72.2749 57.8751ZM58.1945 66.0154C58.203 70.3268 61.7044 73.8139 66.0149 73.8057C70.3254 73.7975 73.8149 70.2964 73.8067 65.985C73.7985 61.6736 70.2962 58.1855 65.9851 58.194C61.674 58.2025 58.1862 61.7046 58.1945 66.0154ZM60.9327 66.0099C60.9307 65.0076 61.226 64.0273 61.7812 63.1928C62.3364 62.3584 63.1265 61.7073 64.0517 61.3219C64.977 60.9365 65.9957 60.8341 66.9791 61.0277C67.9625 61.2213 68.8664 61.7022 69.5765 62.4095C70.2866 63.1168 70.771 64.0188 70.9685 65.0014C71.166 65.984 71.0676 67.0031 70.6859 67.9299C70.3042 68.8566 69.6563 69.6493 68.824 70.2078C67.9918 70.7663 67.0126 71.0654 66.0103 71.0674C65.3448 71.0688 64.6855 70.9391 64.0702 70.6857C63.4548 70.4323 62.8954 70.0601 62.4239 69.5905C61.9524 69.1208 61.578 68.5629 61.3221 67.9485C61.0663 67.3341 60.9339 66.6754 60.9327 66.0099Z" fill="#575757"/>
</g>
<defs>
<clipPath id="clip0_523_1111">
<rect width="30.4048" height="30.4048" fill="white" transform="translate(50.7979 50.7974)"/>
</clipPath>
</defs>
</svg>
