<svg width="132" height="132" viewBox="0 0 132 132" fill="none" xmlns="http://www.w3.org/2000/svg">
<rect x="0.194118" y="0.194118" width="131.612" height="131.612" stroke="#282828" strokeWidth="0.388235"/>
<path d="M27.1768 61.6448V65.5767H31.1198H35.0628V61.6448V57.713H31.1198H27.1768V61.6448Z" fill="#575757"/>
<path d="M35.894 57.7554C35.8698 57.7735 35.8516 59.5458 35.8516 61.6872V65.5767H39.7946H43.7376V61.6448V57.713H39.837C37.6896 57.713 35.9122 57.7312 35.894 57.7554Z" fill="#575757"/>
<path d="M99.182 60.375C98.545 60.5141 97.8717 60.9859 97.5866 61.5061C97.3378 61.9659 97.2408 62.4377 97.2408 63.1696V63.8169L96.6524 63.835L96.0579 63.8531L96.0397 64.5306L96.0215 65.2142H96.6342H97.2408V68.0874V70.9607H98.09H98.9393V68.0874V65.2142H100.183H101.426V67.041C101.433 69.2246 101.475 69.636 101.742 70.1743C101.966 70.6098 102.318 70.9002 102.779 71.0272C103.167 71.1301 104.011 71.1119 104.447 70.9909L104.824 70.882V70.2046V69.5271L104.478 69.642C103.92 69.8295 103.483 69.7146 103.264 69.3093C103.167 69.1399 103.155 68.8919 103.137 67.1619L103.119 65.2142H103.968H104.824V64.5185V63.8229H103.974H103.125V62.7885V61.7542L102.961 61.7965C102.864 61.8146 102.482 61.9296 102.112 62.0445L101.426 62.2562V63.0547V63.8531L100.177 63.835L98.9272 63.8169L98.9454 63.1091C98.9696 62.3349 99.0485 62.111 99.3761 61.8691C99.6005 61.7058 100.122 61.6634 100.48 61.7844L100.759 61.8812V61.1614C100.759 60.5504 100.747 60.4415 100.656 60.4113C100.474 60.3387 99.461 60.3206 99.182 60.375Z" fill="#575757"/>
<path d="M61.4144 60.9733C61.0989 61.1668 60.9473 61.433 60.9473 61.802C60.9473 62.3948 61.3962 62.7758 62.0452 62.7214C62.5973 62.673 62.937 62.3222 62.937 61.7959C62.937 61.433 62.8156 61.2213 62.482 60.9914C62.2212 60.816 61.6873 60.8039 61.4144 60.9733Z" fill="#575757"/>
<path d="M48.7109 66.0006V70.9607H49.5299H50.3488L50.3367 67.1499C50.3245 65.0509 50.3367 63.3391 50.3549 63.3391C50.3731 63.3391 51.0767 65.057 51.926 67.1499L53.4668 70.9668L54.0734 70.9486L54.6801 70.9305L56.1784 67.162C57.0034 65.0872 57.6949 63.3753 57.7131 63.3572C57.7313 63.333 57.7495 65.0388 57.7495 67.1378V70.9607H58.5988H59.4481V66.0006V61.0404H58.2773H57.1065L55.7174 64.44C54.953 66.3151 54.2736 67.9665 54.213 68.1117L54.0916 68.3839L53.5639 67.0531C53.2727 66.3272 52.6176 64.6759 52.108 63.3814L51.1799 61.0404H49.9424H48.7109V66.0006Z" fill="#575757"/>
<path d="M66.7282 63.7924C65.4968 64.0706 64.5323 64.9477 64.1198 66.1817C63.9317 66.7261 63.8832 67.9178 64.0227 68.5045C64.2411 69.4179 64.9023 70.3011 65.6666 70.7003C66.613 71.1902 68.0264 71.2386 69.0758 70.8273L69.4277 70.6882L69.458 69.9139C69.4762 69.4905 69.4823 69.1457 69.4762 69.1457C69.4701 69.1457 69.2881 69.2425 69.0698 69.3574C68.0567 69.92 66.9223 69.8232 66.2611 69.1276C65.7637 68.6073 65.5696 67.8573 65.697 66.9741C65.8183 66.1333 66.3036 65.48 67.0073 65.2199C67.6685 64.9719 68.6087 65.0868 69.2153 65.4982C69.3306 65.5708 69.4398 65.6373 69.458 65.6373C69.4762 65.6373 69.4823 65.2744 69.4701 64.8267L69.4519 64.0162L69.0455 63.8831C68.5177 63.7077 67.3227 63.6593 66.7282 63.7924Z" fill="#575757"/>
<path d="M73.9465 63.7682C73.352 63.8529 72.8849 64.1977 72.5877 64.7724L72.436 65.0627L72.43 64.4397V63.8166L71.5989 63.8348L70.7618 63.8529L70.7436 67.4037L70.7314 70.9604H71.5746H72.4239L72.4421 68.7647L72.4603 66.575L72.6302 66.212C72.8971 65.6495 73.2064 65.3652 73.6675 65.2805C73.9768 65.226 74.4803 65.2926 74.7473 65.4317L74.9171 65.5224V64.7058C74.9171 64.1191 74.8928 63.8771 74.8443 63.8408C74.7169 63.7682 74.2377 63.7259 73.9465 63.7682Z" fill="#575757"/>
<path d="M77.7144 63.7924C76.398 64.0888 75.4638 65.0082 75.1302 66.3329C74.9907 66.8834 74.9846 67.9903 75.1241 68.565C75.4092 69.7687 76.3192 70.6821 77.5385 71.0027C78.0601 71.1358 79.1217 71.1358 79.6798 70.9906C80.7657 70.7184 81.6453 69.9563 82.0214 68.9763C82.2397 68.3775 82.3368 67.7302 82.2943 67.0588C82.2337 65.9639 81.9425 65.2562 81.3237 64.6332C80.9355 64.2521 80.6565 64.0767 80.0741 63.871C79.6252 63.7077 78.2785 63.6653 77.7144 63.7924ZM79.4978 65.2381C79.9043 65.4195 80.2682 65.843 80.4138 66.2845C80.5048 66.5628 80.5291 66.8108 80.5291 67.452C80.523 68.1597 80.5048 68.317 80.3835 68.6194C80.2076 69.0671 79.9528 69.3514 79.5646 69.551C79.2976 69.6901 79.1763 69.7083 78.7092 69.7083C78.1087 69.7083 77.7811 69.6054 77.4171 69.303C76.8469 68.813 76.5861 67.6456 76.8287 66.6172C76.9986 65.9156 77.314 65.4921 77.86 65.2381C78.2907 65.0324 79.0671 65.0324 79.4978 65.2381Z" fill="#575757"/>
<path d="M84.8838 63.7928C84.168 63.9925 83.5311 64.4945 83.2824 65.051C83.0822 65.5047 83.0822 66.3274 83.2884 66.7568C83.5371 67.265 83.8162 67.4827 84.8899 67.9969C85.4298 68.257 85.9211 68.5292 85.9818 68.5957C86.1395 68.7711 86.182 69.2248 86.0546 69.4184C85.7088 69.9446 84.4228 69.8902 83.4583 69.3035L83.1064 69.0917V69.9084V70.7189L83.3248 70.8096C83.9982 71.0879 85.2963 71.1786 86.0061 70.9972C86.7886 70.7975 87.3649 70.3741 87.6561 69.7813C87.7774 69.5273 87.8017 69.3881 87.8017 68.9042C87.8017 68.4324 87.7835 68.2872 87.6743 68.0816C87.371 67.5069 86.9827 67.2166 85.8908 66.7266C85.0901 66.3758 84.8717 66.1882 84.8232 65.8253C84.7079 64.9966 85.9636 64.7546 87.189 65.3716L87.4802 65.5229L87.462 64.7486L87.4438 63.9804L87.0798 63.8654C86.5824 63.7082 85.3267 63.6658 84.8838 63.7928Z" fill="#575757"/>
<path d="M91.2047 63.8166C90.3493 64.0283 89.6032 64.5425 89.1664 65.22C88.5355 66.206 88.396 67.815 88.8388 69.0066C89.3848 70.4644 90.9317 71.2992 92.6848 71.0814C93.6857 70.9605 94.2317 70.7125 94.8444 70.0894C95.5844 69.3454 95.8695 68.5772 95.8695 67.3311C95.8695 66.1152 95.5844 65.3168 94.9172 64.6453C94.4683 64.2038 94.08 63.986 93.4431 63.8227C92.8425 63.6654 91.8113 63.6654 91.2047 63.8166ZM93.1519 65.2563C93.4916 65.4378 93.807 65.8007 93.9708 66.2181C94.0861 66.5205 94.1103 66.6899 94.1103 67.3613C94.1164 68.6014 93.8616 69.1821 93.1519 69.539C92.8304 69.6962 92.7273 69.7144 92.2723 69.7144C91.6172 69.7083 91.2107 69.5511 90.871 69.1639C90.4767 68.7102 90.3615 68.3352 90.3554 67.4521C90.3554 66.2423 90.6284 65.6495 91.3684 65.2744C91.7324 65.093 91.7749 65.0869 92.3269 65.1051C92.7637 65.1232 92.9638 65.1595 93.1519 65.2563Z" fill="#575757"/>
<path d="M61.0859 67.3916V70.9604H61.9352H62.7845L62.7723 67.4037L62.7541 63.8529L61.9231 63.8348L61.0859 63.8166V67.3916Z" fill="#575757"/>
<path d="M27.1768 70.3553V74.2871H31.1198H35.0628V70.3553V66.4235H31.1198H27.1768V70.3553Z" fill="#575757"/>
<path d="M35.8637 70.3371L35.8819 74.2569L39.8128 74.275L43.7376 74.2871V70.3553V66.4235H39.7946H35.8516L35.8637 70.3371Z" fill="#575757"/>
</svg>
