<svg width="132" height="132" viewBox="0 0 132 132" fill="none" xmlns="http://www.w3.org/2000/svg">
<rect x="0.15" y="0.15" width="131.7" height="131.7" stroke="#282828" strokeWidth="0.3"/>
<path d="M68.8184 59.4766V63.9081L70.3686 64.8831C70.4246 64.8954 70.4826 64.8954 70.5386 64.8831L77.2041 60.3893C77.1992 60.1712 77.1194 59.9614 76.9781 59.7952C76.8368 59.629 76.6426 59.5165 76.4282 59.4766H68.8184Z" fill="#575757"/>
<path d="M68.8182 65.5612L70.2317 66.5321C70.2979 66.5724 70.3739 66.5937 70.4514 66.5937C70.5289 66.5937 70.6049 66.5724 70.6711 66.5321C70.4283 66.6786 77.2031 62.1807 77.2031 62.1807V70.3253C77.2208 70.4903 77.2022 70.6572 77.1486 70.8143C77.095 70.9714 77.0078 71.1149 76.8929 71.2347C76.7781 71.3546 76.6385 71.4479 76.4838 71.5081C76.3291 71.5684 76.1632 71.5941 75.9975 71.5835H68.8174L68.8182 65.5612Z" fill="#575757"/>
<path d="M61.5007 63.5181C61.2658 63.517 61.035 63.5794 60.8328 63.6988C60.6305 63.8181 60.4643 63.99 60.3517 64.1962C60.0444 64.7426 59.8969 65.3645 59.9261 65.9908C59.8942 66.6158 60.0419 67.2369 60.3517 67.7806C60.4638 67.9782 60.6259 68.1429 60.8218 68.2581C61.0177 68.3732 61.2404 68.4348 61.4676 68.4366C61.6949 68.4384 61.9185 68.3804 62.1162 68.2683C62.3139 68.1563 62.4786 67.9942 62.5938 67.7984C62.9003 67.2571 63.0449 66.6393 63.0105 66.0183C63.0456 65.3778 62.9058 64.7398 62.606 64.1727C62.4988 63.9733 62.3392 63.8069 62.1445 63.6915C61.9497 63.5762 61.7271 63.5162 61.5007 63.5181Z" fill="#575757"/>
<path d="M54.7959 57.2251V74.5622L67.9846 77.3278V54.6724L54.7959 57.2251ZM63.6218 68.8247C63.3751 69.1725 63.047 69.4547 62.6663 69.6466C62.2855 69.8386 61.8635 69.9345 61.4372 69.9259C61.0216 69.9333 60.6103 69.8402 60.2384 69.6545C59.8665 69.4689 59.545 69.1961 59.3011 68.8595C58.7227 68.052 58.4334 67.0732 58.4798 66.081C58.4306 65.0402 58.7252 64.0121 59.3181 63.1552C59.5679 62.8007 59.9011 62.5132 60.2883 62.3179C60.6755 62.1226 61.1048 62.0256 61.5383 62.0354C61.9509 62.0271 62.3592 62.1202 62.7274 62.3066C63.0956 62.4929 63.4125 62.7668 63.6501 63.1042C64.2227 63.9292 64.5071 64.9201 64.4592 65.9232C64.5097 66.9565 64.2151 67.9772 63.6218 68.8247Z" fill="#575757"/>
</svg>
