<svg width="132" height="132" viewBox="0 0 132 132" fill="none" xmlns="http://www.w3.org/2000/svg">
<rect x="0.194118" y="0.194118" width="131.612" height="131.612" stroke="#282828" strokeWidth="0.388235"/>
<path d="M110.054 69.456C110.482 69.8641 111.069 70.0818 111.657 70.0818C112.859 70.1362 113.874 69.1838 113.927 67.9321C113.927 67.8777 113.927 67.7961 113.927 67.7416C113.927 67.0886 113.714 66.4627 113.259 66.0001C112.832 65.5647 112.271 65.3198 111.657 65.3198C110.428 65.2926 109.387 66.2722 109.36 67.5512C109.36 67.6056 109.36 67.6872 109.36 67.7416C109.333 68.3947 109.574 69.0206 110.054 69.456ZM109.333 64.0953V65.211C109.814 64.4219 110.776 63.9321 111.79 63.9321C112.725 63.9321 113.633 64.2858 114.301 64.9661C114.996 65.7008 115.37 66.6804 115.316 67.6872C115.343 68.694 114.969 69.6736 114.301 70.3811C113.633 71.0614 112.725 71.4424 111.79 71.4152C110.776 71.4152 109.761 70.9798 109.333 70.1907V74.7622H107.971V64.0953H109.333ZM104.793 65.9729C104.339 65.5375 103.751 65.3198 103.137 65.3198C102.522 65.3198 101.935 65.5375 101.481 65.9729C101.027 66.4083 100.786 67.0341 100.813 67.6872C100.813 68.3403 101.027 68.9661 101.481 69.4287C101.935 69.8641 102.522 70.109 103.137 70.0818C103.751 70.0818 104.339 69.8641 104.793 69.4287C105.247 68.9661 105.487 68.3403 105.46 67.6872C105.46 67.0341 105.247 66.4355 104.793 65.9729ZM100.519 64.9661C102.015 63.6055 104.285 63.6055 105.781 64.9661C106.502 65.6736 106.876 66.6532 106.849 67.66C106.876 68.694 106.475 69.6736 105.754 70.3811C104.285 71.7689 102.015 71.7689 100.546 70.3811C99.8247 69.6736 99.4507 68.6668 99.4774 67.66C99.4507 66.6532 99.8247 65.6736 100.546 64.9661H100.519ZM93.2541 71.2791H91.8919V60.2041H93.2541V65.1838C93.4678 64.7756 93.7883 64.4491 94.2157 64.2858C94.643 64.0681 95.0971 63.9593 95.5778 63.9593C97.3407 63.9593 98.4358 65.1294 98.4358 67.143V71.2791H97.0736V67.2246C97.0736 66.0545 96.4058 65.3198 95.4176 65.3198C94.8834 65.3198 94.3492 65.4831 93.9219 65.8368C93.4945 66.1634 93.2808 66.7076 93.2808 67.4151V71.2791H93.2541ZM84.9475 68.2314C84.9475 68.7485 85.2146 69.211 85.5885 69.5376C86.0159 69.9185 86.6035 70.1362 87.1644 70.109C88.4197 70.109 89.1142 69.4287 89.2477 68.558C89.3278 67.5239 88.58 66.9253 87.4849 66.6804L86.1494 66.3539C84.4667 65.9185 83.612 64.9933 83.612 63.5783C83.612 62.7348 83.9592 61.9456 84.6003 61.4286C85.268 60.8572 86.096 60.5578 86.9774 60.5851C87.8588 60.5578 88.7135 60.8572 89.3813 61.4558C90.0223 62.0273 90.3695 62.8436 90.3428 63.6872H88.9539C88.9539 62.6531 88.1526 61.9456 87.0041 61.9456C86.5233 61.9456 86.0159 62.0817 85.6419 62.381C85.268 62.6531 85.0543 63.0885 85.0543 63.5239C85.0543 64.2586 85.5618 64.7484 86.5233 64.9933L87.8855 65.3198C89.862 65.8368 90.8503 66.9797 90.6633 68.6396C90.5832 69.4287 90.1825 70.1362 89.5949 70.626C88.9005 71.1703 88.0458 71.4424 87.1911 71.4152C86.2295 71.4424 85.3214 71.1158 84.6003 70.4628C83.9325 69.8913 83.5586 69.075 83.5586 68.2042H84.9475V68.2314Z" fill="#575757"/>
<path d="M20.7657 64.912C19.5371 64.912 18.5488 65.9188 18.5488 67.1433C18.5488 67.9869 19.0029 68.776 19.7508 69.1569C19.4837 68.776 19.3234 68.3134 19.3234 67.8508C19.3234 66.6263 20.2849 65.6195 21.4869 65.5923C21.7273 65.5923 21.9409 65.6195 22.1546 65.7011V62.98C21.9409 62.9528 21.7273 62.9256 21.5136 62.9256H21.38V64.9936C21.1664 64.9392 20.9527 64.8848 20.739 64.912H20.7657ZM27.3362 59.8234C27.1759 59.5512 26.348 58.1363 26.348 57.2383H25.5734C25.7069 58.4628 26.4815 59.2519 27.3095 59.8234H27.3362Z" fill="#575757"/>
<path d="M29.1797 60.9114V62.9522C27.8442 62.8162 26.669 62.517 25.6006 61.7278L24.9061 67.4421C24.9061 70.136 23.4104 71.6599 20.7662 71.6599C19.7779 71.6599 18.1219 70.7347 17.2939 70.1632C18.3623 72.3401 20.2053 72.83 21.5408 72.8028C24.2117 72.8028 26.3485 70.5987 26.3752 67.8776V62.4353C27.4436 63.2245 28.6989 63.6326 30.0077 63.6326V60.9659C29.7406 60.9659 29.5002 60.9387 29.2331 60.8843L29.1797 60.9114Z" fill="#575757"/>
<path d="M41.9459 63.1976C42.6403 63.1976 43.2012 62.6261 43.2012 61.9186C43.2012 61.2111 42.6403 60.6397 41.9459 60.6397C41.2514 60.6397 40.6905 61.2111 40.6905 61.9186C40.6905 62.2724 40.8241 62.5989 41.0644 62.8438C41.3048 63.0887 41.5986 63.2248 41.9459 63.2248V63.1976ZM70.525 60.6125H73.0089V65.5649L75.4662 63.1159H78.431L75.306 66.1908L78.7782 71.2793H76.0271L73.7034 67.7418L72.9555 68.4766V71.2793H70.4716V60.6125H70.525ZM44.1895 60.6125H46.6734V65.5649L49.1307 63.1159H52.0954L48.9704 66.1908L52.4694 71.2793H49.7183L47.3946 67.7418L46.6467 68.4766V71.2793H44.1627V60.6125H44.1895ZM40.7172 64.0411H43.2012V71.2793H40.7439V64.0411H40.7172ZM52.9501 60.6669H60.8829L60.1617 62.9254H57.9715V71.2793H55.4608V62.9254H52.9234V60.6669H52.9501ZM32.464 60.6669H40.2365L39.5153 62.9254H37.5121V71.2793H35.0014V62.9254H32.464V60.6669ZM25.5997 67.1976V61.7554C26.668 62.5445 27.9234 62.9527 29.2322 62.9527V60.8846C28.4576 60.7213 27.7631 60.3132 27.2557 59.6873C26.401 59.1431 25.8133 58.2723 25.6531 57.2383H23.73V67.9323C23.6766 69.1296 22.7151 70.082 21.5398 70.082C20.8187 70.082 20.1509 69.7555 19.7503 69.1568C18.6819 68.5854 18.2546 67.2248 18.8422 66.1092C19.2161 65.3745 19.964 64.9119 20.7653 64.9119C20.9789 64.9119 21.2193 64.9391 21.4063 65.0207V62.9254C18.7621 62.9799 16.6253 65.2112 16.6787 67.9051C16.6787 69.1296 17.2663 70.3813 18.0943 71.2521C18.8956 71.8508 19.4298 72.0684 20.7653 72.0684C23.4362 72.0684 25.573 69.8643 25.5997 67.1432V67.1976Z" fill="#575757"/>
<path d="M64.782 69.0482C63.6335 69.0482 62.7253 68.0958 62.7253 66.9257C62.7253 65.7556 63.6602 64.8304 64.8087 64.8304C65.9572 64.8304 66.8653 65.7828 66.8653 66.9529C66.8653 67.7965 66.3578 68.5584 65.5832 68.8849C65.3162 68.9938 65.0491 69.0482 64.782 69.0482ZM64.782 62.5991C62.4315 62.5991 60.5352 64.5311 60.5352 66.9257C60.5352 69.3203 62.4315 71.2523 64.782 71.2523C67.1324 71.2523 69.0288 69.3203 69.0288 66.9257C69.0288 65.1842 67.9871 63.5787 66.4112 62.9257C65.9038 62.708 65.3429 62.5991 64.782 62.5991Z" fill="#575757"/>
</svg>
