<svg width="133" height="132" viewBox="0 0 133 132" fill="none" xmlns="http://www.w3.org/2000/svg">
<rect x="0.23904" y="0.194118" width="131.612" height="131.612" stroke="#282828" strokeWidth="0.388235"/>
<g clipPath="url(#clip0_523_1107)">
<path d="M34.6445 56.6377C29.4531 56.6377 25.2274 60.7998 25.2252 65.9154C25.2247 67.5506 25.6585 69.1468 26.4827 70.5537L25.1465 75.3623L30.1397 74.072C31.5155 74.8112 33.0643 75.2007 34.6406 75.2012H34.6445C39.8353 75.2012 44.061 71.0386 44.0632 65.923C44.0643 63.4438 43.0854 61.1127 41.307 59.3593C39.5286 57.6053 37.1639 56.6388 34.6445 56.6377ZM34.6445 73.6343H34.6412C33.2367 73.6343 31.8586 73.2617 30.6567 72.5593L30.3709 72.3923L27.4083 73.1581L28.1989 70.3123L28.0128 70.0205C27.2293 68.7926 26.8153 67.3733 26.8158 65.9165C26.8175 61.6643 30.3296 58.2051 34.6478 58.2051C36.7389 58.2057 38.7044 59.0089 40.1822 60.4668C41.6605 61.9241 42.4737 63.862 42.4731 65.9224C42.4715 70.1746 38.9593 73.6343 34.6445 73.6343ZM38.9384 67.8587C38.7033 67.7426 37.546 67.1818 37.3302 67.1042C37.1144 67.0267 36.9574 66.9882 36.8005 67.2203C36.6436 67.4524 36.1927 67.9747 36.0556 68.1293C35.9185 68.2844 35.7809 68.3034 35.5458 68.1873C35.3107 68.0713 34.552 67.8261 33.6534 67.0365C32.9537 66.422 32.4813 65.6626 32.3442 65.4305C32.2071 65.1984 32.3293 65.0731 32.4477 64.9576C32.5534 64.854 32.6828 64.6869 32.8006 64.5513C32.9184 64.4157 32.9575 64.3192 33.0357 64.1641C33.1139 64.0095 33.0748 63.8739 33.0159 63.7579C32.957 63.6418 32.4862 62.5007 32.2902 62.0364C32.0992 61.5846 31.9054 61.6453 31.7606 61.6383C31.6235 61.6312 31.4665 61.6302 31.3096 61.6302C31.1527 61.6302 30.8978 61.6882 30.682 61.9203C30.4662 62.1525 29.8583 62.7133 29.8583 63.8544C29.8583 64.9955 30.7018 66.0982 30.8191 66.2527C30.9369 66.4073 32.4785 68.7492 34.8394 69.7532C35.401 69.9918 35.8392 70.1344 36.1811 70.2413C36.7449 70.4176 37.2581 70.3926 37.6633 70.3329C38.1153 70.2662 39.0557 69.7721 39.2517 69.2303C39.4477 68.689 39.4477 68.2248 39.3888 68.1277C39.3299 68.0311 39.173 67.9731 38.9379 67.857L38.9384 67.8587ZM55.6011 67.7171H55.5757L54.0143 61.5114H52.1324L50.5451 67.6412H50.5198L49.0734 61.5114H47.0638L49.4831 70.5173H51.5185L53.0414 64.387H53.0673L54.6161 70.5173H56.613L59.0708 61.5114H57.0997L55.6016 67.7171H55.6011ZM65.2015 64.5573C65.0225 64.3263 64.777 64.1456 64.4659 64.0149C64.1543 63.8853 63.7551 63.8202 63.2689 63.8202C62.9276 63.8202 62.578 63.9059 62.219 64.0789C61.8606 64.2509 61.5665 64.5264 61.3359 64.905H61.2973V61.5114H59.4799V70.5168H61.2973V67.0988C61.2973 66.4344 61.408 65.9577 61.6304 65.667C61.8523 65.3774 62.2107 65.232 62.7057 65.232C63.1406 65.232 63.4435 65.3643 63.6147 65.6296C63.7854 65.8942 63.8707 66.2956 63.8707 66.8336V70.5168H65.6887V66.506C65.6887 66.1025 65.6518 65.7348 65.5797 65.4023C65.507 65.0709 65.3815 64.7889 65.202 64.5573H65.2015ZM72.6898 69.0665V65.674C72.6898 65.2781 72.6006 64.9608 72.4206 64.7216C72.2417 64.4819 72.0115 64.2948 71.7302 64.1603C71.4483 64.0258 71.1367 63.9352 70.7953 63.8891C70.4539 63.843 70.117 63.8197 69.7844 63.8197C69.4178 63.8197 69.0527 63.8549 68.6905 63.9271C68.3271 63.9987 68.0011 64.1185 67.711 64.2867C67.4208 64.4548 67.1813 64.6777 66.9947 64.9549C66.8064 65.2325 66.6996 65.5813 66.6742 66.0022H68.4917C68.5258 65.6491 68.6459 65.3963 68.8507 65.245C69.0555 65.0937 69.3368 65.0183 69.6953 65.0183C69.8571 65.0183 70.0085 65.0286 70.1495 65.0498C70.2899 65.0709 70.4138 65.1121 70.5206 65.1756C70.6274 65.2385 70.7127 65.3269 70.7766 65.4408C70.8405 65.5542 70.8724 65.7082 70.8724 65.9007C70.8806 66.0862 70.825 66.2262 70.7061 66.3232C70.5861 66.4203 70.4242 66.4941 70.2194 66.544C70.0146 66.595 69.78 66.6329 69.5152 66.6573C69.2504 66.6834 68.9817 66.7175 68.7092 66.7588C68.4355 66.8011 68.1647 66.8575 67.8965 66.9291C67.6278 67.0001 67.3878 67.108 67.1791 67.2501C66.9699 67.3939 66.7992 67.5848 66.6665 67.8245C66.5344 68.0642 66.4683 68.3696 66.4683 68.7389C66.4683 69.0752 66.5261 69.3654 66.6412 69.6089C66.7563 69.8535 66.9165 70.0547 67.1213 70.2147C67.3261 70.3747 67.5651 70.4924 67.8382 70.5683C68.1107 70.6437 68.4058 70.6817 68.7213 70.6817C69.1309 70.6817 69.5323 70.6226 69.9243 70.5054C70.3169 70.3866 70.6588 70.1816 70.9489 69.8866C70.9572 69.9961 70.972 70.1035 70.9935 70.2082C71.015 70.3129 71.0425 70.4165 71.0766 70.5168H72.92C72.8346 70.3828 72.7746 70.1811 72.7405 69.9115C72.7058 69.6425 72.6887 69.3616 72.6887 69.0665H72.6898ZM70.8724 67.9943C70.8724 68.0962 70.8619 68.2307 70.8405 68.3983C70.8195 68.567 70.7617 68.7324 70.6676 68.8968C70.5734 69.0606 70.4281 69.2021 70.2321 69.3193C70.0361 69.4375 69.7586 69.4961 69.3996 69.4961C69.2548 69.4961 69.1138 69.4836 68.9773 69.4576C68.8408 69.4326 68.7213 69.3881 68.6189 69.3252C68.5165 69.2623 68.4355 69.1761 68.3755 69.0665C68.3161 68.957 68.2858 68.823 68.2858 68.6635C68.2858 68.4954 68.3161 68.356 68.3755 68.247C68.4355 68.138 68.5143 68.0474 68.6128 67.9758C68.7103 67.9042 68.8259 67.8478 68.958 67.8055C69.0902 67.7638 69.2245 67.7301 69.3616 67.7046C69.5064 67.6797 69.6518 67.658 69.7966 67.6417C69.9425 67.6255 70.0807 67.6038 70.2128 67.5788C70.3455 67.5533 70.4688 67.5219 70.5844 67.4839C70.6995 67.4459 70.7953 67.3944 70.8724 67.3266V67.9948V67.9943ZM76.0825 62.0413H74.2645V63.996H73.1639V65.194H74.2645V69.0416C74.2645 69.3697 74.3206 69.6344 74.4313 69.8361C74.5425 70.0379 74.6939 70.1941 74.8855 70.3031C75.0777 70.4127 75.2996 70.4859 75.5517 70.5233C75.8028 70.5607 76.0704 70.5803 76.3517 70.5803C76.5318 70.5803 76.7146 70.5759 76.9028 70.5683C77.09 70.5597 77.2607 70.5434 77.4149 70.5173V69.13C77.329 69.1468 77.2398 69.1603 77.1457 69.1679C77.0521 69.1766 76.9541 69.181 76.8516 69.181C76.545 69.181 76.3396 69.13 76.2372 69.0291C76.1353 68.9282 76.0841 68.7265 76.0841 68.4233V65.194H77.4154V63.996H76.0841V62.0413H76.0825ZM83.5957 67.6607C83.4762 67.4546 83.3182 67.2821 83.1222 67.1433C82.9262 67.005 82.7015 66.8933 82.4505 66.8087C82.1983 66.7251 81.9401 66.6541 81.6758 66.595C81.4198 66.5358 81.1687 66.4811 80.921 66.4306C80.6732 66.3802 80.4535 66.3232 80.2614 66.2609C80.0698 66.1974 79.9145 66.1161 79.795 66.0146C79.675 65.9138 79.6161 65.7841 79.6161 65.6236C79.6161 65.4891 79.6491 65.3817 79.7179 65.302C79.7862 65.2222 79.8699 65.1615 79.9679 65.1186C80.0665 65.0769 80.1744 65.0498 80.2938 65.0368C80.4133 65.0243 80.5245 65.0183 80.6264 65.0183C80.9507 65.0183 81.2326 65.0791 81.4721 65.2011C81.7105 65.3231 81.8432 65.5563 81.8679 65.9007H83.5962C83.5621 65.4972 83.4575 65.1631 83.2829 64.8979C83.1084 64.6332 82.8882 64.4212 82.6239 64.2612C82.3596 64.1012 82.059 63.9878 81.7209 63.9206C81.384 63.8533 81.0366 63.8197 80.6787 63.8197C80.3208 63.8197 79.9696 63.8511 79.6293 63.9135C79.2874 63.977 78.9802 64.0865 78.7076 64.2422C78.434 64.3978 78.2149 64.6099 78.048 64.8789C77.8812 65.1479 77.7981 65.4929 77.7981 65.9132C77.7981 66.199 77.8581 66.4415 77.9781 66.6389C78.0965 66.8369 78.2551 67.0001 78.4505 67.1308C78.6476 67.261 78.8717 67.3668 79.1233 67.4459C79.3749 67.5267 79.6332 67.5956 79.8974 67.6547C80.5466 67.7893 81.0525 67.9238 81.4148 68.0588C81.7776 68.1933 81.9588 68.3951 81.9588 68.6641C81.9588 68.8241 81.9208 68.9553 81.8437 69.0606C81.7666 69.1663 81.6708 69.2498 81.5558 69.3128C81.4401 69.3762 81.3119 69.4229 81.1715 69.4516C81.0305 69.4814 80.8956 69.4961 80.7679 69.4961C80.5884 69.4961 80.4161 69.4749 80.2498 69.4332C80.083 69.3909 79.936 69.3258 79.8077 69.2374C79.68 69.149 79.5748 69.0356 79.4939 68.8968C79.4135 68.7579 79.3722 68.5925 79.3722 68.3983H77.6445C77.6621 68.8355 77.7617 69.1994 77.9456 69.4896C78.1284 69.7797 78.363 70.0129 78.6493 70.1898C78.935 70.366 79.2621 70.4924 79.6293 70.5683C79.9954 70.6437 80.3709 70.6817 80.7547 70.6817C81.1384 70.6817 81.4996 70.6459 81.8624 70.5748C82.2253 70.5032 82.5474 70.379 82.8287 70.2022C83.1111 70.026 83.338 69.7927 83.5136 69.5026C83.6881 69.2119 83.7757 68.8528 83.7757 68.4238C83.7757 68.1206 83.7162 67.8668 83.5968 67.6613L83.5957 67.6607ZM87.2052 61.5114L83.7493 70.5173H85.7715L86.4878 68.5117H89.9058L90.5962 70.5173H92.6835L89.266 61.5114H87.2047H87.2052ZM87.0136 67.0365L88.204 63.7318H88.2293L89.3817 67.0365H87.0136ZM98.9688 64.8795C98.7216 64.56 98.41 64.3035 98.0345 64.1104C97.659 63.9168 97.2114 63.8202 96.6911 63.8202C96.2809 63.8202 95.906 63.9 95.5646 64.0594C95.2222 64.2194 94.9414 64.4759 94.72 64.829H94.6942V63.996H92.9654V72.8007H94.7845V69.7103H94.8092C95.0311 70.0303 95.3152 70.2717 95.6615 70.4349C96.0062 70.5987 96.3844 70.6811 96.7941 70.6811C97.2808 70.6811 97.7053 70.5879 98.0675 70.4034C98.4304 70.2185 98.7332 69.9701 98.9765 69.6588C99.2199 69.3475 99.4005 68.9906 99.5211 68.5871C99.6394 68.183 99.7 67.7627 99.7 67.3255C99.7 66.8629 99.6394 66.4198 99.5211 65.9946C99.4005 65.5704 99.2177 65.1978 98.9699 64.8784L98.9688 64.8795ZM97.8044 68.0452C97.7526 68.298 97.6651 68.5182 97.5417 68.7075C97.4179 68.8968 97.256 69.0508 97.0545 69.1679C96.8546 69.2856 96.6047 69.3453 96.3063 69.3453C96.0078 69.3453 95.7694 69.2862 95.5646 69.1679C95.3598 69.0508 95.1952 68.8968 95.0713 68.7075C94.9474 68.5182 94.8582 68.298 94.8026 68.0452C94.747 67.793 94.72 67.5365 94.72 67.2767C94.72 67.0169 94.7448 66.7463 94.796 66.4946C94.8478 66.2424 94.9348 66.0195 95.0592 65.8254C95.182 65.6323 95.3449 65.475 95.5459 65.353C95.7463 65.2309 95.9952 65.1691 96.2941 65.1691C96.5931 65.1691 96.8304 65.2309 97.0303 65.353C97.2307 65.4744 97.3953 65.6339 97.523 65.8319C97.6508 66.0298 97.7422 66.2549 97.7983 66.5066C97.8545 66.7588 97.8809 67.0158 97.8809 67.2767C97.8809 67.5376 97.8561 67.7936 97.8049 68.0452H97.8044ZM106.764 65.9957C106.644 65.5715 106.461 65.1989 106.213 64.8795C105.966 64.56 105.655 64.3035 105.28 64.1104C104.903 63.9168 104.455 63.8202 103.935 63.8202C103.526 63.8202 103.15 63.9 102.809 64.0594C102.468 64.2194 102.186 64.4759 101.964 64.829H101.939V63.996H100.211V72.8007H102.028V69.7103H102.054C102.276 70.0303 102.56 70.2717 102.905 70.4349C103.251 70.5987 103.629 70.6811 104.039 70.6811C104.525 70.6811 104.949 70.5879 105.312 70.4034C105.674 70.2185 105.978 69.9701 106.22 69.6588C106.464 69.3475 106.645 68.9906 106.764 68.5871C106.884 68.183 106.944 67.7627 106.944 67.3255C106.944 66.8629 106.884 66.4198 106.764 65.9946L106.764 65.9957ZM105.048 68.0452C104.998 68.298 104.91 68.5182 104.786 68.7075C104.662 68.8968 104.5 69.0508 104.3 69.1679C104.099 69.2856 103.85 69.3453 103.551 69.3453C103.252 69.3453 103.013 69.2862 102.808 69.1679C102.603 69.0508 102.439 68.8968 102.315 68.7075C102.191 68.5182 102.102 68.298 102.046 68.0452C101.99 67.793 101.963 67.5365 101.963 67.2767C101.963 67.0169 101.989 66.7463 102.04 66.4946C102.091 66.2424 102.179 66.0195 102.303 65.8254C102.426 65.6323 102.588 65.475 102.789 65.353C102.989 65.2309 103.239 65.1691 103.538 65.1691C103.837 65.1691 104.073 65.2309 104.274 65.353C104.475 65.4744 104.639 65.6339 104.767 65.8319C104.895 66.0298 104.987 66.2549 105.042 66.5066C105.098 66.7588 105.125 67.0158 105.125 67.2767C105.125 67.5376 105.1 67.7936 105.048 68.0452Z" fill="#575757"/>
</g>
<defs>
<clipPath id="clip0_523_1107">
<rect width="81.7969" height="18.7246" fill="white" transform="translate(25.1465 56.6377)"/>
</clipPath>
</defs>
</svg>
