<svg width="132" height="132" viewBox="0 0 132 132" fill="none" xmlns="http://www.w3.org/2000/svg">
<rect x="0.194118" y="0.194118" width="131.612" height="131.612" stroke="#282828" strokeWidth="0.388235"/>
<mask id="mask0_523_1099" style="mask-type:alpha" maskUnits="userSpaceOnUse" x="37" y="45" width="58" height="42">
<g clipPath="url(#clip0_523_1099)">
<path d="M64.7878 52.1468V69.6699H50.2432L64.7878 52.1468ZM64.7878 45.8608C64.7878 49.8652 61.5366 53.1091 57.5233 53.1091C53.5099 53.1091 50.2432 49.8652 50.2432 45.8608H64.7878ZM67.1833 69.6699C67.1833 65.6655 70.4345 62.4217 74.4479 62.4217C78.4612 62.4217 81.7124 65.6655 81.7124 69.6699H67.1833ZM67.1833 63.384V45.8608H81.7279L67.1833 63.384ZM75.319 84.6476C76.0657 84.6632 76.7968 84.3838 77.3412 83.8716L78.3368 84.9425C77.6834 85.6255 76.7657 86.1221 75.3345 86.1221C72.8923 86.1221 71.3212 84.5079 71.3212 82.3195C71.2745 80.2552 72.9234 78.5634 74.9768 78.5169H75.1012C77.5279 78.5169 78.8968 80.3483 78.7723 82.9093H73.0634C73.2656 83.9802 74.0123 84.6632 75.319 84.6476ZM77.0612 81.7142C76.9057 80.7208 76.3145 79.9914 75.1323 79.9914C74.0279 79.9914 73.2656 80.6122 73.0634 81.7142H77.0612ZM37.752 84.57L42.1542 80.1H37.8608V78.7031H44.192V80.131L39.7898 84.6011H44.2542V85.998H37.752V84.57ZM49.201 84.6476C49.9476 84.6632 50.6787 84.3838 51.2076 83.8716L52.2032 84.9425C51.5499 85.6255 50.6321 86.1221 49.201 86.1221C46.7587 86.1221 45.1876 84.5079 45.1876 82.3195C45.1409 80.2552 46.7898 78.5634 48.8432 78.5169H48.9676C51.3943 78.5169 52.7632 80.3483 52.6388 82.9093H46.9454C47.1476 83.9802 47.8943 84.6632 49.201 84.6476ZM50.9432 81.7142C50.7876 80.7208 50.1965 79.9914 49.0143 79.9914C47.9098 79.9914 47.1476 80.6122 46.9454 81.7142H50.9432ZM62.1744 82.335C62.1744 80.0069 63.9166 78.5479 65.8456 78.5479C66.7789 78.5324 67.6656 78.9359 68.2878 79.6344V75.3351H69.8434V85.9824H68.2878V84.9736C67.6811 85.7031 66.7789 86.1376 65.83 86.1221C63.9633 86.1221 62.1744 84.6476 62.1744 82.335ZM68.3656 82.3195C68.3345 81.0468 67.2611 80.0379 65.9856 80.069C64.71 80.1 63.6989 81.1709 63.73 82.4437C63.7611 83.7009 64.7878 84.6942 66.0478 84.6942C67.3856 84.6942 68.3656 83.6388 68.3656 82.3195ZM79.799 84.4303L81.2146 83.7009C81.5879 84.3838 82.319 84.7873 83.0968 84.7718C83.9835 84.7718 84.4346 84.3217 84.4346 83.8095C84.4346 83.2197 83.5791 83.0955 82.6613 82.9093C81.4168 82.6454 80.1257 82.2419 80.1257 80.7364C80.1257 79.5878 81.2301 78.5169 82.9568 78.5324C84.3257 78.5324 85.3369 79.0756 85.9124 79.9448L84.6057 80.6588C84.2324 80.1155 83.6102 79.8051 82.9568 79.8206C82.1168 79.8206 81.6968 80.2242 81.6968 80.6898C81.6968 81.2175 82.3657 81.3572 83.4235 81.59C84.6213 81.8539 85.9902 82.2419 85.9902 83.7629C85.9902 84.7718 85.1035 86.1221 83.0191 86.1066C81.4946 86.1221 80.4212 85.5168 79.799 84.4303ZM90.2058 82.7386L88.9769 84.0889V85.9824H87.4213V75.3351H88.9769V82.304L92.2747 78.6876H94.1725L91.3102 81.8073L94.2503 85.9824H92.4925L90.2058 82.7386ZM57.4766 78.5324C55.6255 78.5324 54.0699 79.7275 54.0699 81.7142V85.9824H55.6566V81.916C55.6566 80.7208 56.341 80.0069 57.5233 80.0069C58.7055 80.0069 59.281 80.7208 59.281 81.916V85.9824H60.8522V81.7142C60.8677 79.7275 59.3122 78.5324 57.4766 78.5324Z" fill="#03363D"/>
</g>
</mask>
<g mask="url(#mask0_523_1099)">
<rect x="31.4922" y="35.4985" width="72.7329" height="72.7329" fill="#575757"/>
</g>
<defs>
<clipPath id="clip0_523_1099">
<rect width="56.5048" height="40.2768" fill="white" transform="translate(37.748 45.8618)"/>
</clipPath>
</defs>
</svg>
