<svg width="100" height="45" viewBox="0 0 100 45" fill="none" xmlns="http://www.w3.org/2000/svg">
<g clip-path="url(#clip0_2042_2170)">
<path d="M30.6558 16.4127C30.8664 15.5867 31.3421 14.8525 32.01 14.3228C32.6779 13.7931 33.5011 13.4971 34.3534 13.4801L34.3959 13.5084C36.9602 13.5084 38.0369 15.3077 38.646 17.7586V30.0698H34.8068V19.3028C34.7552 18.8552 34.5627 18.4356 34.2572 18.1046C33.9516 17.7736 33.5487 17.5482 33.1067 17.4611C32.6074 17.4464 32.1187 17.607 31.7254 17.915C31.3321 18.2229 31.059 18.6587 30.9533 19.1469V29.9564H27.114V19.0336C27.0111 18.6254 26.8005 18.2523 26.5041 17.9532C26.2078 17.6542 25.8366 17.4402 25.4293 17.3336C25.1244 17.3276 24.8214 17.3833 24.5385 17.4972C24.2556 17.6112 23.9985 17.781 23.7828 17.9966C23.5671 18.2122 23.3971 18.4692 23.283 18.752C23.169 19.0349 23.1131 19.3378 23.1189 19.6428V30.0981H19.2796V13.9476H23.1189V16.7102C23.3254 15.8554 23.7919 15.0857 24.4541 14.5072C25.1164 13.9287 25.9418 13.5698 26.8165 13.4801C27.6785 13.5213 28.5076 13.824 29.1934 14.3478C29.8792 14.8717 30.3893 15.5919 30.6558 16.4127ZM69.1336 21.9804C69.1336 17.1777 72.052 13.4801 75.7497 13.4801C79.2914 13.4801 82.3657 17.2344 82.3657 21.9804C82.3657 26.7263 79.4473 30.4806 75.7497 30.4806C72.052 30.4806 69.1336 26.783 69.1336 21.9804ZM88.2167 16.7102C88.4223 15.8575 88.8867 15.0893 89.5462 14.511C90.2057 13.9327 91.0279 13.5726 91.9001 13.4801C92.9024 13.4956 93.8622 13.8873 94.5892 14.5775C95.3161 15.2677 95.757 16.2059 95.8244 17.206V29.9564H92.2827V19.0336C92.1723 18.6172 91.9503 18.2388 91.6407 17.9392C91.3312 17.6397 90.9457 17.4302 90.5259 17.3336C90.2211 17.3278 89.9182 17.3836 89.6355 17.4976C89.3527 17.6116 89.0958 17.7815 88.8802 17.9971C88.6646 18.2126 88.4947 18.4695 88.3807 18.7523C88.2667 19.0351 88.2109 19.3379 88.2167 19.6428V30.0981H84.3632V13.9476H88.2167V16.7102ZM17.4379 27.3497L15.9079 25.8055V17.036C15.9079 15.1943 12.6778 13.4943 10.241 13.4943C6.69925 13.4943 3.9225 15.8035 3.78083 18.7361H7.46427C7.57391 18.1649 7.8809 17.6504 8.33153 17.2826C8.78216 16.9149 9.34774 16.7173 9.92935 16.7244C10.2061 16.7005 10.4849 16.7351 10.7475 16.8258C11.01 16.9165 11.2506 17.0614 11.4537 17.2511C11.6567 17.4408 11.8176 17.671 11.926 17.9268C12.0343 18.1826 12.0877 18.4583 12.0827 18.7361V20.1528H9.00849C8.26436 20.1417 7.52763 20.3017 6.85509 20.6203C6.22554 20.8587 5.64959 21.2197 5.16062 21.6824C4.67166 22.1451 4.27941 22.7002 4.00662 23.3157C3.73382 23.9311 3.58592 24.5946 3.57148 25.2676C3.55704 25.9406 3.67636 26.6098 3.9225 27.2363C4.22507 27.8435 4.64445 28.3849 5.15661 28.8297C5.66878 29.2745 6.26367 29.6139 6.9072 29.8284C7.55074 30.0429 8.23028 30.1284 8.90688 30.0798C9.58349 30.0313 10.2439 29.8497 10.8502 29.5456C11.5889 29.2558 12.2318 28.7651 12.7061 28.1289L14.7037 30.1264L17.4379 27.3497ZM54.9665 27.3497L53.4223 25.8055V17.036C53.4223 15.1943 50.1922 13.4943 47.7555 13.4943C44.2137 13.4943 41.4511 15.8035 41.2953 18.7361H44.9929C45.2078 17.5555 46.2443 16.7055 47.4438 16.7244C47.7206 16.7005 47.9993 16.7351 48.2619 16.8258C48.5245 16.9165 48.7651 17.0614 48.9681 17.2511C49.1711 17.4408 49.332 17.671 49.4404 17.9268C49.5488 18.1826 49.6022 18.4583 49.5972 18.7361V20.1528H46.3671C45.6231 20.1431 44.8867 20.303 44.2137 20.6203C43.5892 20.859 43.0179 21.2184 42.5325 21.6781C42.047 22.1377 41.6569 22.6885 41.3846 23.2991C41.1122 23.9096 40.9629 24.5679 40.9451 25.2362C40.9274 25.9045 41.0415 26.5697 41.2811 27.1938C41.5822 27.8023 42.0009 28.3451 42.5128 28.7909C43.0248 29.2368 43.6199 29.5769 44.264 29.7915C44.908 30.0062 45.5882 30.0913 46.2652 30.0417C46.9423 29.9922 47.6029 29.8092 48.2088 29.5031C48.9424 29.211 49.5801 28.7205 50.0506 28.0864L52.0481 30.0839L54.9665 27.3497ZM62.5318 17.1919H56.8649V13.9618H67.4761V16.8802L62.0926 24.7288C63.1291 24.7961 64.1586 24.9531 65.1668 25.1963C66.1432 25.4643 67.0924 25.8244 68.0003 26.273V29.5031C66.1651 28.8753 64.2636 28.4617 62.3334 28.2705C60.3937 28.4004 58.4847 28.816 56.6666 29.5031V25.9613L62.5318 17.1919ZM75.7497 26.8113C76.2772 26.804 76.781 26.5912 77.154 26.2182C77.5271 25.8451 77.7399 25.3413 77.7472 24.8138V18.8069C77.7399 18.2794 77.5271 17.7756 77.154 17.4025C76.781 17.0295 76.2772 16.8167 75.7497 16.8094H75.5938C75.0663 16.8167 74.5625 17.0295 74.1894 17.4025C73.8164 17.7756 73.6036 18.2794 73.5963 18.8069V24.8138C73.6116 25.9105 74.4971 26.7972 75.5938 26.8113H75.7497ZM8.21513 26.5705C8.01051 26.3102 7.85978 26.0118 7.77172 25.6927C7.68366 25.3735 7.66005 25.04 7.70225 24.7116C7.74445 24.3833 7.85162 24.0666 8.01751 23.7801C8.18341 23.4936 8.4047 23.243 8.66848 23.0429C8.95182 22.7253 9.32961 22.5081 9.74518 22.4195H12.0544V25.8055L11.7427 26.1171C11.3157 26.6169 10.7182 26.94 10.0663 27.0238C9.41439 27.1076 8.7546 26.946 8.21513 26.5705ZM45.8854 26.5705C45.0319 25.4725 45.2361 23.8906 46.3388 23.0429C46.6221 22.7253 46.9999 22.5081 47.4155 22.4195H49.7814V25.8055L49.6255 25.9613C49.2031 26.5108 48.5878 26.8793 47.904 26.9924C47.2202 27.1055 46.5189 26.9547 45.9421 26.5705H45.8854Z" fill="white"/>
<path d="M63.1274 32.7332C62.8251 32.0154 60.8276 32.0154 57.1347 32.7332H57.2055C56.2705 32.889 56.4263 32.1098 56.5822 31.9682C58.54 31.1256 60.621 30.6041 62.7448 30.424C64.4307 30.424 65.3516 30.7356 65.3516 31.9682C65.5924 35.4958 62.9857 38.8817 62.5182 39.3492C62.0507 39.8167 60.974 39.6609 61.4415 38.8817C62.0507 37.805 63.5807 33.8099 63.1274 32.7332ZM41.127 38.1167C32.7961 37.9379 24.6446 35.6625 17.4255 31.5006C16.969 31.3653 16.7014 31.3566 16.6227 31.4747C16.5196 31.6274 16.7349 31.9949 17.2685 32.5773C21.7311 37.04 30.2042 40.7376 39.2841 41.6585C48.3652 42.5793 59.8843 36.5725 60.8181 35.8074C61.7543 35.0424 62.0932 33.654 60.8181 33.9657C60.5903 34.0212 60.2467 34.1959 59.7591 34.4427C57.5207 35.576 52.2459 38.2442 41.127 38.1167Z" fill="white"/>
</g>
<defs>
<clipPath id="clip0_2042_2170">
<rect width="93" height="32" fill="white" transform="translate(3.5 10.91)"/>
</clipPath>
</defs>
</svg>
