<svg t="1703075192798" class="icon" viewBox="0 0 1024 1024" version="1.1" xmlns="http://www.w3.org/2000/svg" p-id="4254" width="200" height="200"><path d="M544 126.528c-81.28 0-147.2 64.448-147.2 143.936 0 79.424 65.92 143.872 147.2 143.872 81.28 0 147.2-64.448 147.2-143.872 0-79.488-65.92-143.936-147.2-143.936zM332.8 270.464C332.8 156.416 427.392 64 544 64c116.672 0 211.2 92.416 211.2 206.464 0 100.224-73.152 183.808-170.112 202.496a32.448 32.448 0 0 1-15.488 3.904c-192.256 0-355.648 159.744-377.792 372.288a31.808 31.808 0 0 1-35.072 27.904 31.488 31.488 0 0 1-28.544-34.304c19.328-185.6 136.192-342.08 296.256-402.112A204.928 204.928 0 0 1 332.8 270.4z m580.864 328.832L823.936 512c-37.888-36.8-71.872 0-71.872 0l-233.344 226.944-0.32 156.544 161.92 0.512 233.344-226.88s32.192-38.528 0-69.824z m-341.504 157.44l4.032-3.968 87.936 86.656-4.032 3.968-88.32-0.32 0.384-86.4z m42.368-41.728l152-149.888c9.216-9.024 22.144-11.008 34.24 0.896l52.8 52.032c12.16 11.968 10.048 24.704 0.896 33.792l-152 149.76-87.936-86.592z" fill="#ffffff" p-id="4255"></path></svg>