<svg width="100" height="30" viewBox="0 0 100 30" fill="none" xmlns="http://www.w3.org/2000/svg">
<g clip-path="url(#clip0_1034_39164)">
<path d="M34.5165 15.1499C34.9165 15.3999 35.5165 15.5999 36.2665 15.7499C37.0165 15.9499 37.8165 15.9999 38.6165 15.9999C39.4165 15.9999 40.1165 15.8999 40.7665 15.6999C41.4165 15.4999 41.9665 15.1999 42.4665 14.8499C42.9665 14.4999 43.3165 13.9999 43.5665 13.4999C43.8165 12.9999 43.9665 12.3999 43.9665 11.7499C43.9665 10.9499 43.7165 10.2499 43.2665 9.5999C42.8165 8.9999 42.0165 8.4999 40.9165 8.1499L38.7665 7.4499C37.9665 7.1999 37.3665 6.8999 37.0665 6.5999C36.7665 6.2999 36.6165 5.9999 36.6165 5.4999C36.6165 4.8999 36.8665 4.3999 37.3165 4.1499C37.7665 3.8999 38.4665 3.6999 39.3665 3.6999C40.4665 3.6999 41.4165 3.8999 42.3165 4.2999C42.5665 4.3999 42.7665 4.4999 42.9165 4.4999C43.1665 4.4999 43.2665 4.3499 43.2665 3.9999V3.2999C43.2665 3.0999 43.2165 2.8999 43.1165 2.7999C43.0165 2.6999 42.8665 2.5499 42.6665 2.3999C42.5165 2.2999 42.2665 2.1999 42.0165 2.1499C41.7665 2.0499 41.4665 1.9999 41.1665 1.8999C40.8665 1.8499 40.5165 1.7499 40.1665 1.6999C39.8165 1.6499 39.4665 1.6499 39.1165 1.6499C38.4665 1.6499 37.8165 1.7499 37.2165 1.8999C36.6165 2.0999 36.0665 2.3499 35.6165 2.6999C35.1665 3.0999 34.7665 3.4999 34.5165 3.9999C34.2665 4.4999 34.1165 5.0499 34.1165 5.6999C34.1165 6.4999 34.3665 7.2499 34.8665 7.8999C35.3665 8.5999 36.1665 9.0999 37.3165 9.4499L39.5165 10.1499C40.2665 10.3999 40.7665 10.6499 41.0665 10.9499C41.3665 11.2499 41.4665 11.5999 41.4665 11.9999C41.4665 12.5999 41.2165 13.0999 40.6665 13.4499C40.1165 13.7999 39.4165 13.9499 38.4165 13.9499C37.8165 13.9499 37.2165 13.8999 36.6165 13.7499C36.0165 13.5999 35.4665 13.4499 34.9165 13.1999C34.7665 13.1499 34.6165 13.0999 34.5165 13.0499C34.4165 12.9999 34.3165 12.9999 34.2165 12.9999C33.9665 12.9999 33.8665 13.1499 33.8665 13.4999V14.2499C33.8665 14.3999 33.9165 14.5499 33.9665 14.6999C34.0665 14.8999 34.2665 14.9999 34.5165 15.1499Z" fill="white"/>
<path d="M8.71649 7.74971C8.16649 7.64971 7.61649 7.64971 7.11649 7.64971C5.56649 7.64971 4.31649 8.04971 3.36649 8.84971C2.46649 9.64971 1.96649 10.6997 1.96649 11.9997C1.96649 13.2497 2.31649 14.1997 3.06649 14.9497C3.81649 15.6997 4.81649 16.0497 6.11649 16.0497C7.91649 16.0497 9.41649 15.3497 10.6165 13.9497C10.7665 14.2997 10.9165 14.5997 11.0665 14.8497C11.2165 15.0997 11.4165 15.3497 11.6165 15.5497C11.7665 15.6997 11.9165 15.7497 12.0665 15.7497C12.1665 15.7497 12.3165 15.6997 12.4665 15.5997L13.4165 14.9497C13.6165 14.7997 13.7165 14.6497 13.7165 14.4997C13.7165 14.3997 13.6665 14.2997 13.6165 14.1497C13.4165 13.7497 13.2165 13.3997 13.1165 13.0497C13.0165 12.6997 12.9165 12.2497 12.9165 11.6997V6.69971C12.9165 5.04971 12.4665 3.79971 11.6665 2.94971C10.8665 2.09971 9.46649 1.69971 7.66649 1.69971C6.81649 1.69971 6.01649 1.79971 5.26649 1.99971C4.51649 2.19971 3.86649 2.44971 3.36649 2.69971C3.16649 2.79971 3.01649 2.89971 2.96649 2.99971C2.91649 3.09971 2.86649 3.29971 2.86649 3.54971V4.29971C2.86649 4.59971 2.96649 4.79971 3.16649 4.79971C3.21649 4.79971 3.31649 4.79971 3.41649 4.74971C3.51649 4.69971 3.71649 4.64971 3.96649 4.54971C4.51649 4.34971 5.06649 4.14971 5.61649 4.04971C6.16649 3.89971 6.71649 3.84971 7.26649 3.84971C8.41649 3.84971 9.26649 4.09971 9.76649 4.54971C10.2665 4.99971 10.4665 5.84971 10.4665 6.99971V8.09971C9.81649 7.94971 9.26649 7.84971 8.71649 7.74971ZM10.4665 10.4497C10.4665 10.9497 10.4165 11.3997 10.3165 11.7497C10.2165 12.0997 10.0665 12.4497 9.81649 12.7497C9.41649 13.1997 8.91649 13.5497 8.36649 13.6997C7.81649 13.8497 7.26649 13.9997 6.76649 13.9997C6.06649 13.9997 5.51649 13.7997 5.16649 13.4497C4.76649 13.0997 4.61649 12.5497 4.61649 11.8497C4.61649 11.0997 4.86649 10.4997 5.36649 10.0997C5.86649 9.69971 6.61649 9.49971 7.61649 9.49971C8.06649 9.49971 8.56649 9.54971 9.06649 9.59971C9.56649 9.64971 10.0165 9.74971 10.4665 9.84971V10.4497Z" fill="white"/>
<path d="M18.1165 14.8998C18.2165 15.1998 18.3165 15.3998 18.4165 15.4998C18.5165 15.5998 18.7165 15.6498 19.0165 15.6498H20.3165C20.6165 15.6498 20.8165 15.5998 20.9165 15.4998C21.0165 15.3998 21.1165 15.1998 21.2165 14.8998L23.5665 5.0498L25.9665 14.8998C26.0165 15.1998 26.1165 15.3998 26.2665 15.4998C26.4165 15.5998 26.6165 15.6498 26.8665 15.6498H28.1665C28.4165 15.6498 28.6165 15.5998 28.7665 15.4998C28.8665 15.3998 29.0165 15.1998 29.0665 14.8998L32.7665 3.09981C32.8165 2.94981 32.8665 2.79981 32.8665 2.69981C32.8665 2.59981 32.9165 2.54981 32.9165 2.44981C32.9165 2.19981 32.8165 2.0498 32.5165 2.0498H31.1165C30.8165 2.0498 30.6165 2.09981 30.5165 2.19981C30.4165 2.29981 30.3165 2.4998 30.2165 2.7998L27.5665 13.0498L25.1665 2.84981C25.1165 2.54981 25.0165 2.34981 24.8665 2.24981C24.7665 2.14981 24.5165 2.09981 24.2665 2.09981H23.0165C22.7165 2.09981 22.5165 2.14981 22.4165 2.24981C22.3165 2.34981 22.1665 2.49981 22.1165 2.84981L19.7165 12.9498L17.1665 2.7998C17.0665 2.4998 16.9665 2.29981 16.8665 2.19981C16.7665 2.09981 16.5665 2.0498 16.2665 2.0498H14.7665C14.5165 2.0498 14.3665 2.14981 14.3665 2.44981C14.3665 2.54981 14.4165 2.7498 14.5165 3.0498L18.1165 14.8998Z" fill="white"/>
<path d="M40.7665 22.2998C35.1165 24.6998 29.0165 25.8498 23.4165 25.8498C15.1665 25.8498 7.1665 23.5998 0.716496 19.7998C0.166496 19.4498 -0.283504 20.0498 0.216496 20.4498C6.2165 25.8498 14.1165 29.0998 22.9165 29.0998C29.1665 29.0998 36.4665 27.1498 41.5165 23.3998C42.3165 22.8498 41.6165 21.9498 40.7665 22.2998Z" fill="#FF9900"/>
<path d="M37.6165 20.2001C37.1665 20.5001 37.2665 20.9501 37.7165 20.9001C39.3165 20.7001 42.9165 20.3001 43.5665 21.1001C44.2165 21.9501 42.8665 25.3001 42.2665 26.8501C42.0665 27.3001 42.4665 27.5001 42.8665 27.1501C45.5665 24.9001 46.2665 20.1501 45.7165 19.5001C45.2165 18.7501 40.4665 18.1501 37.6165 20.2001Z" fill="#FF9900"/>
<path d="M57.8165 12.5002C57.7165 12.5002 57.6165 12.4502 57.6165 12.3002V4.05019C57.6165 3.95019 57.6665 3.85019 57.8165 3.85019H58.0665C58.2165 3.85019 58.2665 3.90019 58.2665 4.05019L58.3165 4.55019C58.6665 4.25019 59.0665 4.05019 59.4165 3.90019C59.7665 3.75019 60.1165 3.7002 60.5165 3.7002C61.3165 3.7002 61.9165 4.00019 62.3665 4.55019C62.8165 5.10019 63.0665 5.90019 63.0665 6.85019C63.0665 7.85019 62.8165 8.65019 62.3665 9.25019C61.9165 9.85019 61.2665 10.1502 60.4165 10.1502C59.6665 10.1502 59.0165 9.85019 58.3665 9.30019V12.3002C58.3665 12.4002 58.3165 12.5002 58.1665 12.5002H57.8165ZM60.3165 9.50019C60.9665 9.50019 61.4665 9.30019 61.8165 8.85019C62.1665 8.40019 62.3165 7.75019 62.3165 6.90019C62.3165 5.20019 61.6665 4.35019 60.3665 4.35019C59.7165 4.35019 59.0165 4.60019 58.3665 5.10019V8.65019C58.7165 8.95019 59.0165 9.15019 59.3165 9.25019C59.6165 9.40019 59.9665 9.45019 60.3165 9.50019Z" fill="white"/>
<path d="M66.0164 10.1002C65.4664 10.1002 65.0164 9.95019 64.6664 9.60019C64.3664 9.30019 64.1664 8.85019 64.1664 8.30019C64.1664 7.70019 64.3664 7.25019 64.7664 6.90019C65.1664 6.55019 65.7164 6.40019 66.4164 6.40019C66.9664 6.40019 67.5164 6.5002 68.1664 6.7002V5.7002C68.1664 5.2002 68.0664 4.85019 67.8164 4.65019C67.5664 4.45019 67.2164 4.35019 66.6664 4.35019C66.1164 4.35019 65.5164 4.45019 64.9164 4.65019C64.8664 4.65019 64.7664 4.7002 64.7164 4.7002C64.6164 4.7002 64.6164 4.65019 64.6164 4.55019V4.35019C64.6164 4.30019 64.6164 4.2502 64.6664 4.2002C64.7164 4.1502 64.7164 4.15019 64.7664 4.10019C65.4164 3.85019 66.0664 3.7002 66.8164 3.7002C67.5664 3.7002 68.0664 3.85019 68.4164 4.15019C68.7664 4.45019 68.9164 4.90019 68.9164 5.50019V9.80019C68.9164 9.90019 68.8664 10.0002 68.7164 10.0002H68.4664C68.3664 10.0002 68.2664 9.95019 68.2664 9.80019L68.2164 9.30019C67.5164 9.85019 66.7664 10.1502 66.0164 10.1002ZM66.1164 9.50019C66.4164 9.50019 66.7664 9.45019 67.1164 9.30019C67.4664 9.15019 67.8164 9.00019 68.2164 8.75019V7.25019C67.6664 7.10019 67.1664 7.05019 66.6164 7.05019C65.4664 7.05019 64.9164 7.50019 64.9164 8.35019C64.9164 8.75019 65.0164 9.0002 65.2164 9.2002C65.4164 9.4002 65.7164 9.45019 66.1164 9.50019Z" fill="white"/>
<path d="M70.9665 10.0001C70.8665 10.0001 70.7664 9.9501 70.7664 9.8001V4.0501C70.7664 3.9501 70.8165 3.8501 70.9665 3.8501H71.2165C71.3665 3.8501 71.4165 3.9001 71.4165 4.0501L71.4665 4.7501C71.7665 4.4001 72.0664 4.1501 72.3664 4.0501C72.6664 3.9001 73.0164 3.8501 73.3664 3.8501C73.5164 3.8501 73.6165 3.8501 73.6665 3.8501C73.7665 3.8501 73.8664 3.9001 73.8664 4.0501V4.3501C73.8664 4.4001 73.8665 4.4001 73.8165 4.4501C73.8165 4.5001 73.7665 4.5001 73.7165 4.5001C73.6665 4.5001 73.6164 4.5001 73.5164 4.5001C73.4664 4.5001 73.3664 4.5001 73.2664 4.5001C72.9164 4.5001 72.5664 4.5501 72.2664 4.7001C71.9664 4.8501 71.7165 5.0501 71.4165 5.3501V9.8001C71.4165 9.9001 71.3665 10.0001 71.2165 10.0001H70.9665Z" fill="white"/>
<path d="M77.0664 10.0501C76.5664 10.0501 76.2164 9.9501 75.9664 9.6501C75.7164 9.4001 75.5664 9.0501 75.5664 8.5501V4.5001H74.6164C74.5164 4.5001 74.4164 4.4501 74.4164 4.3001V4.2001C74.4164 4.1501 74.4164 4.1001 74.4664 4.0501C74.5164 4.0001 74.5164 4.0001 74.6164 4.0001L75.6164 3.9001L75.7164 2.3001C75.7164 2.2501 75.7664 2.2001 75.7664 2.1501C75.7664 2.1001 75.8164 2.1001 75.9164 2.1001H76.1164C76.2164 2.1001 76.3164 2.1501 76.3164 2.3001V3.9001H78.0664C78.1664 3.9001 78.2664 3.9501 78.2664 4.1001V4.3501C78.2664 4.4501 78.2164 4.5501 78.0664 4.5501H76.3164V8.5001C76.3164 8.8501 76.3664 9.0501 76.5164 9.2001C76.6664 9.3501 76.9164 9.4001 77.2164 9.4001C77.4664 9.4001 77.6664 9.4001 77.8164 9.3501C77.9164 9.3501 77.9664 9.3001 78.0164 9.3001C78.0664 9.3001 78.1164 9.3001 78.1164 9.3001C78.2164 9.3001 78.2664 9.3501 78.2664 9.4501V9.6501C78.2664 9.8001 78.2164 9.8501 78.1164 9.9001C77.8164 10.0001 77.4664 10.0501 77.0664 10.0501Z" fill="white"/>
<path d="M79.7665 9.9999C79.6665 9.9999 79.5665 9.9499 79.5665 9.7999V4.0499C79.5665 3.9499 79.6165 3.8499 79.7665 3.8499H80.0165C80.1665 3.8499 80.2165 3.8999 80.2165 4.0499L80.2665 4.5499C80.6665 4.2499 81.0665 4.0499 81.5165 3.8999C81.9665 3.7499 82.3665 3.6499 82.8165 3.6499C83.4165 3.6499 83.8665 3.7999 84.1665 4.0999C84.4665 4.3999 84.6165 4.8499 84.6165 5.4999V9.7499C84.6165 9.8499 84.5665 9.9499 84.4165 9.9499H84.1165C84.0165 9.9499 83.9165 9.8999 83.9165 9.7499V5.7999C83.9165 5.2999 83.8165 4.8999 83.6165 4.6499C83.4165 4.3999 83.0665 4.2999 82.6665 4.2999C81.8665 4.2999 81.0665 4.5499 80.3165 5.0499V9.7499C80.3165 9.8499 80.2665 9.9499 80.1165 9.9499L79.7665 9.9999Z" fill="white"/>
<path d="M89.0665 10.1499C88.1165 10.1499 87.3665 9.8999 86.8665 9.3499C86.3665 8.7999 86.1165 7.9999 86.1165 6.8999C86.1165 5.8999 86.3665 5.0999 86.8665 4.4999C87.3665 3.9499 88.0665 3.6499 88.9165 3.6499C89.6665 3.6499 90.2165 3.8499 90.6165 4.2999C91.0165 4.6999 91.2165 5.3499 91.2165 6.0999C91.2165 6.4499 91.2165 6.6499 91.1665 6.8499C91.1165 6.9499 91.0665 7.0499 90.9665 7.0499H86.8665C86.8665 7.8999 87.0665 8.5499 87.4165 8.9499C87.7665 9.3499 88.3665 9.5499 89.1165 9.5499C89.7165 9.5499 90.2665 9.4499 90.7665 9.2499C90.8665 9.1999 90.9665 9.1999 90.9665 9.1999C91.0165 9.1999 91.0165 9.1999 91.0665 9.2499C91.1165 9.2999 91.1165 9.2999 91.1165 9.3499V9.4999C91.1165 9.6499 91.0665 9.6999 90.9665 9.7499C90.4165 9.9999 89.7665 10.1499 89.0665 10.1499ZM90.5665 6.4999C90.5665 6.3999 90.5665 6.2499 90.5665 6.0999C90.5665 5.4999 90.4165 5.0499 90.1165 4.7499C89.8165 4.4499 89.4165 4.2999 88.8665 4.2999C87.5665 4.2999 86.9165 5.0499 86.8165 6.4499H90.5665V6.4999Z" fill="white"/>
<path d="M92.9665 10.0001C92.8665 10.0001 92.7664 9.9501 92.7664 9.8001V4.0501C92.7664 3.9501 92.8165 3.8501 92.9665 3.8501H93.2165C93.3665 3.8501 93.4165 3.9001 93.4165 4.0501L93.4665 4.7501C93.7665 4.4001 94.0664 4.1501 94.3664 4.0501C94.6664 3.9001 95.0164 3.8501 95.3664 3.8501C95.5164 3.8501 95.6165 3.8501 95.6665 3.8501C95.7665 3.8501 95.8664 3.9001 95.8664 4.0501V4.3501C95.8664 4.4001 95.8665 4.4001 95.8165 4.4501C95.8165 4.5001 95.7665 4.5001 95.7165 4.5001C95.6665 4.5001 95.6164 4.5001 95.5164 4.5001C95.4664 4.5001 95.3664 4.5001 95.2664 4.5001C94.9164 4.5001 94.5664 4.5501 94.2664 4.7001C93.9664 4.8501 93.7165 5.0501 93.4165 5.3501V9.8001C93.4165 9.9001 93.3665 10.0001 93.2165 10.0001H92.9665Z" fill="white"/>
<path d="M57.8165 23.4499C57.7165 23.4499 57.6165 23.3999 57.6165 23.2499V17.5499C57.6165 17.4499 57.6665 17.3499 57.8165 17.3499H58.0665C58.2165 17.3499 58.2665 17.3999 58.2665 17.5499L58.3165 18.0499C58.7165 17.7499 59.1165 17.5499 59.5665 17.3999C60.0165 17.2499 60.4165 17.1499 60.8665 17.1499C61.4665 17.1499 61.9165 17.2999 62.2165 17.5999C62.5165 17.8999 62.6665 18.3499 62.6665 18.9999V23.2499C62.6665 23.3499 62.6165 23.4499 62.4665 23.4499H62.1165C62.0165 23.4499 61.9165 23.3999 61.9165 23.2499V19.2999C61.9165 18.7499 61.8165 18.3999 61.6165 18.1499C61.4165 17.8999 61.0665 17.7999 60.6665 17.7999C59.8665 17.7999 59.0665 18.0499 58.3165 18.5999V23.2999C58.3165 23.3999 58.2665 23.4999 58.1165 23.4999C58.1665 23.4499 57.8165 23.4499 57.8165 23.4499Z" fill="white"/>
<path d="M67.1164 23.6499C66.1664 23.6499 65.4164 23.3999 64.9164 22.8499C64.4164 22.2999 64.1664 21.4999 64.1664 20.3999C64.1664 19.3999 64.4164 18.5999 64.9164 17.9999C65.4164 17.4499 66.1164 17.1499 66.9664 17.1499C67.7164 17.1499 68.2664 17.3499 68.6664 17.7999C69.0664 18.1999 69.2664 18.7999 69.2664 19.5999C69.2664 19.9499 69.2664 20.1499 69.2164 20.3499C69.1664 20.4499 69.1164 20.5499 69.0164 20.5499H64.9164C64.9164 21.3999 65.1164 22.0499 65.4664 22.4499C65.8164 22.8499 66.4164 23.0499 67.1664 23.0499C67.7664 23.0499 68.3164 22.9499 68.8164 22.7499C68.9164 22.6999 69.0164 22.6999 69.0164 22.6999C69.0664 22.6999 69.0664 22.6999 69.1164 22.7499C69.1664 22.7999 69.1664 22.7999 69.1664 22.8499V23.0499C69.1664 23.1999 69.1164 23.2499 69.0164 23.2999C68.4664 23.4999 67.8164 23.6499 67.1164 23.6499ZM68.6164 19.9499C68.6164 19.8499 68.6164 19.6999 68.6164 19.5499C68.6164 18.9499 68.4664 18.4999 68.1664 18.1999C67.8664 17.8999 67.4664 17.7499 66.9164 17.7499C65.6164 17.7499 64.9664 18.4499 64.8664 19.8999L68.6164 19.9499Z" fill="white"/>
<path d="M72.7165 23.5503C72.2165 23.5503 71.8665 23.4503 71.6165 23.1503C71.3665 22.9003 71.2165 22.5503 71.2165 22.0503V17.9503H70.2665C70.1665 17.9503 70.0665 17.9003 70.0665 17.7503V17.6503C70.0665 17.6003 70.0665 17.5503 70.1165 17.5003C70.1665 17.4503 70.1665 17.4503 70.2665 17.4503L71.2665 17.3503L71.3665 15.7503C71.3665 15.7003 71.4165 15.6503 71.4165 15.6003C71.4665 15.5503 71.4665 15.5503 71.5665 15.5503H71.7665C71.8665 15.5503 71.9665 15.6003 71.9665 15.7503V17.3503H73.7165C73.8165 17.3503 73.9165 17.4003 73.9165 17.5503V17.8003C73.9165 17.9003 73.8665 18.0003 73.7165 18.0003H71.9665V22.0003C71.9665 22.3503 72.0165 22.5503 72.1665 22.7003C72.3165 22.8503 72.5665 22.9003 72.8665 22.9003C73.1165 22.9003 73.3165 22.9003 73.4665 22.8503C73.5665 22.8503 73.6165 22.8003 73.6665 22.8003C73.7165 22.8003 73.7665 22.8003 73.7665 22.8003C73.8665 22.8003 73.9165 22.8503 73.9165 22.9503V23.1503C73.9165 23.3003 73.8665 23.3503 73.7665 23.4003C73.4665 23.5003 73.1165 23.5503 72.7165 23.5503Z" fill="white"/>
<path d="M76.6665 23.4503C76.5665 23.4503 76.4665 23.4003 76.4165 23.3003L74.5165 17.6503C74.4665 17.5503 74.4665 17.5003 74.4665 17.4503C74.4665 17.3503 74.5165 17.3503 74.6165 17.3503H75.0165C75.1165 17.3503 75.2165 17.4003 75.2165 17.5003L76.8665 22.6503L78.3165 17.5003C78.3665 17.4003 78.4165 17.3503 78.5665 17.3503H79.0165C79.1165 17.3503 79.2165 17.4003 79.2665 17.5003L80.7165 22.6503L82.4165 17.4503C82.4665 17.3503 82.5165 17.3003 82.6165 17.3003H82.9665C83.0665 17.3003 83.1165 17.3503 83.1165 17.4003C83.1165 17.4503 83.1165 17.5003 83.0665 17.6003L81.0665 23.2503C81.0165 23.3503 80.9665 23.4003 80.8165 23.4003H80.4165C80.3165 23.4003 80.2165 23.3503 80.1665 23.2503L78.7165 18.1003L77.2665 23.2503C77.2165 23.3503 77.1665 23.4003 77.0165 23.4003L76.6665 23.4503Z" fill="white"/>
<path d="M86.7164 23.6499C85.8164 23.6499 85.1164 23.3499 84.6664 22.7999C84.2164 22.2499 83.9164 21.4499 83.9164 20.3999C83.9164 19.3499 84.1664 18.5999 84.6664 17.9999C85.1664 17.3999 85.8664 17.1499 86.7164 17.1499C87.5664 17.1499 88.3164 17.4499 88.7664 17.9999C89.2664 18.5499 89.5164 19.3499 89.5164 20.3999C89.5164 21.4499 89.2664 22.1999 88.7664 22.7999C88.3164 23.3499 87.6164 23.6499 86.7164 23.6499ZM86.7164 22.9999C88.1164 22.9999 88.8164 22.1499 88.8164 20.3999C88.8164 18.6499 88.1164 17.7999 86.7164 17.7999C85.3164 17.7999 84.6164 18.6499 84.6164 20.3999C84.6164 22.1499 85.3164 22.9999 86.7164 22.9999Z" fill="white"/>
<path d="M91.3165 23.4501C91.2165 23.4501 91.1165 23.4001 91.1165 23.2501V17.5501C91.1165 17.4501 91.1665 17.3501 91.3165 17.3501H91.5665C91.7165 17.3501 91.7665 17.4001 91.7665 17.5501L91.8165 18.2501C92.1165 17.9001 92.4165 17.6501 92.7165 17.5501C93.0165 17.4001 93.3665 17.3501 93.7165 17.3501C93.8665 17.3501 93.9665 17.3501 94.0165 17.3501C94.1165 17.3501 94.2165 17.4001 94.2165 17.5501V17.8501C94.2165 17.9001 94.2165 17.9001 94.1665 17.9501C94.1665 17.9501 94.1165 18.0001 94.0665 18.0001C94.0165 18.0001 93.9665 18.0001 93.8665 18.0001C93.8165 18.0001 93.7165 18.0001 93.6165 18.0001C93.2665 18.0001 92.9165 18.0501 92.6165 18.2001C92.3165 18.3501 92.0665 18.5501 91.7665 18.8501V23.3001C91.7665 23.4001 91.7165 23.5001 91.5665 23.5001L91.3165 23.4501Z" fill="white"/>
<path d="M95.4665 23.4502C95.3665 23.4502 95.2664 23.4002 95.2664 23.2502V14.6502C95.2664 14.5502 95.3165 14.4502 95.4665 14.4502H95.8165C95.9165 14.4502 96.0164 14.5002 96.0164 14.6502V20.0502L98.9165 17.4502C99.0165 17.3502 99.1165 17.3502 99.2165 17.3502H99.6665C99.7665 17.3502 99.8165 17.4002 99.8165 17.4502C99.8165 17.5002 99.7665 17.5502 99.6665 17.6502L96.7165 20.2502L99.9165 23.2002C99.9665 23.2502 100.016 23.3002 100.016 23.3502C100.016 23.4502 99.9664 23.4502 99.8664 23.4502H99.3664C99.2664 23.4502 99.1664 23.4002 99.1164 23.3502L96.0164 20.5002V23.3002C96.0164 23.4002 95.9665 23.5002 95.8165 23.5002L95.4665 23.4502Z" fill="white"/>
</g>
<defs>
<clipPath id="clip0_1034_39164">
<rect width="100" height="30" fill="white"/>
</clipPath>
</defs>
</svg>
