<svg width="16" height="16" viewBox="0 0 16 16" fill="none" xmlns="http://www.w3.org/2000/svg">
<path d="M13.9265 6.86895C14.0107 6.30368 13.9831 5.72498 13.8436 5.16855C13.6593 4.43348 13.2797 3.73735 12.7048 3.16252C12.13 2.58769 11.4339 2.20811 10.6988 2.0238C10.1424 1.88427 9.56368 1.85664 8.99841 1.9409" stroke="black" stroke-width="1.33333" stroke-linejoin="round"/>
<path d="M11.3965 6.60115C11.4868 5.99562 11.2989 5.35662 10.8327 4.89049C10.3666 4.42435 9.72757 4.23638 9.12207 4.32665" stroke="black" stroke-width="1.33333" stroke-linejoin="round"/>
<path d="M4.79189 2.9314C5.03409 2.9314 5.25723 3.06274 5.37476 3.27448L6.19026 4.74342C6.29703 4.93575 6.30203 5.16839 6.20366 5.36515L5.41806 6.93635C5.41806 6.93635 5.64573 8.10685 6.59853 9.05965C7.55133 10.0125 8.71789 10.2362 8.71789 10.2362L10.2889 9.45072C10.4858 9.35225 10.7186 9.35735 10.911 9.46432L12.3841 10.2833C12.5956 10.4009 12.7268 10.624 12.7268 10.866V12.5572C12.7268 13.4184 11.9268 14.0404 11.1108 13.7651C9.43483 13.1996 6.83326 12.1228 5.18433 10.4739C3.53536 8.82492 2.45863 6.22335 1.89311 4.54739C1.61777 3.73135 2.2398 2.9314 3.10102 2.9314H4.79189Z" stroke="black" stroke-width="1.33333" stroke-linejoin="round"/>
</svg>
