<svg width="24" height="24" viewBox="0 0 24 24" fill="none" xmlns="http://www.w3.org/2000/svg">
<path d="M8.49814 3.8429C8.86144 3.8429 9.19614 4.03991 9.37249 4.35753L10.5957 6.56093C10.7558 6.84943 10.7634 7.19838 10.6158 7.49353L9.43739 9.85038C9.43739 9.85038 9.77889 11.6061 11.2081 13.0353C12.6373 14.4645 14.3871 14.8001 14.3871 14.8001L16.7436 13.6219C17.0389 13.4742 17.3881 13.4818 17.6767 13.6423L19.8864 14.8708C20.2037 15.0472 20.4005 15.3817 20.4005 15.7448V18.2815C20.4005 19.5734 19.2005 20.5064 17.9765 20.0934C15.4625 19.2451 11.5602 17.63 9.08679 15.1566C6.61334 12.6832 4.99824 8.78083 4.14997 6.26688C3.73696 5.04283 4.67001 3.8429 5.96184 3.8429H8.49814Z" stroke="black" stroke-width="2" stroke-linejoin="round"/>
</svg>
