<svg width="300" height="73" viewBox="0 0 300 73" fill="none" xmlns="http://www.w3.org/2000/svg">
<path fill-rule="evenodd" clip-rule="evenodd" d="M274.039 65.3398C273.159 64.7198 272.069 64.2398 271.029 64.1398C270.399 64.0898 269.529 64.1698 268.669 64.2998C267.969 64.4098 267.279 64.5598 266.589 64.6798L265.749 64.8198L266.749 64.2498C267.639 63.7398 268.159 63.4598 268.969 62.7998C269.659 62.2398 270.249 61.6398 270.639 61.0398C271.699 59.4298 272.419 57.8498 273.079 56.5698C271.629 57.1498 268.619 58.7798 267.219 60.5898C266.559 61.4598 265.929 62.7998 265.469 63.8298C265.119 64.6198 265.689 64.5398 266.009 65.2598C266.699 66.8498 268.559 68.2898 270.239 68.2698C272.069 68.2798 274.319 67.9198 275.899 67.3398C275.609 66.6998 274.899 65.9698 274.039 65.3398Z" fill="#B08E56"/>
<path fill-rule="evenodd" clip-rule="evenodd" d="M280.728 61.6599C279.818 61.2599 278.738 61.0199 277.778 61.1299C277.198 61.1999 276.418 61.4299 275.658 61.7099C275.038 61.9399 274.438 62.1999 273.828 62.4399L273.088 62.7198L273.898 62.0199C274.618 61.3899 275.038 61.0399 275.668 60.2899C276.198 59.6599 276.628 58.9999 276.878 58.3899C277.568 56.7299 277.938 55.1599 278.318 53.8799C277.098 54.6699 274.648 56.6999 273.688 58.6099C273.238 59.5299 272.898 60.8499 272.658 61.8799C272.478 62.6599 272.988 62.4799 273.398 63.0799C274.308 64.3999 276.248 65.3599 277.768 65.0399C279.438 64.7199 281.408 63.9799 282.748 63.1599C282.398 62.6099 281.618 62.0699 280.728 61.6599Z" fill="#B08E56"/>
<path fill-rule="evenodd" clip-rule="evenodd" d="M283.73 57.8399C283.18 58.0299 282.46 58.4199 281.77 58.8599C281.21 59.2099 280.68 59.5999 280.13 59.9599L279.46 60.3999L280.11 59.5399C280.69 58.7699 281.03 58.3398 281.49 57.4698C281.88 56.7398 282.17 55.9999 282.29 55.3499C282.62 53.5799 282.67 51.9699 282.78 50.6299C281.75 51.6699 279.76 54.1799 279.21 56.2399C278.96 57.2299 278.89 58.5999 278.87 59.6599C278.85 60.4599 279.31 60.1799 279.84 60.6799C280.99 61.7799 283.09 62.2999 284.51 61.6699C286.07 60.9999 287.86 59.8499 289 58.7699C288.54 58.3199 287.67 57.9599 286.72 57.7399C285.75 57.5399 284.66 57.5299 283.73 57.8399Z" fill="#B08E56"/>
<path fill-rule="evenodd" clip-rule="evenodd" d="M288.579 53.2098C288.079 53.4398 287.449 53.8798 286.839 54.3598C286.349 54.7398 285.889 55.1598 285.409 55.5498L284.819 56.0198L285.349 55.1498C285.819 54.3798 286.099 53.9398 286.449 53.0798C286.749 52.3598 286.949 51.6398 286.999 51.0198C287.149 49.3298 287.039 47.8198 287.019 46.5598C286.149 47.6298 284.529 50.1698 284.209 52.1598C284.069 53.1098 284.129 54.3998 284.209 55.3898C284.269 56.1398 284.669 55.8298 285.209 56.2498C286.389 57.1598 288.399 57.4498 289.669 56.7098C291.069 55.9298 292.629 54.6798 293.599 53.5498C293.129 53.1698 292.279 52.9198 291.369 52.8098C290.439 52.7298 289.409 52.8298 288.579 53.2098Z" fill="#B08E56"/>
<path fill-rule="evenodd" clip-rule="evenodd" d="M295.219 46.4099C294.299 46.5499 293.319 46.8999 292.599 47.4599C292.169 47.8099 291.649 48.3799 291.169 48.9899C290.779 49.4799 290.429 49.9999 290.049 50.4899L289.589 51.0899L289.899 50.1199C290.179 49.2599 290.349 48.7599 290.499 47.8499C290.619 47.0799 290.659 46.3299 290.569 45.7099C290.329 44.0299 289.889 42.5899 289.579 41.3699C288.979 42.6199 287.979 45.4799 288.119 47.4899C288.199 48.4499 288.549 49.6899 288.849 50.6299C289.079 51.3499 289.399 50.9498 290.009 51.2198C291.369 51.8298 293.379 51.6199 294.449 50.5999C295.629 49.5099 296.869 47.9199 297.549 46.5899C297.009 46.3399 296.129 46.2899 295.219 46.4099Z" fill="#B08E56"/>
<path fill-rule="evenodd" clip-rule="evenodd" d="M297.279 38.52C296.429 38.9 295.579 39.4999 295.019 40.2399C294.689 40.6899 294.339 41.3899 294.039 42.0999C293.789 42.6799 293.579 43.2699 293.349 43.8499L293.059 44.5499L293.109 43.53C293.159 42.62 293.189 42.0999 293.099 41.1799C293.019 40.3999 292.859 39.6699 292.609 39.0999C291.949 37.5499 291.149 36.2699 290.529 35.1799C290.269 36.5399 290.039 39.5799 290.689 41.4799C291.009 42.3799 291.669 43.4799 292.209 44.3099C292.619 44.9399 292.819 44.4699 293.489 44.5699C294.959 44.7899 296.849 44.04 297.619 42.77C298.479 41.39 299.259 39.5299 299.579 38.0599C298.989 37.9699 298.129 38.17 297.279 38.52Z" fill="#B08E56"/>
<path fill-rule="evenodd" clip-rule="evenodd" d="M297.16 29.9097C296.45 30.5297 295.81 31.3597 295.49 32.2297C295.3 32.7597 295.17 33.5297 295.08 34.2997C295.01 34.9297 294.98 35.5597 294.92 36.1797L294.84 36.9398L294.6 35.9498C294.39 35.0698 294.27 34.5598 293.92 33.6998C293.62 32.9798 293.26 32.3297 292.86 31.8597C291.78 30.5797 290.65 29.5997 289.76 28.7397C289.9 30.1197 290.55 33.0898 291.71 34.7098C292.28 35.4798 293.22 36.3298 293.97 36.9598C294.54 37.4398 294.6 36.9298 295.26 36.8198C296.72 36.5898 298.32 35.3097 298.69 33.8597C299.12 32.2897 299.33 30.2698 299.22 28.7698C298.64 28.8698 297.87 29.3097 297.16 29.9097Z" fill="#B08E56"/>
<path fill-rule="evenodd" clip-rule="evenodd" d="M295.119 21.7398C294.599 22.5398 294.209 23.5098 294.129 24.4398C294.089 24.9998 294.169 25.7798 294.289 26.5498C294.389 27.1698 294.529 27.7898 294.629 28.4098L294.759 29.1598L294.269 28.2698C293.829 27.4798 293.579 27.0198 293.019 26.2998C292.539 25.6898 292.019 25.1698 291.509 24.8198C290.129 23.8798 288.789 23.2598 287.699 22.6798C288.209 23.9698 289.609 26.6498 291.159 27.8798C291.909 28.4598 293.039 29.0198 293.929 29.4198C294.599 29.7198 294.529 29.2098 295.139 28.9298C296.489 28.2998 297.689 26.6198 297.659 25.1298C297.659 23.4998 297.329 21.4898 296.819 20.0798C296.269 20.3198 295.649 20.9598 295.119 21.7398Z" fill="#B08E56"/>
<path fill-rule="evenodd" clip-rule="evenodd" d="M291.908 12.5698C291.478 12.9198 291.068 13.6498 290.768 14.4598C290.488 15.2998 290.348 16.2698 290.488 17.1198C290.578 17.6298 290.828 18.3098 291.108 18.9798C291.338 19.5098 291.598 20.0298 291.838 20.5598L292.118 21.1998L291.478 20.5198C290.908 19.9198 290.578 19.5598 289.908 19.0498C289.338 18.6198 288.758 18.2698 288.218 18.0798C286.768 17.5698 285.418 17.3298 284.318 17.0698C285.068 18.1098 286.928 20.1698 288.598 20.9098C289.398 21.2498 290.548 21.4798 291.428 21.6298C292.098 21.7398 291.918 21.2998 292.398 20.8998C293.458 20.0098 294.158 18.2298 293.798 16.8898C293.428 15.4298 292.688 13.7098 291.908 12.5698Z" fill="#B08E56"/>
<path fill-rule="evenodd" clip-rule="evenodd" d="M285.37 6.66992C285.07 7.14992 284.9 7.96997 284.88 8.83997C284.87 9.72997 285.05 10.69 285.45 11.45C285.7 11.91 286.14 12.4699 286.61 12.9999C286.99 13.4299 287.4 13.8399 287.79 14.2599L288.26 14.78L287.44 14.3499C286.71 13.9699 286.29 13.7399 285.49 13.4699C284.82 13.2399 284.16 13.1099 283.59 13.1099C282.06 13.0999 280.71 13.3199 279.58 13.4399C280.61 14.1799 283.02 15.5199 284.84 15.6699C285.71 15.7299 286.86 15.5699 287.75 15.4199C288.42 15.3099 288.11 14.9499 288.44 14.4099C289.17 13.2199 289.27 11.3 288.51 10.15C287.7 8.87996 286.46 7.49992 285.37 6.66992Z" fill="#B08E56"/>
<path fill-rule="evenodd" clip-rule="evenodd" d="M279.23 3.66992C279.04 4.14992 279.03 4.90995 279.15 5.69995C279.29 6.49995 279.61 7.32994 280.1 7.93994C280.4 8.30994 280.89 8.72994 281.41 9.12994C281.83 9.44994 282.26 9.73993 282.68 10.0499L283.19 10.4299L282.38 10.1899C281.66 9.96994 281.25 9.83994 280.49 9.74994C279.85 9.66994 279.23 9.65995 278.72 9.75995C277.34 10.0199 276.17 10.4599 275.17 10.7599C276.22 11.2399 278.61 12.02 280.26 11.83C281.05 11.73 282.06 11.38 282.83 11.09C283.41 10.87 283.07 10.5999 283.28 10.0599C283.74 8.85994 283.5 7.11991 282.63 6.21991C281.7 5.23991 280.35 4.21992 279.23 3.66992Z" fill="#B08E56"/>
<path fill-rule="evenodd" clip-rule="evenodd" d="M273.95 1.67993C273.79 2.08993 273.78 2.73996 273.89 3.39996C274.01 4.06996 274.28 4.77993 274.69 5.29993C274.94 5.60993 275.36 5.96994 275.8 6.30994C276.15 6.57994 276.52 6.82997 276.88 7.08997L277.31 7.40991L276.62 7.20996C276.01 7.02996 275.66 6.91996 275.01 6.82996C274.46 6.75996 273.94 6.75997 273.51 6.83997C272.34 7.05997 271.34 7.42994 270.5 7.68994C271.39 8.09994 273.42 8.75991 274.82 8.59991C275.49 8.51991 276.34 8.21991 277 7.96991C277.49 7.77991 277.21 7.55991 277.38 7.09991C277.77 6.07991 277.57 4.60991 276.83 3.84991C276.04 3.01991 274.9 2.14993 273.95 1.67993Z" fill="#B08E56"/>
<path fill-rule="evenodd" clip-rule="evenodd" d="M272.199 4.25989C272.349 3.27989 271.889 2.00986 271.089 1.47986C270.219 0.889858 269.039 0.359883 268.109 0.129883C268.049 0.529883 268.159 1.09986 268.379 1.66986C268.619 2.23986 268.989 2.81988 269.459 3.18988C269.739 3.40988 270.179 3.64986 270.639 3.85986C271.009 4.02986 271.379 4.1699 271.749 4.3399L272.199 4.53986L271.549 4.49988C270.969 4.45988 270.639 4.42987 270.049 4.48987C269.549 4.53987 269.089 4.63987 268.719 4.79987C267.729 5.22987 266.909 5.75985 266.209 6.15985C267.079 6.33985 268.999 6.51985 270.219 6.09985C270.799 5.88985 271.499 5.45986 272.029 5.10986C272.429 4.84986 272.129 4.70989 272.199 4.25989Z" fill="#B08E56"/>
<path fill-rule="evenodd" clip-rule="evenodd" d="M32.9998 60.5898C31.5998 58.7798 28.5898 57.1498 27.1398 56.5698C27.7998 57.8498 28.5198 59.4198 29.5798 61.0398C29.9698 61.6398 30.5598 62.2398 31.2498 62.7998C32.0698 63.4598 32.5798 63.7398 33.4698 64.2498L34.4698 64.8198L33.6299 64.6798C32.9299 64.5598 32.2499 64.4098 31.5499 64.2998C30.6799 64.1698 29.8198 64.0898 29.1898 64.1398C28.1498 64.2398 27.0598 64.7198 26.1798 65.3398C25.3198 65.9698 24.6098 66.6998 24.3398 67.3498C25.9198 67.9298 28.1698 68.2898 29.9998 68.2798C31.6698 68.2898 33.5298 66.8598 34.2298 65.2698C34.5398 64.5498 35.1099 64.6298 34.7699 63.8398C34.2899 62.7998 33.6598 61.4698 32.9998 60.5898Z" fill="#B08E56"/>
<path fill-rule="evenodd" clip-rule="evenodd" d="M26.509 58.5999C25.549 56.6899 23.099 54.6599 21.879 53.8699C22.259 55.1499 22.629 56.7199 23.319 58.3799C23.569 58.9899 23.999 59.6499 24.539 60.2799C25.169 61.0299 25.589 61.3799 26.309 62.0099L27.119 62.7099L26.379 62.4299C25.769 62.1999 25.169 61.9299 24.549 61.6999C23.789 61.4199 23.009 61.1899 22.429 61.1199C21.469 61.0199 20.389 61.2599 19.479 61.6499C18.589 62.0599 17.809 62.5999 17.459 63.1399C18.799 63.9599 20.779 64.6999 22.439 65.0199C23.959 65.3399 25.899 64.3799 26.809 63.0599C27.219 62.4599 27.729 62.6399 27.549 61.8599C27.309 60.8399 26.959 59.5199 26.509 58.5999Z" fill="#B08E56"/>
<path fill-rule="evenodd" clip-rule="evenodd" d="M17.4192 50.6299C17.5292 51.9599 17.5792 53.5799 17.9092 55.3499C18.0292 55.9999 18.3192 56.7398 18.7092 57.4698C19.1692 58.3398 19.5092 58.7699 20.0892 59.5399L20.7392 60.3999L20.0692 59.9599C19.5192 59.5999 18.9892 59.2099 18.4292 58.8599C17.7392 58.4199 17.0292 58.0299 16.4692 57.8399C15.5492 57.5299 14.4492 57.5399 13.4792 57.7299C12.5192 57.9499 11.6592 58.3099 11.1992 58.7599C12.3392 59.8399 14.1292 60.9899 15.6892 61.6599C17.1092 62.2999 19.2092 61.7699 20.3592 60.6699C20.8792 60.1699 21.3392 60.4599 21.3292 59.6499C21.3092 58.5899 21.2392 57.2199 20.9892 56.2299C20.4392 54.1699 18.4392 51.6599 17.4192 50.6299Z" fill="#B08E56"/>
<path fill-rule="evenodd" clip-rule="evenodd" d="M13.1891 46.5598C13.1691 47.8198 13.0592 49.3298 13.2092 51.0198C13.2592 51.6398 13.4591 52.3598 13.7591 53.0798C14.1091 53.9398 14.3892 54.3798 14.8492 55.1498L15.3792 56.0198L14.7991 55.5498C14.3191 55.1598 13.8591 54.7398 13.3691 54.3598C12.7691 53.8798 12.1391 53.4498 11.6391 53.2098C10.8091 52.8298 9.77915 52.7298 8.84915 52.8198C7.93915 52.9298 7.08914 53.1798 6.61914 53.5598C7.58914 54.6898 9.14915 55.9398 10.5491 56.7198C11.8191 57.4498 13.8291 57.1698 15.0091 56.2598C15.5491 55.8498 15.9491 56.1598 16.0091 55.3998C16.0891 54.4098 16.1491 53.1198 16.0091 52.1698C15.6791 50.1698 14.0491 47.6298 13.1891 46.5598Z" fill="#B08E56"/>
<path fill-rule="evenodd" clip-rule="evenodd" d="M9.63844 45.6999C9.54844 46.3199 9.57845 47.0599 9.70845 47.8399C9.85845 48.7599 10.0184 49.2499 10.3084 50.1099L10.6184 51.0799L10.1584 50.4799C9.77845 49.9899 9.42844 49.4699 9.03844 48.9799C8.55844 48.3699 8.04844 47.7999 7.60844 47.4499C6.88844 46.8899 5.90845 46.5399 4.98845 46.3999C4.07845 46.2899 3.19844 46.3299 2.64844 46.5799C3.32844 47.9099 4.56844 49.4899 5.74844 50.5899C6.81844 51.6099 8.82845 51.8099 10.1884 51.2099C10.7984 50.9399 11.1185 51.3299 11.3484 50.6199C11.6484 49.6799 12.0084 48.4399 12.0784 47.4799C12.2184 45.4699 11.2184 42.6099 10.6184 41.3599C10.3184 42.5799 9.87844 44.0299 9.63844 45.6999Z" fill="#B08E56"/>
<path fill-rule="evenodd" clip-rule="evenodd" d="M7.58914 39.1099C7.34914 39.6799 7.17915 40.4099 7.09915 41.1899C7.00915 42.1099 7.03914 42.6399 7.08914 43.5399L7.13914 44.5599L6.84915 43.8599C6.60915 43.2799 6.39915 42.6899 6.15915 42.1099C5.84915 41.3899 5.50914 40.6999 5.17914 40.2499C4.62914 39.5099 3.77914 38.91 2.91914 38.53C2.06914 38.17 1.20914 37.9799 0.619141 38.0699C0.939141 39.5299 1.71915 41.4 2.57915 42.78C3.34915 44.05 5.23915 44.79 6.70915 44.58C7.36915 44.48 7.57914 44.9499 7.97914 44.3199C8.50914 43.4899 9.16915 42.3899 9.49915 41.4899C10.1491 39.5899 9.91915 36.5599 9.65915 35.1899C9.05915 36.2799 8.25914 37.5499 7.58914 39.1099Z" fill="#B08E56"/>
<path fill-rule="evenodd" clip-rule="evenodd" d="M7.33834 31.8698C6.93834 32.3398 6.57834 32.9898 6.27834 33.7098C5.92834 34.5598 5.80835 35.0698 5.59835 35.9598L5.35834 36.9498L5.27834 36.1898C5.21834 35.5598 5.18834 34.9298 5.11834 34.3098C5.02834 33.5298 4.89835 32.7697 4.70835 32.2397C4.38835 31.3697 3.74833 30.5397 3.03833 29.9197C2.32833 29.3197 1.55834 28.8797 0.968342 28.7897C0.858342 30.2897 1.06834 32.3098 1.49834 33.8798C1.86834 35.3298 3.46833 36.5998 4.92833 36.8398C5.58833 36.9498 5.64834 37.4597 6.21834 36.9797C6.96834 36.3497 7.90834 35.4997 8.47834 34.7297C9.64834 33.1097 10.2883 30.1398 10.4383 28.7598C9.54834 29.6098 8.41834 30.5798 7.33834 31.8698Z" fill="#B08E56"/>
<path fill-rule="evenodd" clip-rule="evenodd" d="M7.1986 26.2998C6.6286 27.0198 6.3886 27.4798 5.9486 28.2698L5.45861 29.1598L5.5886 28.4098C5.6886 27.7898 5.82859 27.1698 5.92859 26.5498C6.04859 25.7798 6.1186 24.9998 6.0886 24.4398C6.0186 23.5098 5.61861 22.5298 5.09861 21.7398C4.56861 20.9698 3.9586 20.3298 3.4086 20.0798C2.9086 21.4898 2.57861 23.4898 2.56861 25.1298C2.54861 26.6198 3.7386 28.2998 5.0886 28.9298C5.6986 29.2198 5.6186 29.7298 6.2986 29.4198C7.1886 29.0198 8.31861 28.4598 9.06861 27.8798C10.6186 26.6398 12.0286 23.9698 12.5286 22.6798C11.4386 23.2598 10.0986 23.8798 8.7186 24.8198C8.1886 25.1698 7.6686 25.6898 7.1986 26.2998Z" fill="#B08E56"/>
<path fill-rule="evenodd" clip-rule="evenodd" d="M10.289 19.0498C9.61899 19.5598 9.289 19.9198 8.719 20.5198L8.079 21.1998L8.359 20.5598C8.589 20.0298 8.859 19.5098 9.079 18.9798C9.359 18.3198 9.609 17.6398 9.699 17.1198C9.839 16.2698 9.70899 15.2998 9.42899 14.4598C9.12899 13.6398 8.71899 12.9198 8.28899 12.5698C7.51899 13.7098 6.76899 15.4298 6.39899 16.8998C6.03899 18.2298 6.729 20.0198 7.799 20.9098C8.279 21.3098 8.099 21.7498 8.769 21.6398C9.659 21.4898 10.799 21.2698 11.599 20.9198C13.269 20.1798 15.139 18.1198 15.879 17.0798C14.769 17.3398 13.419 17.5798 11.979 18.0898C11.439 18.2698 10.859 18.6198 10.289 19.0498Z" fill="#B08E56"/>
<path fill-rule="evenodd" clip-rule="evenodd" d="M14.7094 13.4699C13.9094 13.7399 13.4994 13.9599 12.7594 14.3499L11.9394 14.78L12.4094 14.2599C12.7994 13.8299 13.2094 13.4299 13.5894 12.9999C14.0694 12.4599 14.5094 11.9 14.7594 11.45C15.1594 10.69 15.3294 9.72997 15.3294 8.83997C15.2994 7.96997 15.1394 7.14992 14.8394 6.66992C13.7494 7.49992 12.5094 8.87996 11.6994 10.15C10.9394 11.29 11.0394 13.2199 11.7694 14.4099C12.0994 14.9499 11.7894 15.3099 12.4594 15.4199C13.3394 15.5699 14.4994 15.7299 15.3694 15.6699C17.1794 15.5199 19.5994 14.1799 20.6294 13.4399C19.4994 13.3199 18.1494 13.1099 16.6194 13.1099C16.0394 13.1099 15.3794 13.2399 14.7094 13.4699Z" fill="#B08E56"/>
<path fill-rule="evenodd" clip-rule="evenodd" d="M19.7092 9.74994C18.9492 9.84994 18.5392 9.97994 17.8092 10.1899L16.9992 10.4299L17.5092 10.0499C17.9292 9.73993 18.3692 9.44994 18.7792 9.12994C19.2992 8.72994 19.7892 8.30994 20.0892 7.93994C20.5792 7.32994 20.8992 6.49995 21.0392 5.69995C21.1592 4.90995 21.1592 4.14992 20.9592 3.66992C19.8392 4.21992 18.4892 5.23992 17.5492 6.22992C16.6792 7.11992 16.4392 8.86995 16.8992 10.0699C17.1092 10.6099 16.7692 10.8799 17.3492 11.0999C18.1192 11.3899 19.1292 11.74 19.9192 11.84C21.5692 12.03 23.9592 11.25 25.0092 10.77C24.0192 10.46 22.8392 10.03 21.4592 9.76996C20.9692 9.65996 20.3592 9.66994 19.7092 9.74994Z" fill="#B08E56"/>
<path fill-rule="evenodd" clip-rule="evenodd" d="M25.1885 6.83997C24.5485 6.91997 24.1985 7.02991 23.5785 7.21991L22.8885 7.41992L23.3185 7.09991C23.6785 6.82991 24.0485 6.58995 24.3985 6.31995C24.8385 5.97995 25.2485 5.61994 25.5085 5.30994C25.9185 4.78994 26.1885 4.08991 26.3085 3.40991C26.4085 2.73991 26.4085 2.09994 26.2485 1.68994C25.2985 2.15994 24.1585 3.01992 23.3585 3.85992C22.6185 4.61992 22.4185 6.08992 22.8085 7.10992C22.9785 7.56992 22.6985 7.78992 23.1885 7.97992C23.8385 8.22992 24.6985 8.51992 25.3585 8.60992C26.7585 8.76992 28.7885 8.10995 29.6785 7.69995C28.8385 7.43995 27.8385 7.06991 26.6685 6.84991C26.2485 6.75991 25.7285 6.76997 25.1885 6.83997Z" fill="#B08E56"/>
<path fill-rule="evenodd" clip-rule="evenodd" d="M30.1694 4.49988C29.5794 4.43988 29.2494 4.46989 28.6694 4.50989L28.0194 4.54987L28.4694 4.34985C28.8394 4.17985 29.2094 4.03987 29.5794 3.86987C30.0294 3.65987 30.4694 3.41989 30.7594 3.19989C31.2294 2.81989 31.5994 2.24987 31.8394 1.67987C32.0594 1.10987 32.1794 0.529893 32.1094 0.139893C31.1794 0.369893 29.9994 0.899868 29.1294 1.48987C28.3294 2.00987 27.8694 3.2899 28.0194 4.2699C28.0894 4.7099 27.7894 4.85987 28.1894 5.11987C28.7194 5.46987 29.4194 5.89986 29.9994 6.10986C31.2094 6.52986 33.1394 6.34986 34.0094 6.16986C33.3094 5.76986 32.4894 5.23988 31.4994 4.80988C31.1294 4.64988 30.6594 4.54988 30.1694 4.49988Z" fill="#B08E56"/>
<path fill-rule="evenodd" clip-rule="evenodd" d="M147.359 59.4697L149.009 64.5497H154.349L150.029 67.6998L151.679 72.7798L147.359 69.6398L143.029 72.7798L144.679 67.6998L140.359 64.5497H145.699L147.359 59.4697Z" fill="#B08E56"/>
<path fill-rule="evenodd" clip-rule="evenodd" d="M167.128 61.8799L168.178 65.1199H171.578L168.828 67.1299L169.878 70.3599L167.128 68.3599L164.368 70.3599L165.418 67.1299L162.668 65.1199H166.068L167.128 61.8799Z" fill="#B08E56"/>
<path fill-rule="evenodd" clip-rule="evenodd" d="M127.579 61.8799L128.639 65.1199H132.039L129.289 67.1299L130.339 70.3599L127.579 68.3599L124.829 70.3599L125.879 67.1299L123.129 65.1199H126.529L127.579 61.8799Z" fill="#B08E56"/>
<path d="M94.6966 43.7192H110.058V46.8388H94.6966V52.8411H91.0636V46.8388H75.5445V43.7192H91.0636V40.639H79.9278V26.0676H90.3528V17.1036L94.0253 17.2616V20.1048H108.32V23.2639H94.0253V26.0676H105.675V40.639H94.6966V43.7192ZM102.002 31.912V29.2267H83.5608V31.912H102.002ZM102.002 34.8737H83.5608V37.5589H102.002V34.8737ZM129.857 40.8365C130.33 40.5206 130.62 40.2047 130.725 39.8887C130.857 39.5728 130.923 39.0858 130.923 38.4277V23.4614H137.636C137.557 22.1714 137.491 20.1443 137.438 17.3801L140.677 17.538C140.677 18.907 140.729 20.8814 140.834 23.4614H145.178C143.546 21.5396 142.361 20.2233 141.624 19.5125L143.678 17.4985C144.204 17.9461 144.836 18.5516 145.573 19.315C146.337 20.0785 146.942 20.7366 147.39 21.2895L145.455 23.4614H148.377V26.5415H141.032C141.216 29.332 141.506 32.1226 141.901 34.9131C142.875 33.0967 143.796 30.8984 144.665 28.3185L147.192 29.2662C145.902 33.2151 144.402 36.4927 142.69 39.099C142.769 39.4412 142.941 40.0862 143.204 41.0339C143.678 42.3239 144.138 42.9689 144.586 42.9689C144.902 42.9689 145.205 42.3897 145.494 41.2314C145.784 40.2573 145.968 39.2964 146.047 38.3487L148.732 39.8493C148.653 40.5337 148.429 41.6394 148.061 43.1663C147.719 44.5616 147.271 45.5488 146.718 46.128C146.192 46.7072 145.507 46.9967 144.665 46.9967C143.796 46.9967 143.006 46.6677 142.296 46.0095C141.611 45.3514 140.953 44.1272 140.321 42.3371C138.926 43.9956 137.057 45.8647 134.714 47.9445L132.7 45.4962C135.622 43.0215 137.833 40.8233 139.334 38.9015C138.623 35.8214 138.097 31.7014 137.754 26.5415H134.082V37.2035L137.004 34.6367L137.912 37.8353C137.386 38.2565 136.649 38.8752 135.701 39.6913C134.753 40.4811 133.845 41.2709 132.976 42.0606L131.713 43.2453L129.857 40.8365ZM136.135 48.6948C140.453 48.6948 144.836 48.5763 149.285 48.3394L148.574 51.6169C144.915 51.8012 141.085 51.8934 137.083 51.8934C135.609 51.8934 133.292 51.867 130.133 51.8144C127.053 51.7354 124.605 51.2615 122.788 50.3928C120.998 49.524 119.642 48.0893 118.721 46.0885C118.273 47.9576 117.483 50.2612 116.351 52.9991L113.429 51.9329C114.272 49.9584 114.917 48.2604 115.364 46.8388C115.838 45.3909 116.18 43.7981 116.391 42.0606C116.628 40.2968 116.746 38.1644 116.746 35.6634L119.708 35.8609C119.708 37.4931 119.668 39.0068 119.589 40.4021C120.3 43.1137 121.248 45.0486 122.433 46.207V33.3731H114.93V30.2535H121.682V25.2384H116.193V22.1582H121.682V17.4196L124.96 17.5775V22.1582H129.58V25.2384H124.96V30.2535H130.093V33.3731H125.592V38.7436H129.778V42.0211H125.592V47.984C126.882 48.3525 128.514 48.5631 130.488 48.6158C133.016 48.6684 134.898 48.6948 136.135 48.6948ZM188.828 49.7215L186.064 53.1175C183.458 51.0115 181.273 48.8132 179.509 46.5229C177.745 44.2325 176.376 41.7184 175.402 38.9805C174.402 41.6921 172.954 44.2194 171.058 46.5624C169.189 48.9054 166.859 51.1694 164.069 53.3545L161.186 50.2743C164.24 48.1419 166.622 46.0095 168.334 43.8771C170.045 41.7184 171.269 39.3096 172.006 36.6507C172.769 33.9917 173.125 30.7931 173.072 27.0549L172.954 17.459L176.903 17.5775V30.0165V30.7668C177.377 35.0316 178.574 38.6251 180.496 41.5473C182.418 44.4695 185.195 47.1942 188.828 49.7215ZM164.306 18.6042C163.411 21.6054 162.344 24.4617 161.107 27.1733V52.9201H157.593V33.689C156.513 35.3738 155.394 36.9666 154.236 38.4671L151.709 35.1896C153.446 33.1098 155.171 30.4377 156.882 27.1733C158.619 23.9089 159.883 20.7761 160.673 17.775L164.306 18.6042ZM187.367 24.9225C186.656 26.5547 185.709 28.4633 184.524 30.6483C183.339 32.8334 182.247 34.6499 181.246 36.0978L178.087 34.3208C179.035 32.9519 180.088 31.1617 181.246 28.9503C182.431 26.7389 183.352 24.8435 184.011 23.2639L187.367 24.9225ZM168.807 36.5322C168.097 34.821 167.162 32.886 166.004 30.7273C164.872 28.5686 163.805 26.7126 162.805 25.1594L165.925 23.3429C166.82 24.7118 167.833 26.4494 168.965 28.5554C170.097 30.6615 171.058 32.557 171.848 34.2418L168.807 36.5322ZM216.248 40.0072H227.108V43.4033H216.248V52.9201H212.655V43.4033H202.309V40.0072H212.655V34.9921H204.441V31.6356H212.655V17.0247L216.248 17.1826V31.6356H225.212V34.9921H216.248V40.0072ZM203.454 18.4068C202.533 21.1973 201.519 23.7641 200.413 26.1071V52.7621H196.78V32.6623C195.727 34.3208 194.503 36.032 193.108 37.7958L190.66 34.8342C192.634 32.4122 194.424 29.6743 196.03 26.6205C197.636 23.5667 198.913 20.4865 199.86 17.3801L203.454 18.4068ZM225.726 20.8156C225.252 22.0792 224.594 23.5798 223.751 25.3173C222.909 27.0549 222.066 28.6476 221.224 30.0955L218.065 28.4765C218.96 27.0285 219.816 25.4753 220.632 23.8168C221.474 22.1319 222.119 20.6313 222.567 19.315L225.726 20.8156ZM207.956 30.056C207.429 28.7397 206.732 27.226 205.863 25.5148C205.02 23.7773 204.257 22.3162 203.572 21.1315L206.653 19.5125C207.337 20.6708 208.087 22.0924 208.903 23.7773C209.72 25.4358 210.391 26.9232 210.917 28.2395L207.956 30.056Z" fill="#B08E56"/>
</svg>
