<svg width="336" height="18" viewBox="0 0 336 18" fill="none" xmlns="http://www.w3.org/2000/svg">
<path d="M281.46 17.13H0L2.94 8.78003L0 0H281.46V17.13Z" fill="#656D77"/>
<path d="M275.471 17.13H335.861L332.921 8.78003L335.861 0H275.471V17.13Z" fill="#656D77"/>
<path d="M28.2198 6.87627V13.7283H26.5278V6.87627H24.3078V5.40027H30.4398V6.87627H28.2198ZM38.4183 13.7283H36.7383V9.98427H33.3063V13.7283H31.6143V5.40027H33.3063V8.56827H36.7383V5.40027H38.4183V13.7283ZM45.5408 13.7283H40.3448V5.40027H45.3488V6.86427H42.0368V8.74827H45.1088V10.1523H42.0368V12.2523H45.5408V13.7283ZM49.9254 9.56427C49.9254 8.02827 50.2654 6.93227 50.9454 6.27627C51.6334 5.61227 52.6254 5.28027 53.9214 5.28027C54.6734 5.28027 55.3134 5.36827 55.8414 5.54427V7.02027C55.2894 6.82827 54.6814 6.73227 54.0174 6.73227C53.4814 6.73227 53.0454 6.82027 52.7094 6.99627C52.3814 7.17227 52.1374 7.46827 51.9774 7.88427C51.8174 8.29227 51.7374 8.84827 51.7374 9.55227C51.7374 10.2963 51.8134 10.8723 51.9654 11.2803C52.1254 11.6883 52.3654 11.9723 52.6854 12.1323C53.0134 12.2923 53.4454 12.3723 53.9814 12.3723C54.6854 12.3723 55.3374 12.2643 55.9374 12.0483V13.5003C55.6734 13.6043 55.3654 13.6883 55.0134 13.7523C54.6614 13.8163 54.2934 13.8483 53.9094 13.8483C53.0374 13.8483 52.3134 13.7283 51.7374 13.4883C51.1694 13.2483 50.7254 12.8163 50.4054 12.1923C50.0854 11.5603 49.9254 10.6843 49.9254 9.56427ZM62.5681 13.7283H57.3721V5.40027H62.3761V6.86427H59.0641V8.74827H62.1361V10.1523H59.0641V12.2523H62.5681V13.7283ZM66.7747 10.6323H65.7907V13.7283H64.0987V5.40027H66.7987C67.5587 5.40027 68.1707 5.48827 68.6347 5.66427C69.1067 5.83227 69.4547 6.10827 69.6787 6.49227C69.9027 6.86827 70.0147 7.37227 70.0147 8.00427C70.0147 8.69227 69.8827 9.23227 69.6187 9.62427C69.3627 10.0163 68.9627 10.2923 68.4187 10.4523L70.7947 13.7283H68.8027L66.7747 10.6323ZM66.5587 9.36027C67.0067 9.36027 67.3547 9.32427 67.6027 9.25227C67.8507 9.18027 68.0307 9.04827 68.1427 8.85627C68.2627 8.66427 68.3227 8.38027 68.3227 8.00427C68.3227 7.66027 68.2627 7.40027 68.1427 7.22427C68.0307 7.04827 67.8507 6.92827 67.6027 6.86427C67.3547 6.79227 67.0067 6.75627 66.5587 6.75627H65.7907V9.36027H66.5587ZM74.5089 6.87627V13.7283H72.8169V6.87627H70.5969V5.40027H76.7289V6.87627H74.5089ZM79.5954 5.40027V13.7283H77.9034V5.40027H79.5954ZM83.193 8.94027H86.265V10.4043H83.193V13.7283H81.501V5.40027H86.505V6.86427H83.193V8.94027ZM89.6383 5.40027V13.7283H87.9463V5.40027H89.6383ZM91.316 9.56427C91.316 8.02827 91.656 6.93227 92.336 6.27627C93.024 5.61227 94.016 5.28027 95.312 5.28027C96.064 5.28027 96.704 5.36827 97.232 5.54427V7.02027C96.68 6.82827 96.072 6.73227 95.408 6.73227C94.872 6.73227 94.436 6.82027 94.1 6.99627C93.772 7.17227 93.528 7.46827 93.368 7.88427C93.208 8.29227 93.128 8.84827 93.128 9.55227C93.128 10.2963 93.204 10.8723 93.356 11.2803C93.516 11.6883 93.756 11.9723 94.076 12.1323C94.404 12.2923 94.836 12.3723 95.372 12.3723C96.076 12.3723 96.728 12.2643 97.328 12.0483V13.5003C97.064 13.6043 96.756 13.6883 96.404 13.7523C96.052 13.8163 95.684 13.8483 95.3 13.8483C94.428 13.8483 93.704 13.7283 93.128 13.4883C92.56 13.2483 92.116 12.8163 91.796 12.1923C91.476 11.5603 91.316 10.6843 91.316 9.56427ZM100.371 11.5923L99.6027 13.7283H97.8627L100.971 5.40027H103.239L106.335 13.7283H104.535L103.803 11.5923H100.371ZM103.299 10.1763L102.171 6.90027H102.027L100.863 10.1763H103.299ZM109.536 6.87627V13.7283H107.844V6.87627H105.624V5.40027H111.756V6.87627H109.536ZM118.127 13.7283H112.931V5.40027H117.935V6.86427H114.623V8.74827H117.695V10.1523H114.623V12.2523H118.127V13.7283ZM122.511 9.56427C122.511 8.02827 122.851 6.93227 123.531 6.27627C124.219 5.61227 125.211 5.28027 126.507 5.28027C127.259 5.28027 127.899 5.36827 128.427 5.54427V7.02027C127.875 6.82827 127.267 6.73227 126.603 6.73227C126.067 6.73227 125.631 6.82027 125.295 6.99627C124.967 7.17227 124.723 7.46827 124.563 7.88427C124.403 8.29227 124.323 8.84827 124.323 9.55227C124.323 10.2963 124.399 10.8723 124.551 11.2803C124.711 11.6883 124.951 11.9723 125.271 12.1323C125.599 12.2923 126.031 12.3723 126.567 12.3723C127.271 12.3723 127.923 12.2643 128.523 12.0483V13.5003C128.259 13.6043 127.951 13.6883 127.599 13.7523C127.247 13.8163 126.879 13.8483 126.495 13.8483C125.623 13.8483 124.899 13.7283 124.323 13.4883C123.755 13.2483 123.311 12.8163 122.991 12.1923C122.671 11.5603 122.511 10.6843 122.511 9.56427ZM129.73 9.56427C129.73 8.46027 129.87 7.59627 130.15 6.97227C130.438 6.34827 130.85 5.91227 131.386 5.66427C131.93 5.40827 132.626 5.28027 133.474 5.28027C134.322 5.28027 135.014 5.40827 135.55 5.66427C136.094 5.91227 136.506 6.34827 136.786 6.97227C137.074 7.59627 137.218 8.46027 137.218 9.56427C137.218 10.6683 137.074 11.5323 136.786 12.1563C136.506 12.7803 136.094 13.2203 135.55 13.4763C135.014 13.7243 134.322 13.8483 133.474 13.8483C132.626 13.8483 131.93 13.7243 131.386 13.4763C130.85 13.2203 130.438 12.7803 130.15 12.1563C129.87 11.5323 129.73 10.6683 129.73 9.56427ZM133.474 12.4323C134.01 12.4323 134.418 12.3403 134.698 12.1563C134.986 11.9723 135.182 11.6803 135.286 11.2803C135.39 10.8723 135.442 10.3003 135.442 9.56427C135.442 8.83627 135.386 8.26827 135.274 7.86027C135.17 7.45227 134.978 7.15227 134.698 6.96027C134.418 6.76827 134.01 6.67227 133.474 6.67227C132.938 6.67227 132.526 6.76827 132.238 6.96027C131.958 7.15227 131.762 7.45227 131.65 7.86027C131.546 8.26827 131.494 8.83627 131.494 9.56427C131.494 10.3003 131.546 10.8723 131.65 11.2803C131.762 11.6803 131.958 11.9723 132.238 12.1563C132.526 12.3403 132.938 12.4323 133.474 12.4323ZM141.647 5.40027L143.159 10.2123H143.231L144.803 5.40027H147.467V13.7283H145.799V7.04427H145.727L144.023 12.0963H142.319L140.627 7.04427H140.555V13.7283H138.911V5.40027H141.647ZM155.364 8.19627C155.364 8.90827 155.252 9.47627 155.028 9.90027C154.812 10.3163 154.468 10.6203 153.996 10.8123C153.532 10.9963 152.908 11.0883 152.124 11.0883H151.068V13.7283H149.376V5.40027H152.124C152.948 5.40027 153.592 5.49627 154.056 5.68827C154.528 5.87227 154.864 6.16827 155.064 6.57627C155.264 6.97627 155.364 7.51627 155.364 8.19627ZM151.908 9.73227C152.348 9.73227 152.692 9.68827 152.94 9.60027C153.188 9.51227 153.364 9.36027 153.468 9.14427C153.58 8.92827 153.636 8.62427 153.636 8.23227C153.636 7.68027 153.508 7.29627 153.252 7.08027C152.996 6.86427 152.548 6.75627 151.908 6.75627H151.068V9.73227H151.908ZM161.951 13.7283H156.899V5.40027H158.591V12.2523H161.951V13.7283ZM168.388 13.7283H163.192V5.40027H168.196V6.86427H164.884V8.74827H167.956V10.1523H164.884V12.2523H168.388V13.7283ZM173.087 6.87627V13.7283H171.395V6.87627H169.175V5.40027H175.307V6.87627H173.087ZM178.173 5.40027V13.7283H176.481V5.40027H178.173ZM179.851 9.56427C179.851 8.46027 179.991 7.59627 180.271 6.97227C180.559 6.34827 180.971 5.91227 181.507 5.66427C182.051 5.40827 182.747 5.28027 183.595 5.28027C184.443 5.28027 185.135 5.40827 185.671 5.66427C186.215 5.91227 186.627 6.34827 186.907 6.97227C187.195 7.59627 187.339 8.46027 187.339 9.56427C187.339 10.6683 187.195 11.5323 186.907 12.1563C186.627 12.7803 186.215 13.2203 185.671 13.4763C185.135 13.7243 184.443 13.8483 183.595 13.8483C182.747 13.8483 182.051 13.7243 181.507 13.4763C180.971 13.2203 180.559 12.7803 180.271 12.1563C179.991 11.5323 179.851 10.6683 179.851 9.56427ZM183.595 12.4323C184.131 12.4323 184.539 12.3403 184.819 12.1563C185.107 11.9723 185.303 11.6803 185.407 11.2803C185.511 10.8723 185.563 10.3003 185.563 9.56427C185.563 8.83627 185.507 8.26827 185.395 7.86027C185.291 7.45227 185.099 7.15227 184.819 6.96027C184.539 6.76827 184.131 6.67227 183.595 6.67227C183.059 6.67227 182.647 6.76827 182.359 6.96027C182.079 7.15227 181.883 7.45227 181.771 7.86027C181.667 8.26827 181.615 8.83627 181.615 9.56427C181.615 10.3003 181.667 10.8723 181.771 11.2803C181.883 11.6803 182.079 11.9723 182.359 12.1563C182.647 12.3403 183.059 12.4323 183.595 12.4323ZM191.612 5.40027L194.444 11.5203H194.516V5.40027H196.172V13.7283H193.868L190.772 7.21227H190.7V13.7283H189.032V5.40027H191.612ZM200.945 9.56427C200.945 8.46027 201.085 7.59627 201.365 6.97227C201.653 6.34827 202.065 5.91227 202.601 5.66427C203.145 5.40827 203.841 5.28027 204.689 5.28027C205.537 5.28027 206.229 5.40827 206.765 5.66427C207.309 5.91227 207.721 6.34827 208.001 6.97227C208.289 7.59627 208.433 8.46027 208.433 9.56427C208.433 10.6683 208.289 11.5323 208.001 12.1563C207.721 12.7803 207.309 13.2203 206.765 13.4763C206.229 13.7243 205.537 13.8483 204.689 13.8483C203.841 13.8483 203.145 13.7243 202.601 13.4763C202.065 13.2203 201.653 12.7803 201.365 12.1563C201.085 11.5323 200.945 10.6683 200.945 9.56427ZM204.689 12.4323C205.225 12.4323 205.633 12.3403 205.913 12.1563C206.201 11.9723 206.397 11.6803 206.501 11.2803C206.605 10.8723 206.657 10.3003 206.657 9.56427C206.657 8.83627 206.601 8.26827 206.489 7.86027C206.385 7.45227 206.193 7.15227 205.913 6.96027C205.633 6.76827 205.225 6.67227 204.689 6.67227C204.153 6.67227 203.741 6.76827 203.453 6.96027C203.173 7.15227 202.977 7.45227 202.865 7.86027C202.761 8.26827 202.709 8.83627 202.709 9.56427C202.709 10.3003 202.761 10.8723 202.865 11.2803C202.977 11.6803 203.173 11.9723 203.453 12.1563C203.741 12.3403 204.153 12.4323 204.689 12.4323ZM211.818 8.94027H214.89V10.4043H211.818V13.7283H210.126V5.40027H215.13V6.86427H211.818V8.94027ZM222.821 6.87627V13.7283H221.129V6.87627H218.909V5.40027H225.041V6.87627H222.821ZM233.02 13.7283H231.34V9.98427H227.908V13.7283H226.216V5.40027H227.908V8.56827H231.34V5.40027H233.02V13.7283ZM240.142 13.7283H234.946V5.40027H239.95V6.86427H236.638V8.74827H239.71V10.1523H236.638V12.2523H240.142V13.7283ZM247.537 13.5483V12.0483C247.809 12.1443 248.169 12.2283 248.617 12.3003C249.065 12.3643 249.497 12.3963 249.913 12.3963C250.481 12.3963 250.877 12.3163 251.101 12.1563C251.333 11.9963 251.449 11.7203 251.449 11.3283C251.449 11.0803 251.409 10.8883 251.329 10.7523C251.249 10.6083 251.097 10.4883 250.873 10.3923C250.657 10.2883 250.325 10.1803 249.877 10.0683C249.269 9.92427 248.801 9.76427 248.473 9.58827C248.153 9.40427 247.921 9.16827 247.777 8.88027C247.641 8.58427 247.573 8.18427 247.573 7.68027C247.573 6.84027 247.825 6.22827 248.329 5.84427C248.833 5.46027 249.581 5.26827 250.573 5.26827C251.005 5.26827 251.409 5.29627 251.785 5.35227C252.161 5.40827 252.465 5.48027 252.697 5.56827V6.98427C252.473 6.90427 252.157 6.83627 251.749 6.78027C251.341 6.71627 250.969 6.68427 250.633 6.68427C250.129 6.68427 249.769 6.75227 249.553 6.88827C249.337 7.02427 249.229 7.27627 249.229 7.64427C249.229 7.85227 249.261 8.01627 249.325 8.13627C249.397 8.24827 249.533 8.35227 249.733 8.44827C249.941 8.53627 250.261 8.63227 250.693 8.73627C251.357 8.89627 251.861 9.08027 252.205 9.28827C252.549 9.48827 252.789 9.74827 252.925 10.0683C253.061 10.3883 253.129 10.8203 253.129 11.3643C253.129 12.1963 252.877 12.8203 252.373 13.2363C251.869 13.6443 251.069 13.8483 249.973 13.8483C249.517 13.8483 249.065 13.8163 248.617 13.7523C248.169 13.6963 247.809 13.6283 247.537 13.5483ZM261.555 13.7283H259.875V9.98427H256.443V13.7283H254.751V5.40027H256.443V8.56827H259.875V5.40027H261.555V13.7283ZM263.445 10.9803V5.40027H265.137V10.7763C265.137 11.3523 265.261 11.7683 265.509 12.0243C265.757 12.2723 266.209 12.3963 266.865 12.3963C267.329 12.3963 267.685 12.3363 267.933 12.2163C268.189 12.0963 268.365 11.9203 268.461 11.6883C268.565 11.4563 268.617 11.1523 268.617 10.7763V5.40027H270.297V10.9803C270.297 11.9803 270.005 12.7083 269.421 13.1643C268.845 13.6203 267.989 13.8483 266.853 13.8483C265.709 13.8483 264.853 13.6323 264.285 13.2003C263.725 12.7603 263.445 12.0203 263.445 10.9803ZM277.229 13.7283H272.177V5.40027H273.869V12.2523H277.229V13.7283ZM283.666 13.7283H278.47V5.40027H283.474V6.86427H280.162V8.74827H283.234V10.1523H280.162V12.2523H283.666V13.7283ZM284.62 5.40027H286.588L288.28 8.46027H288.352L290.104 5.40027H292.036L289.54 9.42027L292.12 13.7283H290.116L288.34 10.5243H288.268L286.384 13.7283H284.44L287.068 9.49227L284.62 5.40027Z" fill="#F6F7FB"/>
</svg>
