
<svg width="16px" height="16px" viewBox="0 0 16 16" version="1.1" xmlns="http://www.w3.org/2000/svg" xmlns:xlink="http://www.w3.org/1999/xlink">
    <g id="基础页面" stroke="none" stroke-width="1" fill="none" fill-rule="evenodd">
        <g id="桌面端-HD备份-8" transform="translate(-405.000000, -799.000000)" fill-rule="nonzero">
            <g id="编组-8" transform="translate(206.000000, 176.000000)">
                <g id="编组-6" transform="translate(0.000000, 599.000000)">
                    <g id="chrome-web-store-1" transform="translate(199.000000, 24.000000)">
                        <g id="编组" transform="translate(8.000000, 8.000000) scale(-1, 1) rotate(-180.000000) translate(-8.000000, -8.000000) ">
                            <g transform="translate(-0.000000, 0.000000)" id="路径">
                                <path d="M7.97910671,15.9985677 C7.97910671,15.9985677 12.6959834,16.2104894 15.1959407,11.4788146 L7.57812676,11.4788146 C7.57812676,11.4788146 6.13953286,11.5259976 4.91301611,9.78378523 C4.55942,9.05388365 4.18213197,8.30050537 4.60657381,6.81762732 C3.99334419,7.85324263 1.35186796,12.443885 1.35186796,12.443885 C1.35186796,12.443885 3.21513372,15.8103523 7.97910671,15.9985677" fill="#E14C40"></path>
                                <path d="M14.9502233,3.98486759 C14.9502233,3.98486759 12.7751673,-0.198003414 7.41975895,0.00748948075 C8.08048741,1.14889345 11.2294997,6.59210174 11.2294997,6.59210174 C11.2294997,6.59210174 11.9898262,7.81197185 11.0922361,9.74320325 C10.6358792,10.41404 10.1710116,11.1169634 8.67203777,11.4918445 C9.87756532,11.5036689 15.1807594,11.4910409 15.1807594,11.4910409 C15.1807594,11.4910409 17.1692703,8.19684052 14.9502233,3.98481019" fill="#FFD24D"></path>
                                <path d="M1.04174536,3.95295305 C1.04174536,3.95295305 -1.49978779,7.92522254 1.35664084,12.451634 L5.16402392,5.86541457 C5.16402392,5.86541457 5.8422338,4.59830406 7.96680071,4.40859623 C8.77686876,4.46760369 9.6190244,4.51788631 10.6936714,5.62605553 C10.1013734,4.57827137 7.43833295,0 7.43833295,0 C7.43833295,0 3.58621125,-0.0716080635 1.04174536,3.95295305" fill="#00AA60"></path>
                                <path d="M4.39041382,7.93452138 C4.39041382,9.90180014 5.98823811,11.4969531 7.95949762,11.4969531 C9.93064212,11.4969531 11.5282939,9.90180014 11.5282939,7.93452138 C11.5282939,5.96666862 9.93064212,4.37174527 7.95949762,4.37174527 C5.98823811,4.37174527 4.39041382,5.96666862 4.39041382,7.93457878" fill="#FFFFFF"></path>
                                <path d="M5.16086117,7.93452138 C5.16086117,9.47715309 6.41388755,10.7279045 7.95949762,10.7279045 C9.50464765,10.7279045 10.7579041,9.47715309 10.7579041,7.93452138 C10.7579041,6.39166006 9.50470515,5.14096602 7.95949762,5.14096602 C6.41388755,5.14096602 5.16086117,6.39171747 5.16086117,7.93452138" fill="#577FC0"></path>
                                <path d="M7.9790492,15.9985677 C7.9790492,15.9985677 11.0930987,16.1384521 13.6016817,13.6529639 C13.5604508,13.6529639 5.03578854,13.6255839 2.29718695,13.6255839 C3.2877046,14.6153365 5.10582921,15.8849726 7.9790492,15.9985103" fill="#D6483E"></path>
                            </g>
                        </g>
                    </g>
                </g>
            </g>
        </g>
    </g>
</svg>