<svg width="16" height="16" viewBox="0 0 16 16" fill="none" xmlns="http://www.w3.org/2000/svg">
<path fill-rule="evenodd" clip-rule="evenodd" d="M8 0C3.576 0 0 3.576 0 8C0 12.424 3.576 16 8 16C12.424 16 16 12.424 16 8C16 3.576 12.424 0 8 0ZM11.44 11.4398C11.128 11.7518 10.624 11.7518 10.312 11.4398L7.99996 9.12778L5.68796 11.4398C5.37596 11.7518 4.87196 11.7518 4.55996 11.4398C4.41016 11.2903 4.32598 11.0874 4.32598 10.8758C4.32598 10.6642 4.41016 10.4612 4.55996 10.3118L6.87196 7.99978L4.55996 5.68778C4.41016 5.53832 4.32598 5.33539 4.32598 5.12378C4.32598 4.91217 4.41016 4.70925 4.55996 4.55978C4.87196 4.24778 5.37596 4.24778 5.68796 4.55978L7.99996 6.87178L10.312 4.55978C10.624 4.24778 11.128 4.24778 11.44 4.55978C11.752 4.87178 11.752 5.37578 11.44 5.68778L9.12796 7.99978L11.44 10.3118C11.744 10.6158 11.744 11.1278 11.44 11.4398Z" fill="#C3CAD9"/>
</svg>
