<svg t="1687782944174" class="icon" viewBox="0 0 1024 1024" version="1.1" xmlns="http://www.w3.org/2000/svg" p-id="2359" width="200" height="200"><path d="M52.758038 694.895304a489.917217 489.917217 0 0 0 918.483479 0L511.999777 652.288l-459.241739 42.607304z" fill="#FFDA44" p-id="2360"></path><path d="M511.999777 34.771478A489.917217 489.917217 0 0 0 52.758038 354.170435L511.999777 396.777739l459.24174-42.607304A489.961739 489.961739 0 0 0 511.999777 34.726957z" fill="#000000" p-id="2361"></path><path d="M52.758038 354.170435A488.71513 488.71513 0 0 0 22.260647 524.466087c0 59.970783 10.774261 117.314783 30.497391 170.384696h918.483479c20.21287-54.53913 30.541913-112.194783 30.497391-170.384696 0-59.926261-10.774261-117.270261-30.497391-170.340174H52.758038z" fill="#D80027" p-id="2362"></path></svg>