<svg width="84" height="45" viewBox="0 0 84 45" fill="none" xmlns="http://www.w3.org/2000/svg">
<g clip-path="url(#clip0_2042_2174)">
<path d="M16.1707 17.1011C11.2552 17.1011 7.16406 19.17 7.16406 25.4077C7.16406 30.3544 9.91739 33.4655 16.2952 33.4655C23.8085 33.4655 24.2907 28.55 24.2907 28.55H20.6507C20.6507 28.55 19.8729 31.1944 16.0774 31.1944C12.9818 31.1944 10.7574 29.1255 10.7574 26.2167H24.6796V24.4122C24.6796 21.5344 22.8441 17.1011 16.1708 17.1011L16.1707 17.1011ZM16.0463 19.4344C18.9863 19.4344 20.9929 21.2233 20.9929 23.8988H10.8507C10.8507 21.0522 13.4641 19.4344 16.0463 19.4344V19.4344Z" fill="white"/>
<path d="M24.6794 11.0656V30.3389C24.6794 31.4278 24.6016 32.9678 24.6016 32.9678H28.0705C28.0705 32.9678 28.1949 31.8633 28.1949 30.8522C28.1949 30.8522 29.906 33.5122 34.5727 33.5122C39.4883 33.5122 42.8171 30.1366 42.8171 25.2833C42.8171 20.7722 39.7527 17.1478 34.5727 17.1478C29.7194 17.1478 28.226 19.7456 28.226 19.7456V11.0656H24.6794ZM33.686 19.5433C37.0149 19.5433 39.146 22.0011 39.146 25.2989C39.146 28.83 36.6882 31.1478 33.7171 31.1478C30.1549 31.1478 28.2416 28.3944 28.2416 25.33C28.226 22.4678 29.9527 19.5433 33.686 19.5433Z" fill="white"/>
<path d="M51.4517 17.1011C44.0628 17.1011 43.5806 21.1144 43.5806 21.7522H47.2673C47.2673 21.7522 47.454 19.4033 51.2028 19.4033C53.6295 19.4033 55.5117 20.5077 55.5117 22.6233V23.3855H51.2028C45.4784 23.3855 42.4451 25.05 42.4451 28.4255C42.4451 31.7388 45.2451 33.5433 49.0251 33.5433C54.174 33.5433 55.8384 30.7122 55.8384 30.7122C55.8384 31.8322 55.9317 32.9366 55.9317 32.9366H59.1984C59.1984 32.9366 59.074 31.5677 59.074 30.6811V23.1211C59.074 18.1588 55.0295 17.1011 51.4517 17.1011ZM55.5117 25.6722V26.6833C55.5117 27.99 54.6873 31.2566 49.8806 31.2566C47.2517 31.2566 46.1162 29.95 46.1162 28.441C46.1317 25.6877 49.9273 25.6722 55.5117 25.6722Z" fill="white"/>
<path d="M57.0969 17.7388H61.2347L67.1769 29.5455L73.1036 17.7388H76.8525L66.0569 38.7544H62.1214L65.2325 32.8899L57.0969 17.7388Z" fill="white"/>
</g>
<defs>
<clipPath id="clip0_2042_2174">
<rect width="69.6719" height="28" fill="white" transform="translate(7.16406 10.91)"/>
</clipPath>
</defs>
</svg>
