<svg width="20" height="20" viewBox="0 0 20 20" fill="none" xmlns="http://www.w3.org/2000/svg">
<path d="M1.25 2.5H2.70833L3.33333 5M3.33333 5L5.41667 13.3333H16.25L18.3333 5H3.33333Z" stroke="#333333" stroke-width="1.66667" stroke-linejoin="round"/>
<path d="M5.41675 17.5C6.1071 17.5 6.66675 16.9404 6.66675 16.25C6.66675 15.5596 6.1071 15 5.41675 15C4.72639 15 4.16675 15.5596 4.16675 16.25C4.16675 16.9404 4.72639 17.5 5.41675 17.5Z" stroke="#333333" stroke-width="1.66667" stroke-linejoin="round"/>
<path d="M16.25 17.5C16.9404 17.5 17.5 16.9404 17.5 16.25C17.5 15.5596 16.9404 15 16.25 15C15.5596 15 15 15.5596 15 16.25C15 16.9404 15.5596 17.5 16.25 17.5Z" stroke="#333333" stroke-width="1.66667" stroke-linejoin="round"/>
</svg>
