<svg width="84" height="45" viewBox="0 0 84 45" fill="none" xmlns="http://www.w3.org/2000/svg">
<path d="M8.64347 33.91V15.0009H21.3849V18.297H12.6413V22.8027H20.7294V26.0989H12.6413V30.6138H21.4219V33.91H8.64347ZM24.4895 33.91V19.7282H28.2381V22.2303H28.4043C28.6998 21.3993 29.1922 20.7438 29.8816 20.2637C30.571 19.7836 31.3958 19.5435 32.356 19.5435C33.3285 19.5435 34.1564 19.7866 34.8397 20.2729C35.5229 20.753 35.9784 21.4055 36.2061 22.2303H36.3539C36.6432 21.4178 37.1664 20.7684 37.9235 20.2821C38.6867 19.7897 39.5885 19.5435 40.6287 19.5435C41.9521 19.5435 43.0262 19.9651 43.851 20.8084C44.682 21.6455 45.0975 22.8335 45.0975 24.3723V33.91H41.1735V25.1479C41.1735 24.36 40.9642 23.7691 40.5456 23.3752C40.1271 22.9812 39.6039 22.7843 38.976 22.7843C38.262 22.7843 37.705 23.012 37.3049 23.4675C36.9048 23.9168 36.7047 24.5108 36.7047 25.2495V33.91H32.8915V25.0648C32.8915 24.3693 32.6915 23.8153 32.2914 23.4029C31.8974 22.9905 31.3773 22.7843 30.731 22.7843C30.294 22.7843 29.9 22.8951 29.5492 23.1166C29.2045 23.3321 28.9306 23.6368 28.7275 24.0307C28.5243 24.4185 28.4228 24.874 28.4228 25.3972V33.91H24.4895ZM52.2484 34.1777C51.3436 34.1777 50.5372 34.0208 49.8294 33.7068C49.1215 33.3868 48.5614 32.9159 48.149 32.2942C47.7427 31.6664 47.5396 30.8846 47.5396 29.949C47.5396 29.1612 47.6842 28.4995 47.9735 27.964C48.2628 27.4284 48.6568 26.9976 49.1554 26.6713C49.6539 26.3451 50.2202 26.0989 50.8542 25.9327C51.4944 25.7665 52.1653 25.6496 52.867 25.5818C53.6918 25.4957 54.3566 25.4157 54.8613 25.3418C55.3661 25.2618 55.7323 25.1448 55.96 24.9909C56.1878 24.8371 56.3017 24.6093 56.3017 24.3077V24.2523C56.3017 23.6675 56.117 23.2151 55.7477 22.8951C55.3845 22.575 54.8675 22.4149 54.1966 22.4149C53.4887 22.4149 52.9255 22.5719 52.5069 22.8858C52.0884 23.1936 51.8114 23.5814 51.676 24.0492L48.0382 23.7537C48.2228 22.892 48.586 22.1472 49.1277 21.5193C49.6693 20.8854 50.368 20.3991 51.2235 20.0605C52.0853 19.7158 53.0824 19.5435 54.215 19.5435C55.0029 19.5435 55.7569 19.6358 56.4771 19.8205C57.2034 20.0051 57.8467 20.2914 58.4068 20.6791C58.9731 21.0669 59.4193 21.5655 59.7456 22.1749C60.0718 22.7781 60.2349 23.5014 60.2349 24.3446V33.91H56.5048V31.9434H56.394C56.1663 32.3865 55.8616 32.7774 55.4799 33.1159C55.0983 33.4483 54.6397 33.7099 54.1042 33.9007C53.5687 34.0854 52.9501 34.1777 52.2484 34.1777ZM53.3748 31.4632C53.9534 31.4632 54.4643 31.3494 54.9075 31.1216C55.3507 30.8877 55.6984 30.5738 55.9508 30.1799C56.2032 29.7859 56.3294 29.3397 56.3294 28.8411V27.3361C56.2063 27.4161 56.037 27.49 55.8216 27.5577C55.6123 27.6193 55.3753 27.6777 55.1106 27.7331C54.8459 27.7824 54.5813 27.8285 54.3166 27.8716C54.0519 27.9086 53.8118 27.9424 53.5964 27.9732C53.1348 28.0409 52.7316 28.1486 52.3869 28.2963C52.0422 28.4441 51.7744 28.6441 51.5836 28.8965C51.3928 29.1427 51.2974 29.4505 51.2974 29.8198C51.2974 30.3553 51.4913 30.7646 51.8791 31.0478C52.273 31.3247 52.7716 31.4632 53.3748 31.4632ZM63.2864 33.91V19.7282H67.2196V33.91H63.2864ZM65.2623 17.9C64.6775 17.9 64.1758 17.7061 63.7573 17.3184C63.3449 16.9244 63.1387 16.4535 63.1387 15.9057C63.1387 15.364 63.3449 14.8993 63.7573 14.5115C64.1758 14.1176 64.6775 13.9206 65.2623 13.9206C65.847 13.9206 66.3456 14.1176 66.758 14.5115C67.1766 14.8993 67.3858 15.364 67.3858 15.9057C67.3858 16.4535 67.1766 16.9244 66.758 17.3184C66.3456 17.7061 65.847 17.9 65.2623 17.9ZM74.3036 15.0009V33.91H70.3704V15.0009H74.3036Z" fill="white"/>
</svg>
