<svg width="20" height="20" viewBox="0 0 20 20" fill="none" xmlns="http://www.w3.org/2000/svg">
<path d="M2.31441 9.66417C2.23738 9.50129 2.16577 9.33617 2.10041 9.169C1.83023 8.47804 1.66663 7.75175 1.66663 7C1.66663 4.51471 3.7017 2.5 6.21208 2.5C7.79313 2.5 9.18563 3.29913 9.99996 4.51167C10.8143 3.29913 12.2068 2.5 13.7878 2.5C16.2982 2.5 18.3333 4.51471 18.3333 7C18.3333 10.2353 15.303 13 13.7878 14.5C12.7778 15.5 11.5151 16.5 9.99996 17.5C8.48479 16.5 7.22217 15.5 6.21208 14.5C6.05954 14.349 5.89167 14.1852 5.71304 14.0093" stroke="#333333" stroke-width="1.66667" stroke-linejoin="round"/>
<path d="M3.33337 12.4889L7.96412 7.93316L10.6576 10.7108L14.6925 6.59116" stroke="#333333" stroke-width="1.66667" stroke-linejoin="round"/>
</svg>
