<svg t="1687782978415" class="icon" viewBox="0 0 1024 1024" version="1.1" xmlns="http://www.w3.org/2000/svg" p-id="5445" width="200" height="200"><path d="M72.908034 772.872952c-6.195135-4.095957-7.696986-11.263882-10.990817-17.20302a483.83492 483.83492 0 0 1-40.788906-97.688574 515.049525 515.049525 0 0 1 32.084997-373.858475 412.172739 412.172739 0 0 1 28.501034-49.492813c4.266622-2.082111 9.079371-2.81597 13.789722-2.099178h833.305384c4.437287-0.699726 9.011105-0.085332 13.089995 1.809047a400.482195 400.482195 0 0 1 39.201722 72.276575 509.093321 509.093321 0 0 1 40.788905 251.679491 500.884341 500.884341 0 0 1-25.599731 121.001396 482.008806 482.008806 0 0 1-40.498775 88.18254c-1.297053 2.099178-2.082111 4.607952-4.590885 5.393011" fill="#FDC200" p-id="5446"></path><path d="M944.920212 773.333747c2.303976 0 4.403154-0.307197 6.690063-0.307197-1.433585 6.536465-4.607952 12.560935-9.215903 17.407817a511.704494 511.704494 0 0 1-350.374988 227.325613 514.093802 514.093802 0 0 1-199.643771-7.91885 500.474745 500.474745 0 0 1-184.079133-86.458826 512.387153 512.387153 0 0 1-125.592282-134.142591 39.764916 39.764916 0 0 1-8.49911-16.093698l870.715124 0.170665zM85.212972 230.636512a511.004768 511.004768 0 0 1 225.960294-189.608676 488.954866 488.954866 0 0 1 124.585359-35.430028A532.645074 532.645074 0 0 1 558.7568 2.047978a500.167548 500.167548 0 0 1 169.675018 45.413924 508.086398 508.086398 0 0 1 160.68098 117.758763 457.50133 457.50133 0 0 1 51.796789 66.627567 19.762992 19.762992 0 0 1-11.502812 1.297053H93.660883c-3.071968 0.051199-6.860728 1.860247-8.447911-2.559973v0.0512z" fill="#C40B1E" p-id="5447"></path><path d="M495.866793 586.626374a156.175427 156.175427 0 0 1 1.02399-32.767656 9.437768 9.437768 0 0 1 0.511994-2.303976c2.508774-3.908226 5.358877-7.57752 8.482045-11.007884 7.065526-6.126869 16.042498-9.557233 25.394933-9.693765a16.400894 16.400894 0 0 0 4.898082-1.484785 38.160666 38.160666 0 0 1 29.49089 31.48767c0.511995 3.071968 1.023989 6.690063 4.607952 7.901783 16.895823 1.484784 34.098842 0.511995 50.994664 0.511995 18.995001 0 15.8889 1.279987 15.8889 15.581703 0 13.806788-0.494928 27.64771 0.307197 41.488631a76.372531 76.372531 0 0 1-13.601991 51.79679 1.89438 1.89438 0 0 1-1.297053 0.511994 95.060335 95.060335 0 0 1-23.790683 11.997741c-7.116725 2.201577-14.608913 2.901303-22.015769 2.099178h-8.703909c-9.676698 0.802125-15.871833-5.597808-23.090957-10.803087a24.882939 24.882939 0 0 1-2.303976-2.303976c-2.303976-3.601029-5.39301-6.70713-7.884717-10.000961-3.071968-4.607952-20.99178 11.997741-23.80775 7.167925a326.789102 326.789102 0 0 1-2.099178-35.600693c-0.29013-3.071968-1.023989-38.689727-1.484785-41.505698" fill="#AA1619" p-id="5448"></path><path d="M567.051113 569.918283c-3.071968-1.297053-2.303976-4.403154-3.071968-6.911928-3.071968-13.31186-7.696986-25.087737-22.59603-28.995962-2.303976-0.511995-2.594106-4.607952-5.905004-2.594106-4.898082-0.307197-7.679919-2.303976-7.67992-7.696986 0-21.810971-0.307197-43.297679 0-65.091583a9.403635 9.403635 0 0 1 0.785059-3.618096c2.303976-4.403154 6.399933-4.881015 10.803086-5.119946 29.695688-0.785058 59.698573 1.31412 89.684392 0.511995 6.690063 0 7.406856 3.601029 7.696986 8.994039 1.023989 19.711793 0.307197 39.491852 0.802125 59.203645a44.936062 44.936062 0 0 1-0.802125 27.391712c2.099178 6.70713-0.802125 13.31186-0.29013 19.711793 0.29013 3.071968-1.809048 4.095957-4.898082 4.095957-21.094179 0.085332-42.888083 1.092255-64.511323 0.085333v0.034133z" fill="#DADADA" p-id="5449"></path><path d="M596.354272 434.000776c-2.611173 2.303976 3.583962 6.894861 4.403153 9.215904 2.594106 8.703909-11.263882 4.607952-15.598769 6.399932-1.297053 0.511995 25.889861-1.023989 24.575742 0.290131 13.806788 0 3.293832-0.785058 17.407817-0.785059 11.485746 0 11.485746 0 11.485746 11.775877l0.307197 57.906592c-0.511995 0.511995-1.023989 0.511995-1.809048 0-0.29013-19.694727-1.023989-39.491852-1.023989-59.186579 0-5.905005-2.099178-7.714052-7.679919-7.714052-29.695688 0-152.301334 0.307197-171.688864 0-14.404115-5.597808 1.791981-21.793904-1.809048-17.885679l141.429982-0.017067z" fill="#9F8604" p-id="5450"></path><path d="M520.169472 334.247157a11.571079 11.571079 0 0 1 4.898081-0.29013c4.710351 0.273064 9.352435 1.211721 13.789722 2.798904a78.42051 78.42051 0 0 1 17.20302-4.095957c11.792943-1.501851 19.711793 5.887938 29.013028 10.803086 1.023989 0.511995 1.023989 2.594106 3.293832 2.099178a49.322149 49.322149 0 0 1 36.078555 4.403154 30.770877 30.770877 0 0 1 17.203019 27.391712c0 12.799866-24.405077 45.908851-45.396856 56.89967h-141.378783c-10.49589-1.297053-57.206866-59.493775-44.099803-78.676508" fill="#9F8604" p-id="5451"></path><path d="M409.663965 356.53599c10.49589-22.783761 51.796789-12.595068 54.90289-12.287871 4.403154 0.307197 8.499111-6.195135 11.263882-9.693765 0 0 11.502813-7.696986 18.500073-3.071968a33.62098 33.62098 0 0 0 26.111725 2.611173" fill="#9F8604" p-id="5452"></path><path d="M672.436673 540.086062c-1.791981-0.802125-2.781837-3.310899-5.119946-2.303975-7.594587 2.047978-15.411038 3.1573-23.278689 3.293832a9.762031 9.762031 0 0 0-7.167925 5.39301 142.522237 142.522237 0 0 1 0-27.64771h1.791981c10.308158-0.511995 20.479785-1.297053 30.80501-1.791981a16.947022 16.947022 0 0 1 3.601029-1.31412c3.327965-0.34133 6.70713-0.238931 10.000961 0.307197 7.696986 2.303976 16.110764-0.802125 23.551753 2.781838 5.39301 5.614874 13.31186 6.70713 19.455796 11.007884a9.727898 9.727898 0 0 1 4.915148 13.089996c-1.023989 2.099178-1.31412 4.403154-2.099178 6.399933a19.455796 19.455796 0 0 1-20.479785 16.093697" fill="#AB2C17" p-id="5453"></path><path d="M707.542437 584.049334c2.099178 0.802125 4.403154 1.501851 6.195135 2.303976 17.885679 7.696986 15.581703 11.997741 11.775877 28.501034-1.279987 5.119946-7.884717 5.597808-8.994039 10.990818 0 0.802125-2.303976-0.511995-2.781838-1.484784a10.035095 10.035095 0 0 1-1.023989-10.018029c3.293832-5.39301 0.785058-7.884717-3.805827-10.000961a5.375944 5.375944 0 0 1-2.099177 0.511994c-4.403154-1.501851-8.703909-3.071968-13.311861-4.42022-5.905005-2.303976-11.502813-5.119946-17.697947-7.389789-3.78876-0.802125-4.403154-5.119946-7.67992-6.911927-1.518917-1.023989-3.071968-1.791981-4.42022-2.781838a20.053123 20.053123 0 0 1-5.39301-27.203981 9.045238 9.045238 0 0 1 7.406856-4.403154 9.284169 9.284169 0 0 0 6.690063-2.798904" fill="#AB1719" p-id="5454"></path><path d="M396.8641 581.25043c-4.590885 2.303976-25.087737 16.383828-29.695689 18.192876-4.403154 2.321042-8.994039 3.310899-13.31186 5.410076a10.78602 10.78602 0 0 1-5.119946 0.290131c-4.386087 2.303976-3.78876 5.905005-2.594106 9.506033 1.297053 3.293832 2.099178 7.167925-1.791981 9.215903-3.805827 2.303976-11.810009-13.31186-14.113985-15.359838-8.191914-6.399933 6.70713-21.998702 15.905966-26.691987 11.997741-8.499111 37.887602-29.695688 40.788905-31.999664" fill="#AA1819" p-id="5455"></path><path d="M386.675407 547.834248c5.39301 1.023989 14.387049 6.212201 15.103841 12.287871 1.023989 7.714052 4.403154 16.110764-5.39301 21.298976" fill="#AA1819" p-id="5456"></path><path d="M421.781171 536.331435c-33.603914-10.49589-61.302823 29.013029-69.18754 29.013029-10.803087-1.501851-30.497813-16.725158-28.671699-27.203981 1.023989-5.597808 21.981636-15.359839 26.896784-17.697948 1.791981-2.798904 64.886785-6.690063 70.996588-1.791981" fill="#A9231A" p-id="5457"></path><path d="M397.666225 675.081978a6.195135 6.195135 0 0 1-5.393011 2.303976c-15.359839 0.29013-30.80501 0.29013-46.079516 0a6.536465 6.536465 0 0 1-5.39301-2.303976c2.321042-8.618576 5.410077-17.015288 9.215903-25.087736 1.023989-0.802125 2.099178-1.809048 3.293833-1.501851a168.88996 168.88996 0 0 0 34.098842 0 15.752368 15.752368 0 0 1 3.071967 5.887938" fill="#B9A303" p-id="5458"></path><path d="M433.574114 675.252643c2.303976-2.303976 1.297053-5.119946 1.297053-7.679919v-88.711602c0.29013-3.071968 1.023989-6.399933 4.403154-7.167925 4.095957-1.023989 2.303976 3.310899 4.095957 4.915149 0.511995 0.511995 1.297053 0.511995 2.099178 0.802125a9.676698 9.676698 0 0 1 2.099178 7.679919v90.008655c0 3.601029 1.791981 10.291092-6.399933 7.884717l-7.594587-7.731119z" fill="#A31518" p-id="5459"></path><path d="M545.05241 679.3998c7.167925 3.071968 11.263882 11.485746 20.30912 10.803086 5.222345 1.194654 10.547089 2.065045 15.8889 2.594106 2.303976 0.802125 6.399933 1.484784 1.809048 4.898082-8.157781 1.467718-16.213163 3.430364-24.09788 5.905005a155.356235 155.356235 0 0 1-73.590694-3.071968c-2.099178-1.501851-4.607952-1.023989-6.690063-2.099178-2.303976-1.023989-4.915148-2.303976-3.805827-5.905005 4.164223-0.63146 8.379645-0.887457 12.595068-0.802124 3.293832-0.29013 13.806788-4.898082 16.895822-5.597808a74.529351 74.529351 0 0 0 25.394934-25.889862" fill="#CECECB" p-id="5460"></path><path d="M706.552581 604.068324l2.303976 0.29013c-1.075189 16.725158-0.716792 33.518581 1.023989 50.175473 0.580261 2.594106 1.706649 5.05168 3.293832 7.167925-0.802125 4.095957-4.403154 3.618095-6.911927 3.805827-11.263882 0.29013-22.783761 0.511995-34.098842 0-3.071968 0-7.389789 0.511995-6.690063-5.119946 4.898082-4.095957 3.805827-10.308158 4.095957-15.103842 0.802125-18.192876 0.29013-36.692948 0.29013-55.107688a21.640306 21.640306 0 0 0-1.297053-4.095957c3.601029 0 4.095957 4.403154 7.167925 5.119946-0.802125 15.359839-0.29013 30.80501-0.29013 45.908852 0 8.499111 0.802125 8.703909 8.703908 8.994039h10.990818c9.693765-0.511995 9.693765-0.511995 9.693765-10.308159v-23.551753a12.765733 12.765733 0 0 1 1.706649-8.191914v0.017067z" fill="#A8920A" p-id="5461"></path><path d="M424.563009 571.283602c6.911927-1.297053 8.703909 1.791981 8.703908 8.49911a3318.066494 3318.066494 0 0 0 0 76.884526c0.34133 5.341811-0.614394 10.700688-2.781837 15.59877-4.898082-2.611173-5.410077-7.696986-7.167925-11.997741a5.597808 5.597808 0 0 0 1.023989-2.798904c-4.607952-26.691986-0.511995-53.247441-1.809047-80.212491a7.031393 7.031393 0 0 1 2.047978-5.97327z" fill="#B8A100" p-id="5462"></path><path d="M352.764296 451.988854c0.802125-6.399933-6.894861-7.884717-7.884717-13.31186 3.293832-2.303976 7.884717 0.307197 11.263881-2.303976 10.000962 1.023989 8.499111-6.894861 10.291092-12.287871 2.798904-1.484784 4.095957 0 4.915149 2.303976 3.071968 7.714052 3.071968 7.714052 8.703908 1.809048l7.167925 0.802124c-1.809048 4.403154-2.611173 7.884717 3.583963 9.215904 1.023989 0 1.501851 1.023989 1.023989 2.303976l-4.386087 6.195134c-4.898082 7.389789 2.798904 5.597808 5.597807 7.67992v2.611172a2.952502 2.952502 0 0 1-3.601028 1.809048 187.185235 187.185235 0 0 0-32.596992-1.023989 10.632422 10.632422 0 0 1-8.703908-2.594106c1.331186-3.003702 3.635162-1.706649 4.625018-3.2085z" fill="#6D5703" p-id="5463"></path><path d="M687.540514 575.550223c-14.096919-5.119946-14.096919-5.119946-14.608913-19.199798 0-2.303976-0.29013-4.898082-0.511995-7.406856v-8.994038c1.826114-2.099178 3.310899-4.095957 6.212202-1.501851 3.1573 1.416518 6.553531 2.18451 10.000961 2.303975a7.509254 7.509254 0 0 1 8.499111 7.406856c0.802125 7.57752 0.802125 15.20624 0 22.783761-0.597327 6.399933-4.386087 6.70713-9.591366 4.607951z" fill="#D9D8D8" p-id="5464"></path><path d="M672.931601 517.11457h-3.293832c1.041056-10.478823 1.535984-20.99178 1.501851-31.504736a32.511659 32.511659 0 0 0-4.095957-18.70487c0.511995-3.78876 3.78876-3.583962 6.399933-3.583962 10.325225-0.511995 20.65045-0.511995 30.992741 0 2.798904 0 7.167925-0.307197 5.887938 5.119946-3.293832 2.286909-0.29013 4.386087-0.29013 6.690063a13.840921 13.840921 0 0 1-2.303976 8.191914 114.601463 114.601463 0 0 0-22.59603-0.802125c-9.011105 0.511995-9.506034 1.023989-9.506033 10.000962v16.895822a13.755589 13.755589 0 0 1-2.696505 7.696986z" fill="#A38F09" p-id="5465"></path><path d="M710.136544 468.389749a2.901303 2.901303 0 0 0-3.293833-3.071968h-37.392674c-0.802125 0-1.501851 1.023989-2.303975 1.314119a8.038316 8.038316 0 0 1-4.095957-10.495889c1.484784-5.410077 6.399933-4.403154 10.291092-4.403154 4.607952-2.303976 9.011105 0.785058 13.60199 0.29013a45.055527 45.055527 0 0 0 20.001923-4.898082c0.29013 1.501851 0 3.293832 2.099178 4.403154 7.492188 4.573819 7.696986 10.922552 1.092256 16.86169z" fill="#C1A900" p-id="5466"></path><path d="M665.541812 660.473065c0.29013 2.116244 1.297053 3.071968 3.293832 3.071968h41.812894c0.785058 0 1.484784-1.023989 2.28691-1.279987 2.611173 4.095957 0.802125 9.693765 4.403153 13.31186a7.901784 7.901784 0 0 1-5.39301 2.303976c-14.899044 0.29013-29.695688 0.511995-44.594732 0a6.178068 6.178068 0 0 1-5.39301-2.303976c1.484784-5.39301-2.116244-11.298015 3.583963-15.086774z" fill="#C1AB01" p-id="5467"></path><path d="M390.976161 463.013805c-2.099178 5.887938-1.023989 17.885679-3.601028 23.551753a30.480747 30.480747 0 0 0-18.192876-4.420221c-5.905005 0-12.014807 1.809048-17.407817-1.791981-4.403154-3.071968-1.023989-13.823855-3.293832-17.697947" fill="#A48F08" p-id="5468"></path><path d="M350.972315 520.408402l0.802125-39.98678c10.000962 0 20.001923 0 30.207683-0.511994 5.119946-0.29013 3.583962 4.403154 5.39301 6.399932v10.018029a34.542571 34.542571 0 0 0-0.307197 13.584924 8.021249 8.021249 0 0 1-1.023989 6.911927l-35.071632 3.583962z" fill="#B7B2AB" p-id="5469"></path><path d="M390.259369 468.389749c-0.29013-2.594106-2.099178-3.071968-4.403154-3.071968h-33.27965c-2.321042 0-3.805827 0.511995-4.420221 3.071968a9.642565 9.642565 0 0 1-5.39301-12.287871c1.501851-4.881015 5.905005-4.403154 10.000962-4.403154l-3.071968 2.611172c14.455315-0.170665 28.91063 0.443729 43.297679 1.791982a9.420701 9.420701 0 0 1-2.730638 12.287871z" fill="#BDA600" p-id="5470"></path><path d="M687.540514 575.550223c5.597808 0.785058 7.884717-1.31412 7.696986-7.406855a143.034231 143.034231 0 0 1 0-18.500073c0-5.905005-2.303976-8.703909-8.191914-8.49911a9.079371 9.079371 0 0 1-7.884717-2.798904l20.991779 2.303976a2.252776 2.252776 0 0 1 2.611173 0.29013c7.884717 6.70713 3.583962 16.093698 5.887938 24.09788-1.245854 6.143935-1.587183 12.458536-1.023989 18.70487a88.302006 88.302006 0 0 1-20.087256-8.191914z" fill="#BEB7B1" p-id="5471"></path><path d="M684.74161 480.421622c5.597808 0 11.263882 0 16.895823-0.307197a5.119946 5.119946 0 0 1 5.39301 3.071968l-0.511995 35.395895c-7.850584 0.955723-15.820634 0.511995-23.551752-1.297053 9.727898-2.611173 11.007884-9.693765 10.018028-18.192875a25.002404 25.002404 0 0 1 0-6.70713c0.307197-4.898082-0.29013-8.703909-6.195135-9.693765-1.194654 0.29013-2.047978-0.682659-2.047979-2.303976v0.017067z" fill="#C3C3C0" p-id="5472"></path><path d="M657.844826 693.496718c-3.293832-6.195135-2.594106-7.901784 3.071968-10.308158a31.180473 31.180473 0 0 1 21.503774-0.802125c5.461276 1.791981 11.41748 1.501851 16.691025-0.802125a20.65045 20.65045 0 0 1 22.305899 5.614874 6.02447 6.02447 0 0 1 0.511994 5.119947" fill="#1C5DA4" p-id="5473"></path><path d="M706.723246 447.29557c-9.983895 10.803087-21.981636 7.167925-33.586847 4.607952a11.622278 11.622278 0 0 0-5.119947-8.703909c10.239892-5.358877 22.015769-6.99726 33.296718-4.607952a10.581222 10.581222 0 0 1 7.167924 4.607952l-1.740781 4.095957z" fill="#685303" p-id="5474"></path><path d="M721.639356 696.398021c0.511995 5.119946 0.29013 8.703909-6.707129 5.597808a25.804529 25.804529 0 0 0-19.455796 0 15.786501 15.786501 0 0 1-11.485746 0.511995 29.183694 29.183694 0 0 0-22.305899-0.307197c-2.798904 1.023989-5.39301 1.809048-6.195135-2.303976 0-1.484784-0.29013-3.293832 1.297053-4.403154a37.307342 37.307342 0 0 1 25.889861-1.297053 23.893082 23.893082 0 0 0 15.359839-0.802125 29.354358 29.354358 0 0 1 23.602952 3.003702z" fill="#27639F" p-id="5475"></path><path d="M400.277397 676.396098a61.439355 61.439355 0 0 1 2.303976 26.691986 49.407481 49.407481 0 0 0-27.203981-1.023989 18.534205 18.534205 0 0 1-12.287871 0 39.423586 39.423586 0 0 0-23.790684 0c-7.696986 1.023989-2.303976-23.80775-2.303975-26.913851" fill="#2C6498" p-id="5476"></path><path d="M682.949629 440.178845c-5.119946 0-9.215903 4.607952-14.899044 3.071968a5.375944 5.375944 0 0 1-2.798903-3.071968c-0.307197-6.195135 3.071968-10.803087 9.215903-10.000962 10.291092 1.297053 20.292054-0.511995 30.480746 1.023989 3.310899 0.511995 6.70713 1.023989 7.901784 4.403154 1.501851 4.095957-2.303976 5.39301-4.403154 7.696986a1652.821045 1652.821045 0 0 0-25.514398-3.123167z" fill="#7E2F0E" p-id="5477"></path><path d="M708.532294 443.472677c5.39301-7.714052 4.403154-10.308158-5.39301-10.49589-4.403154 0-9.215903-3.310899-13.107063 1.484784-3.78876-3.293832-8.703909-1.297053-13.089996-2.303975a9.557233 9.557233 0 0 0-11.99774 7.901783c-2.303976-6.399933-0.511995-10.000962 5.39301-11.99774 5.597808-2.099178 12.595068-1.023989 16.708091-6.70713 1.023989-1.297053 2.781837-1.023989 4.095957 0.307197 4.215422 4.027691 9.744964 6.399933 15.581703 6.690063 3.805827 0.29013 6.911927 1.501851 7.167925 5.905005 0.853324 4.095957 0.853324 8.430845-5.358877 9.215903z" fill="#986C02" p-id="5478"></path><path d="M656.837903 696.090824l-1.023989 3.293832a89.650259 89.650259 0 0 1 0.307197-21.998702 3.071968 3.071968 0 0 0 1.297053 0.511995c14.591847-4.095957 29.183694 3.78876 43.792607-0.802125a22.920293 22.920293 0 0 1 20.479785 4.095957 7.901784 7.901784 0 0 1-0.511995 6.399933c-7.884717-2.798904-15.359839-8.499111-24.575742-2.611173a17.237152 17.237152 0 0 1-15.8889-0.494928c-8.191914-4.403154-15.359839-0.29013-22.613096 2.099178-3.071968 1.023989-2.286909 4.403154 0 6.690063 0.733859 1.31412-0.750925 2.013846-1.26292 2.81597z" fill="#AFB2B6" p-id="5479"></path><path d="M402.769104 695.800694a19.882458 19.882458 0 0 1-8.703908-0.802125 27.391712 27.391712 0 0 0-18.687804 1.023989 12.458536 12.458536 0 0 1-8.703909 1.02399 38.570262 38.570262 0 0 0-25.087736-0.802125 11.263882 11.263882 0 0 1-5.119947-0.290131v-3.071967a29.934619 29.934619 0 0 1 28.978896-0.307197 7.167925 7.167925 0 0 0 7.167925 0 28.364502 28.364502 0 0 1 26.691986-0.29013 2.850103 2.850103 0 0 0 3.071968-1.02399c0.273064 1.501851 0.409596 3.020768 0.392529 4.539686z" fill="#A4B2C1" p-id="5480"></path><path d="M544.045488 334.520221c-1.023989 0-4.095957 2.099178-5.119947 2.099178-2.303976 0-3.071968-2.099178-5.39301-2.099178a21.57204 21.57204 0 0 1-4.403154 0c-1.484784-0.511995-10.000962 0-10.990817-1.023989-0.29013-0.511995 1.023989-7.679919 0.802124-8.191914 0.511995-2.781837 5.39301-5.119946 3.583963-7.389789 2.321042-2.321042 0.511995-4.607952-0.494928-6.70713a7.406856 7.406856 0 0 1 3.310898-10.803087c2.781837-1.484784 5.39301-2.303976 7.67992 1.02399 2.321042 3.601029 7.167925 6.399933 1.023989 11.007884-2.286909 1.484784-0.494928 3.583962 0.511994 5.119946 0 2.099178-2.099178 4.403154 0.307197 6.195135 1.484784 1.023989 2.781837-0.307197 3.78876-1.023989 1.996779 4.061824 0 8.703909 5.393011 11.792943z" fill="#B79401" p-id="5481"></path><path d="M721.673489 681.481911a23.125091 23.125091 0 0 1-8.703909-1.484784 14.847844 14.847844 0 0 0-13.60199 0 23.551753 23.551753 0 0 1-17.885679 0.511994 22.015769 22.015769 0 0 0-19.711793 0.785059c-4.095957 2.303976-5.597808 1.023989-5.597808-3.293832 1.501851-2.303976 4.095957-2.099178 6.399933-2.303976h55.107688c3.754627-0.102399 5.751406 1.399452 3.993558 5.802606z" fill="#1F5E9B" p-id="5482"></path><path d="M336.670598 680.986983c9.386568-3.242633 19.609394-3.242633 29.013029 0 4.573819 1.297053 9.454834 0.938657 13.789722-1.023989a15.8377 15.8377 0 0 1 11.502812-1.02399c2.594106 1.023989 7.167925 2.099178 6.195135 5.119947-1.297053 4.095957-4.403154 0-6.707129-0.511995a10.922552 10.922552 0 0 0-7.884717-0.494928 30.429547 30.429547 0 0 1-25.394934 0 12.714533 12.714533 0 0 0-11.99774 1.297053 9.693765 9.693765 0 0 1-8.499111 1.501851v-4.863949z" fill="#ABB4BE" p-id="5483"></path><path d="M656.837903 696.090824c0.511995-1.023989 0.802125-2.099178 1.297053-3.293832a28.159704 28.159704 0 0 1 21.298977-2.099178c5.205279 2.201577 11.059084 2.389308 16.383828 0.511995a40.362243 40.362243 0 0 1 25.906928 1.279987v3.310898a390.651898 390.651898 0 0 0-64.886786 0.29013z" fill="#A8B7C6" p-id="5484"></path><path d="M394.57719 529.129377c-7.406856-4.403154-2.099178-6.399933 1.297053-9.215903 0.785058-0.511995 1.023989-1.501851 1.791982-2.303976h4.607951c-0.34133 5.563675-0.34133 11.144416 0 16.691025" fill="#B7610D" p-id="5485"></path><path d="M385.668484 539.932464c1.023989 3.071968-0.29013 6.70713 1.501851 9.693765a44.714197 44.714197 0 0 0-0.511995 15.905966c0.802125 3.071968-1.297053 3.601029-3.78876 4.095957-3.601029 0-4.607952-2.594106-4.898082-5.39301a99.736553 99.736553 0 0 1 0-19.694726c0.682659-4.095957 2.798904-7.167925 7.696986-4.607952z" fill="#CFCBC8" p-id="5486"></path><path d="M366.34922 423.77795a15.957166 15.957166 0 0 0 0.307197 3.618096c1.484784 8.499111-1.023989 10.990818-10.308159 9.693765a31.573002 31.573002 0 0 1-6.399932-7.696986c4.13009-4.898082 11.622278-1.996779 16.41796-5.614875z m13.601991 4.095957c-1.023989 3.310899-1.297053 8.191914-6.195135 7.406856-3.78876-0.511995-5.119946-4.095957-3.788761-7.884717 0.785058-2.798904-1.501851-3.071968-3.310898-3.310899 0-2.303976-0.29013-4.898082 2.611172-5.39301 2.099178-0.29013 3.071968 1.501851 3.293832 3.293832 0.511995 4.095957 6.092736 2.303976 7.423922 5.905005h-0.034132z" fill="#945409" p-id="5487"></path><path d="M344.896645 438.591661a6.434066 6.434066 0 0 1 4.881016-8.994038c4.403154 0.494928 5.39301 4.095957 6.399932 7.679919l-11.298014 1.314119z" fill="#9E2D11" p-id="5488"></path><path d="M391.778286 440.144712c-0.802125-0.511995-1.501851-1.297053-2.303975-1.297053-2.611173-0.29013-5.410077 0-6.399933-3.293832-1.023989-3.601029 1.791981-5.119946 4.095957-6.70713 4.607952 2.338109 9.011105 5.154079 4.607951 11.298015z" fill="#9D400E" p-id="5489"></path><path d="M538.857275 322.727278c0 2.099178 0 4.095957-2.798904 4.403154a3.925292 3.925292 0 0 1-4.403153-3.071968c-0.494928-2.798904-0.785058-5.39301 3.071967-6.195135 1.484784 1.535984 2.86717 3.1573 4.13009 4.863949z m-16.383828-4.898082c6.70713 0.307197 4.898082 3.805827 3.071968 7.696986a4.607952 4.607952 0 0 1-7.406855-1.297053c-0.273064-3.583962 2.286909-4.898082 4.334887-6.399933z" fill="#7C7F43" p-id="5490"></path><path d="M393.075339 453.797902c-3.071968 0-5.905005-0.307197-8.994039-0.511995a8.191914 8.191914 0 0 1 3.293833-7.167925c-1.706649 5.290611 3.583962 5.290611 5.700206 7.67992z" fill="#BDA600" p-id="5491"></path><path d="M576.352348 623.268122a25.923994 25.923994 0 0 0-12.287871-9.693765c-6.690063-1.791981-5.887938-9.693765-8.191914-14.899043-0.785058-1.484784 2.099178-3.293832 3.618096-1.791981 5.119946 4.403154 14.387049 4.095957 14.387049 13.806788 0 3.071968 3.071968 6.399933 5.597808 5.39301 2.798904-1.023989 2.303976-5.39301 0.511994-7.696986-3.310899-4.403154-4.915148-8.191914-1.023989-13.31186 1.484784-2.303976-0.802125-4.607952-2.611173-6.399933-2.099178-1.809048-3.583962 0-5.119946 1.297053-2.781837 2.303976-6.399933 3.293832-8.703909 0.802125-2.303976-2.508774 0-6.399933 1.31412-9.011105 2.099178-3.293832 5.119946 0 7.389789-0.29013 7.714052-0.511995 15.59877 0.802125 23.295755-0.290131 1.331186-0.580261 2.696505-1.023989 4.095957-1.314119 6.911927 0 13.31186 4.607952 20.99178 0.802125 3.310899-1.791981 6.911927 4.095957 3.805827 8.994039a9.215903 9.215903 0 0 0 0.511994 12.799865 4.915148 4.915148 0 0 1 1.02399 4.915149c-3.601029 10.990818 0 21.998702-0.802125 33.091919a54.95409 54.95409 0 0 1-8.703909 23.790683c-2.303976 3.805827-8.499111 5.39301-10.308158 10.803087 0 0.511995-0.785058 1.023989-1.02399 1.023989-8.994039 1.023989-17.203019 6.911927-26.691986 4.095957-0.29013 0-0.511995-0.29013-0.802125-0.29013-12.287871 1.791981-18.500072-9.011105-26.896784-14.404116-1.297053-0.802125-3.071968-2.303976-3.071968-3.071967 1.023989-9.215903-4.590885-16.895823-4.590885-26.401857 1.092255-7.799385 1.194654-15.701168 0.29013-23.551752-1.023989-3.583962-1.023989-5.39301 2.099178-5.39301 3.805827 0 4.607952-7.167925 8.191914-3.78876 3.310899 3.071968-1.791981 5.887938-2.781837 8.994038a9.710831 9.710831 0 0 0 0.785058 9.215904 4.932215 4.932215 0 0 0 6.195135 1.297053l19.506995 0.494928z" fill="#C29C04" p-id="5492"></path><path d="M518.360424 594.050296a28.176771 28.176771 0 0 1-14.387049-27.408779 27.30638 27.30638 0 0 1 15.359839-25.599731 23.346955 23.346955 0 0 1 29.985818 11.263881 30.787943 30.787943 0 0 1-11.485746 41.505698 22.2547 22.2547 0 0 1-19.455796 0.238931z" fill="#0359B7" p-id="5493"></path><path d="M491.275908 559.098129c-19.199798 0-50.994665 1.023989-50.806933-4.590885 0.511995-4.403154 2.594106-76.594396 10.000962-87.192684 4.095957-6.399933 46.079516-5.119946 51.506659 1.314119 3.071968 3.78876 17.407817 52.786646 1.023989 69.989666" fill="#6D5F03" p-id="5494"></path><path d="M507.369606 683.273892c-2.303976 3.78876-6.70713 3.78876-10.308158 5.597808-3.583962-0.802125-2.781837-3.601029-2.781838-5.905004V591.695121c0-2.303976-0.802125-5.39301 3.071968-5.597808 9.488967 11.997741 7.389789 26.401856 7.389789 40.498774v50.175474c0.119465 2.611173-0.170665 4.898082 2.628239 6.519398z" fill="#C2AB00" p-id="5495"></path><path d="M521.261727 667.862854a18.790203 18.790203 0 0 1-2.798904-9.693765c0-14.387049-0.29013-28.671699-0.29013-42.80275 0-2.781837-1.501851-6.690063 4.095957-6.690063a5.905005 5.905005 0 0 1 6.690063 6.690063c-0.29013 11.007884 0.802125 22.015769-0.511995 33.108985-0.068266 2.389308 0.102399 4.795683 0.511995 7.167925a11.775876 11.775876 0 0 1-5.39301 12.799866 2.389308 2.389308 0 0 1-2.303976-0.580261z" fill="#BBA501" p-id="5496"></path><path d="M598.351051 496.788384a5.922071 5.922071 0 0 1-1.297053-3.293832 41.983559 41.983559 0 0 1 0.511994-18.995001c2.781837-2.303976 6.178068-3.293832 8.482044-6.399933 2.099178 3.293832 4.403154 4.898082 8.191914 2.099178 2.303976-1.501851 5.905005-3.293832 8.191914-1.023989a6.928994 6.928994 0 0 1-1.023989 9.506034c-9.693765 9.488967-7.679919 19.694727-3.293832 30.992741a10.410557 10.410557 0 0 1-5.905005 13.31186c-8.703909 4.607952-8.703909 4.898082-3.293832 12.799866 2.303976 3.293832 1.023989 5.887938-1.297053 8.49911a61.831884 61.831884 0 0 1-7.406855-12.287871c-3.071968-5.410077 2.303976-7.696986 5.119946-10.803086-5.597808-1.809048-5.597808-1.809048-6.195135-5.905005" fill="#B57E96" p-id="5497"></path><path d="M598.658247 516.022315c1.791981 5.39301 7.679919 1.297053 10.990818 4.898082-2.389308 1.31412-4.607952 2.850103-6.690063 4.607952-2.798904 2.781837-3.310899 4.590885-0.307197 7.884717a15.359839 15.359839 0 0 1 4.607952 11.263882l-0.511995 10.000961c-4.898082 1.31412-7.696986-3.293832-11.99774-4.403154-2.303976-5.597808 3.601029-4.898082 5.905004-7.389789-2.611173-3.071968-11.007884 2.781837-10.018028-5.905004a11.07615 11.07615 0 0 1-0.785058-6.894861c1.791981-10.018028 1.484784-10.308158-8.499111-11.007885l-1.314119-4.095957c-1.791981-2.798904-4.403154-5.887938-1.02399-9.215903a12.270804 12.270804 0 0 1 13.601991-2.594106 13.99452 13.99452 0 0 1 6.041536 12.851065z" fill="#E173A5" p-id="5498"></path><path d="M598.351051 474.499551v19.199798c-6.399933 8.703909-9.693765 9.506034-19.199799 3.618096-2.303976-1.31412-4.607952-2.611173-7.167924-3.805827-2.559973-1.194654-3.805827-3.071968-1.484785-5.597808 2.594106-0.511995 5.887938 0.511995 7.167925-3.071968 1.484784-4.095957 4.590885-6.911927 6.382866-11.263881 1.023989-3.071968 7.714052-2.798904 12.014807-3.293832 1.484784 0.938657 3.293832 1.723715 2.28691 4.215422z" fill="#E56FA5" p-id="5499"></path><path d="M561.453305 496.600652h-0.290131a8.464978 8.464978 0 0 1-8.994038-5.119946c-0.511995-1.023989-1.023989-2.781837-1.809048-3.071968-6.195135-0.785058-7.167925-2.303976-5.597808-9.215903 1.023989-4.607952-0.511995-7.167925 5.39301-5.597808 1.297053 0.29013 2.303976-0.511995 3.293832-1.484784 1.297053-1.31412 2.611173-3.618095 4.915149-1.809048a3.362098 3.362098 0 0 1 0.785058 4.607952c-2.303976 4.095957 1.31412 6.178068 2.303976 9.215903" fill="#AA7489" p-id="5500"></path><path d="M589.305812 530.733627c-2.099178 0.494928-2.303976 2.099178-2.594106 3.788761-1.297053 11.007884-1.297053 11.007884-11.99774 8.191913a8.362579 8.362579 0 0 1-6.195135-3.805826c-1.297053-2.781837-2.303976-6.195135 3.071967-5.119946 5.39301 2.798904 5.887938-0.29013 5.39301-4.403154-0.511995-2.781837-2.099178-6.382866 1.297053-7.884717a12.10014 12.10014 0 0 1 10.803087-0.511995c6.161002 2.730638 1.075189 6.331667 0.221864 9.727898z" fill="#E173A5" p-id="5501"></path><path d="M595.24495 471.410517c-3.293832 0-5.597808 4.607952-9.488967 2.099178a0.870391 0.870391 0 0 0-1.023989 0.034133 0.853324 0.853324 0 0 0-0.290131 0.989856c2.099178 6.399933-3.583962 7.679919-6.894861 10.49589-1.501851-3.310899-5.119946-3.618095-7.696985-5.410077-1.501851-1.023989-3.293832-2.594106-2.611173-4.898082 0.511995-2.099178 2.611173-1.484784 4.403154-2.099178 7.714052-1.809048 15.905966-3.071968 17.919812-12.799865 1.877314 3.976492 4.181289 7.475122 5.68314 11.588145z" fill="#A96571" p-id="5502"></path><path d="M559.644257 513.001547c-0.511995 1.791981-1.023989 3.293832-1.297053 4.898082-1.023989 3.293832-1.809048 3.293832-5.119946 1.484784-6.195135-3.601029-5.597808-8.994039-5.905005-14.387049 0-3.071968 2.611173-2.611173 4.403154-2.303976 3.310899 0.29013 6.399933 0.785058 9.506033 1.297053 1.023989 2.099178-0.511995 3.293832-1.791981 4.095957-3.071968 1.843181-1.279987 3.327965 0.204798 4.915149z" fill="#A67C8D" p-id="5503"></path><path d="M571.761463 533.737329c-4.095957 1.023989-3.293832 3.293832-1.023989 5.39301 1.297053 1.023989 3.78876 1.023989 3.78876 3.293832-4.095957 7.406856-3.071968 5.905005-9.215903 1.297053-6.382866-4.881015-1.023989-8.703909-1.484785-13.089996-0.29013-1.484784 2.099178-1.791981 3.601029-1.791981 3.242633 0.597327 4.829816 1.89438 4.334888 4.898082z" fill="#AC6986" p-id="5504"></path><path d="M559.661324 513.018613c-2.099178-0.29013-4.915148 1.023989-5.39301-2.099178-0.511995-2.798904 1.791981-3.601029 4.095957-4.095957 1.484784-0.29013 2.303976-1.484784 3.071967-3.071967l1.297053-1.297053c3.78876 2.099178 7.406856-3.601029 11.263882-0.290131 1.023989 0.785058 3.293832 0 3.071968 2.28691 0 1.501851-1.809048 2.321042-3.293832 2.321042a22.015769 22.015769 0 0 0-12.595068 5.597808 7.099659 7.099659 0 0 1-1.535984 0.648526z" fill="#DB6D9F" p-id="5505"></path><path d="M561.453305 496.600652c-4.095957-3.071968-4.095957-8.994039-8.703909-11.792942-1.297053-0.802125-1.791981-1.809048-1.023989-3.071968 1.023989-1.297053 2.303976-0.802125 3.071968 0.29013a6.621797 6.621797 0 0 0 6.707129 2.611173c1.023989 1.484784 4.095957-0.307197 4.403154 2.594106a7.389789 7.389789 0 0 0 0.29013 3.601029c0.802125 1.809048 3.601029 2.798904 2.099178 5.410076-2.23571 3.174367-4.778616 0.358396-6.826595 0.358396z" fill="#DD6DA0" p-id="5506"></path><path d="M595.057219 550.428354c5.39301-2.594106 7.696986 3.805827 11.99774 4.403154 0 2.303976-0.802125 5.410077-3.293832 4.095957-3.293832-2.099178-10.820153-0.802125-8.703908-8.499111z" fill="#8B5765" p-id="5507"></path><path d="M507.164808 402.939769c-0.511995-0.494928-0.802125-2.082111-2.099178-1.484784-0.802125 0.307197-0.307197 1.297053-0.511994 2.099178-4.095957 8.499111-10.990818 10.018028-19.455796 4.403153-2.594106-5.597808 1.809048-6.690063 5.410076-8.191914a6.07567 6.07567 0 0 0 4.403154-5.39301c-1.023989-3.293832-3.618095-3.071968-6.399933-3.293832-1.809048 0-4.095957 0.802125-3.805826-2.303975-0.802125-4.403154-5.905005-6.399933-4.607952-12.287871 0.580261-3.601029 2.18451-6.980193 4.607952-9.693765a58.828182 58.828182 0 0 1 30.207682-7.696986c5.39301 0.29013 4.590885 3.78876 3.583963 7.389789-0.989856 3.618095-1.297053 5.905005 2.321042 7.901784 6.195135 3.293832-2.321042 6.690063 0 10.000961-0.307197 4.095957-3.805827 2.594106-5.905005 3.601029-2.798904 1.297053-6.894861 2.099178-4.403153 6.911928 3.754627 2.286909 8.26018 3.106101 12.595067 2.303975 3.293832 2.099178 2.303976 5.119946 2.303976 7.67992l-1.297053 1.501851c-0.051199-0.136532-16.947022-3.430364-16.947022-3.430364z" fill="#A91718" p-id="5508"></path><path d="M540.461525 388.057792a8.072449 8.072449 0 0 1-3.071968-14.096919 7.509254 7.509254 0 0 0 1.501851-6.911927c-0.802125-5.887938 2.082111-7.679919 7.389789-6.894861a25.207202 25.207202 0 0 1 22.59603 5.597808c1.023989 2.611173 4.403154 0.802125 5.614874 3.071968 3.293832 14.608913 3.293832 14.608913-10.308158 22.305899-4.403154 2.303976-4.898082 4.607952-0.290131 7.406855l2.099178 0.785059c3.293832 1.31412 9.693765-0.494928 6.894861 6.911927-2.798904 6.399933-8.499111 4.403154-13.31186 4.403154-4.403154-0.29013-5.119946-3.805827-5.597808-7.406856-0.307197-0.802125 0-2.303976-1.023989-2.303975-0.802125 0-1.023989 1.297053-1.809048 2.099178-0.29013 3.293832-3.78876 4.607952-4.898082 7.696985a12.287871 12.287871 0 0 1-13.584924-7.389789c-1.023989-2.321042-1.023989-4.403154 1.791982-5.614874a9.215903 9.215903 0 0 1 2.798904-0.511995c2.798904-0.29013 6.690063 0 7.696985-3.071967 1.399452-3.481563-3.686361-3.481563-4.488486-6.07567z" fill="#AA1819" p-id="5509"></path><path d="M428.966163 386.555941a10.239892 10.239892 0 0 1 4.095957-10.291092 11.46868 11.46868 0 0 1 13.31186-4.898082c2.935436 0.375463 5.905005 0.102399 8.703908-0.802125 6.911927-1.297053 13.601991-1.023989 16.895823 6.70713 0.511995 0.494928 1.501851 1.023989 1.501851 1.484784-1.809048 5.39301-1.023989 11.792943-5.597808 16.383828-3.310899 4.403154-1.809048 6.399933 3.071968 6.70713a11.059084 11.059084 0 0 1 5.119946 0.29013c3.583962 2.594106 3.583962 5.39301 0.494928 8.499111-5.905005 6.399933-7.406856 6.399933-17.902745-1.297053-2.303976 2.303976 0 7.406856-4.403154 8.191914a7.389789 7.389789 0 0 1-7.406856-2.611173l-1.023989-3.071967c-10.291092-1.297053-12.287871-5.597808-15.359839-14.387049l-1.50185-10.905486z" fill="#AA1719" p-id="5510"></path><path d="M597.053998 411.643678c-7.696986 4.607952-11.263882 4.42022-16.708092-1.279987-1.297053-8.191914-1.297053-8.499111 6.195135-6.399933 2.303976 0.802125 3.293832-1.023989 5.119947-1.809047a6.07567 6.07567 0 0 1 1.809047-1.02399c3.601029-1.791981 1.023989-4.403154-0.307197-4.898081-6.399933-2.781837-7.679919-8.994039-10.000961-14.387049a5.085813 5.085813 0 0 1-0.29013-2.099178 3.635162 3.635162 0 0 1 2.099177-2.303976 11.690544 11.690544 0 0 1 15.359839-6.911928c2.850103 0.63146 5.768473 0.904524 8.703909 0.802125a14.096919 14.096919 0 0 1 15.8889 6.399933c4.607952 3.805827 2.611173 9.693765 4.42022 14.404116 0.494928 1.297053-10.308158 8.499111-12.014807 8.191914a14.728379 14.728379 0 0 0-5.119947-0.511995c-2.594106 0-5.119946 0.511995-5.887938 3.310898-0.802125 2.594106 2.303976 3.583962 3.293832 5.393011 1.023989 2.099178 5.597808 0.785058 4.607952 3.583962a7.679919 7.679919 0 0 1-7.406856 5.119946c-2.611173 0-5.614874 1.023989-6.707129-2.577039a24.063747 24.063747 0 0 0-1.484785-3.310899c0-0.511995 0-1.023989-0.307196-1.023989-1.26292 0.34133-0.97279 1.143455-1.26292 1.348252z" fill="#A91718" p-id="5511"></path><path d="M572.956117 436.782614c8.191914 0.29013 9.693765 4.403154-1.484784 6.690063-8.703909 0-41.812894 2.321042-41.812894 2.321042-17.407817 0-46.079516-2.099178-47.871498-2.611172-9.506034-2.594106-11.007884-5.597808 5.597808-8.994039 7.679919-0.307197 24.080814-2.611173 42.290756-2.611173-0.017066 0.102399 43.280612 5.205279 43.280612 5.205279z" fill="#931B14" p-id="5512"></path><path d="M476.359798 359.147162a14.881977 14.881977 0 0 1 9.693765-15.103841 53.127975 53.127975 0 0 1 27.64771-1.023989 6.65593 6.65593 0 0 1 5.905004 6.399932c0.802125 4.095957 0 7.167925-4.403153 8.703909l-38.843326 1.023989z" fill="#FAC100" p-id="5513"></path><path d="M569.167357 365.803092a111.512429 111.512429 0 0 0-22.613096-5.614874c-1.023989-3.583962-6.894861-1.484784-7.389789-6.195135-0.802125-5.887938-1.501851-10.478823 7.167925-11.997741a31.521802 31.521802 0 0 1 30.002885 6.70713 11.212682 11.212682 0 0 1 3.78876 13.31186c-2.047978 5.119946-7.167925 3.293832-10.990818 3.78876h0.034133z m55.892747 12.10014a46.659777 46.659777 0 0 0-15.905967-6.399933 21.879237 21.879237 0 0 0-11.263882-2.594106c-6.399933 0.29013-7.696986-4.403154-6.195134-8.191914 1.501851-3.310899 0.802125-11.007884 8.703908-9.011105 6.65593 1.228787 13.243594 2.850103 19.694727 4.898082a17.424884 17.424884 0 0 1 11.007884 13.60199c1.143455 4.249555-0.648527 7.645786-6.092736 7.645787l0.0512 0.051199z m-178.378927-6.399933a47.154705 47.154705 0 0 0-13.311861 4.898082c-2.303976 0-5.119946 2.781837-6.399933-0.802125a9.81323 9.81323 0 0 1 1.02399-10.49589 25.75333 25.75333 0 0 1 18.995-11.263881 40.27691 40.27691 0 0 0 6.399933-1.297053c11.263882-2.099178 14.096919 1.297053 11.775876 13.089996-0.785058 3.601029-3.071968 3.293832-5.375943 3.293832a15.991299 15.991299 0 0 0-13.124129 2.52584v0.051199z" fill="#F9BF00" p-id="5514"></path><path d="M532.764539 367.048946c-0.511995 2.611173-0.307197 5.905005-4.607951 5.905005-3.583962 0-4.403154-2.099178-3.788761-4.898082 0.511995-3.293832 0.785058-6.894861 5.119947-6.894861 3.276766 0.29013 3.276766 3.071968 3.276765 5.887938z" fill="#B0AA83" p-id="5515"></path><path d="M537.850353 422.480897c-1.297053 6.70713-16.708091 6.70713-17.697948 0 2.303976-9.796164 16.383828-6.894861 17.697948 0z" fill="#A71817" p-id="5516"></path><path d="M558.364271 428.078705c-2.099178-4.403154-2.798904-3.293832 0-6.399933 4.590885-0.802125 10.990818-1.501851 13.31186 3.583963l-1.31412 2.321042a10.239892 10.239892 0 0 1-11.99774 0.494928z" fill="#218957" p-id="5517"></path><path d="M504.860832 403.264032c-1.501851-1.023989-3.601029-2.303976-2.303976-4.607951a2.116244 2.116244 0 0 1 2.303976-1.023989c2.781837 0.802125 2.781837 3.071968 2.099178 5.410076a13.550791 13.550791 0 0 0-2.099178 0.221864z" fill="#B87875" p-id="5518"></path><path d="M551.196346 402.666705c-0.511995-2.303976-1.023989-4.403154 1.023989-6.195135 0.29013-0.29013 1.484784 0 1.791981 0.290131a4.095957 4.095957 0 0 1 0 5.905004h-2.81597z" fill="#B6827C" p-id="5519"></path><path d="M528.856314 359.386093c-1.809048 0-2.303976-1.31412-2.303976-2.798904 0-0.511995 0-1.297053 0.511994-1.501851a2.23571 2.23571 0 0 1 1.484785-0.802125c1.501851 0 3.071968 0.307197 2.798904 2.303976a3.174367 3.174367 0 0 1-2.491707 2.798904z" fill="#B0AA83" p-id="5520"></path><path d="M597.053998 411.660744c-1.501851-2.099178-2.303976-3.78876 0.511994-5.39301 0.494928-0.29013 2.082111 0 2.28691 0.802125 1.809048 2.303976-1.023989 3.071968-2.099178 4.607952h-0.699726z" fill="#A36F6F" p-id="5521"></path><path d="M684.74161 480.421622c10.308158 0.29013 11.502813 6.690063 10.49589 14.899044-0.255997 3.225566-0.255997 6.468199 0 9.693765 0 11.263882-0.802125 11.997741-11.997741 12.595067l-10.000961-0.511994v-25.889862c-0.307197-11.792943-0.307197-11.792943 11.502812-10.78602z" fill="#DADADA" p-id="5522"></path><path d="M702.439558 540.97352l-2.594106-0.290131c-0.511995-1.809048-1.31412-3.310899-3.310899-3.618095-7.406856-1.023989-3.78876-5.597808-3.071968-9.215903 1.297053-5.119946 4.607952-3.78876 7.901784-2.286909 2.798904 1.023989 4.607952 2.286909 3.071968 5.887938-0.989856 2.781837-1.194654 6.3658-1.996779 9.5231z" fill="#C19405" p-id="5523"></path><path d="M720.837231 538.140483c0.085332 1.979713-0.068266 3.959425-0.511994 5.887938a4.710351 4.710351 0 0 1-2.28691 2.798904 2.833037 2.833037 0 0 1-2.303976-0.802125c0-4.881015-7.406856-5.119946-6.399932-9.215903a8.738042 8.738042 0 0 1 8.994039-5.119946c3.140234 0.238931 3.618095 3.379165 2.508773 6.451132z" fill="#C08E05" p-id="5524"></path><path d="M656.035778 535.034382a18.431806 18.431806 0 0 1-9.693765-10.820153 1.535984 1.535984 0 0 1 0-1.501851 1.570117 1.570117 0 0 1 1.297053-0.802125 4.181289 4.181289 0 0 1 4.607952 1.02399c2.303976 3.310899 4.095957 5.614874 7.406856 1.023989a1.26292 1.26292 0 0 1 1.962646-0.170665c0.170665 0.204798 0.29013 0.426662 0.341329 0.682659 0.785058 2.594106-0.802125 4.607952-1.809047 6.894861a4.334888 4.334888 0 0 1-4.095957 3.652229z" fill="#BF8207" p-id="5525"></path><path d="M689.827423 522.712378c-1.484784 3.071968-4.095957 4.607952-3.78876 7.696986 0 1.501851-0.29013 3.310899-2.303976 3.071968-1.484784-0.29013-2.099178-1.791981-2.303975-3.293832-1.092255-6.485265 0.682659-8.464978 8.413778-7.475122z" fill="#C08D06" p-id="5526"></path><path d="M668.647913 522.234517a8.021249 8.021249 0 0 1 1.484784 10.291091 1.911447 1.911447 0 0 1-1.791981 0c-2.594106-3.140234-1.791981-6.212201 0.307197-10.308158z" fill="#C08A06" p-id="5527"></path><path d="M695.049769 648.355859c-5.597808 0.307197-11.263882 0.307197-17.20302 0.511995-3.310899 0-5.119946-0.802125-5.119946-4.607952V595.279083a4.215422 4.215422 0 0 1 2.594106-4.095957 92.159032 92.159032 0 0 1 18.192876 7.696986" fill="#DADADA" p-id="5528"></path><path d="M707.064576 637.655171c0 11.792943 0 11.792943-12.014807 10.803087 0.614394-16.383828 0.170665-32.801789-1.297053-49.151484 4.642085 0.546128 9.045238 2.321042 12.799865 5.119946l0.511995 33.228451z" fill="#C2C0BE" p-id="5529"></path><path d="M375.377392 648.355859c-21.998702 1.023989-21.998702 1.023989-22.305899-20.99178 0-7.696986-0.29013-15.59877-0.290131-23.551752 3.601029-4.095957 9.693765-3.071968 13.806789-6.195135 9.693765-1.501851 10.990818-0.802125 10.990818 8.703908 0.29013 10.990818 0 22.305899 0 33.296717a11.007884 11.007884 0 0 1-2.201577 8.738042z" fill="#D9D9D9" p-id="5530"></path><path d="M363.379651 579.64618c-10.49589 2.781837-10.803087 2.594106-10.803086-8.703908V551.930205c0-6.399933 2.303976-10.49589 9.215903-10.803087 15.59877-1.809048 15.905966-1.809048 15.598769 14.096919 0 6.399933 1.791981 12.799866-2.303975 18.687804a649.379848 649.379848 0 0 1-11.707611 5.717273z" fill="#D8D6D6" p-id="5531"></path><path d="M375.377392 648.355859c0-14.096919-0.29013-27.886641 0.29013-41.795828 0.307197-7.389789-2.286909-9.693765-8.994039-8.703908 4.573819-2.628239 9.488967-4.607952 14.608914-5.887939a9.062305 9.062305 0 0 1 2.303975 7.406856v41.3009a10.239892 10.239892 0 0 1-2.099178 7.679919h-6.109802z" fill="#ADACAC" p-id="5532"></path><path d="M497.317445 428.573633a13.465459 13.465459 0 0 1-11.263882-2.798904 9.86443 9.86443 0 0 1 12.799866-3.78876c1.911447 1.194654-0.511995 5.39301-1.535984 6.587664z" fill="#1A895C" p-id="5533"></path><path d="M360.478348 518.906551c-4.403154 0.29013-6.195135-1.809048-5.905004-6.399932 0.29013-8.703909 0.29013-17.203019 0-25.889862 0-3.805827 1.501851-4.898082 5.119946-5.119946 15.59877-1.023989 15.59877-1.023989 15.598769 14.591847-0.153598 2.730638-0.153598 5.461276 0 8.191914a10.751887 10.751887 0 0 1-7.406855 13.31186 9.608432 9.608432 0 0 1-7.406856 1.314119z" fill="#D9D9D9" p-id="5534"></path><path d="M350.289655 525.818479a6.468199 6.468199 0 0 1 5.119947 2.321042c1.297053 2.099178 0.29013 3.583962-1.31412 5.119946a8.362579 8.362579 0 0 0-2.099178 2.099178c-1.297053 1.791981 1.023989 6.894861-3.583962 5.39301-4.42022-1.501851-4.898082-6.894861-5.119947-10.803086-0.204798-3.618095 4.147156-3.089034 6.99726-4.113024z" fill="#C08D06" p-id="5535"></path><path d="M386.675407 520.118272c1.791981 5.119946-1.297053 8.703909-3.601029 12.595068-1.31412 2.099178-3.310899 3.310899-5.410077 0.802125-2.303976-2.798904-5.39301-6.195135-4.403154-9.693765 1.31412-3.805827 3.618095-0.802125 5.614875 0.511994 5.205279 3.481563 4.198356-4.215422 7.799385-4.215422z" fill="#B8710E" p-id="5536"></path><path d="M369.967315 536.331435a8.294313 8.294313 0 0 1-6.894861 0c-4.607952-2.099178-4.403154-6.195135-4.095957-10.308158 0-1.297053-0.29013-3.601029 1.501851-3.601029 4.403154-0.307197 3.071968 4.403154 4.590885 6.399933 1.877314 2.321042 3.532763 4.846882 4.898082 7.509254z" fill="#BD7C09" p-id="5537"></path><path d="M423.078224 456.613872c0.511995-3.583962 3.293832-2.781837 5.597808-2.781837h92.295564c4.881015 0 6.399933 1.791981 6.399933 6.382866-0.307197 21.008846 0 41.983559 0 63.299602 0 3.601029-0.511995 5.597808-4.915148 6.690063-6.041537 1.911447-11.946541 4.215422-17.697948 6.911928-3.78876 0.29013-5.887938-0.802125-5.887938-5.410077a121.27446 121.27446 0 0 1 2.594106-28.671699c1.297053-4.881015 2.798904-10.990818-3.78876-15.086775-3.310899-2.099178 3.293832-5.614874 1.297053-9.011105-2.099178-3.071968-5.39301-2.303976-8.191914-2.594106-3.601029-0.511995-6.70713-1.023989-6.195135-6.195135 0.29013-6.195135-4.898082-6.70713-9.506033-6.911928-4.607952-0.204798-7.696986 1.809048-6.894861 7.167925a4.898082 4.898082 0 0 1-1.809048 4.607952c-4.403154 2.303976-9.506034-1.023989-13.60199 2.303976a13.772655 13.772655 0 0 0 0.802124 7.167924c1.297053 2.594106 0 3.293832-2.303975 4.898082a8.482044 8.482044 0 0 0-2.798904 12.799866c3.583962 5.05168 5.05168 11.280948 4.095957 17.407817v16.895823c-10.291092-1.31412-6.690063 6.382866-7.406856 10.990818-0.785058 5.887938 2.099178 7.167925 7.406856 6.89486 4.898082-0.29013 10.018028 0 14.899043 0 6.621797 1.706649 13.499592 2.201577 20.30912 1.501851 2.781837 0.29013 6.178068-1.023989 6.690063 3.601029a6.502332 6.502332 0 0 1-5.119946 7.696986c-3.993558 1.194654-8.123648 1.877314-12.287871 2.099178-15.103841 0-30.207683-0.29013-45.396856 0-6.399933 0-8.703909-1.791981-8.703909-8.499111 0.307197-13.089996 0-26.111726 0-39.491852 0.119465-21.060046 0.119465-42.85395 0.119465-64.664921z" fill="#AB1519" p-id="5538"></path><path d="M457.671994 654.56806l-0.802124-83.096727c10.000962 1.023989 10.49589 1.297053 10.495889 11.007884v103.764244a3.293832 3.293832 0 0 1-3.293832 3.805827c-3.071968 0-3.805827-1.297053-3.805826-4.095957v-25.394934c-0.34133-2.18451 1.194654-5.000481-2.594107-5.990337z" fill="#9E1717" p-id="5539"></path><path d="M492.760693 690.168753l-3.071968 1.484785c-7.884717 1.023989-8.191914 1.023989-8.191914-6.690063v-105.470893a10.239892 10.239892 0 0 1 2.303976-8.499111c5.614874-1.023989 7.696986 1.023989 7.696986 7.167925-0.29013 33.296717 0 66.559301 0 100.180281-0.085332 3.993558 0.34133 7.952983 1.26292 11.827076z" fill="#9F2115" p-id="5540"></path><path d="M452.773913 687.062653a8.106582 8.106582 0 0 1-4.607952-8.191914c0.307197-32.767656 0-65.586511 0-98.678431v-3.601029c0.307197-2.303976 1.297053-3.805827 3.601029-3.601029 2.321042 0.170665 2.321042 2.303976 2.321042 4.095957 0 5.887938-0.307197 11.997741 0 17.680881 1.297053 16.708091 0 33.296717 0 50.004809a11.093217 11.093217 0 0 0 3.071968 9.506033v28.193837c0 3.089034-0.29013 5.700207-4.386087 4.607952z" fill="#C4AD00" p-id="5541"></path><path d="M468.475081 553.227258c-0.085332-1.706649 0.085332-3.44743 0.494928-5.119946 0.511995-3.293832-1.809048-8.703909 4.095957-9.215904 7.167925-0.802125 9.693765 2.303976 10.000962 10.000962 0.051199 1.484784 0.221864 2.952502 0.511994 4.403154a17.407817 17.407817 0 0 1-15.120907-0.068266z" fill="#133DC3" p-id="5542"></path><path d="M470.796123 691.465806v-112.792415c0-3.293832-0.29013-6.690063 4.607952-6.399933 4.590885 0 4.095957 3.293832 4.095957 6.195135v114.294266l-4.095957 0.802125-4.607952-2.099178z" fill="#C3B000" p-id="5543"></path><path d="M533.259467 689.690892c2.594106 6.399933 5.597808 1.297053 8.703909 0.29013 3.44743-0.068266 6.894861 0.085332 10.308158 0.511994 3.293832 0.802125 3.78876 2.798904 1.02399 5.119947a11.946541 11.946541 0 0 1-7.406856 3.071967c-5.597808 0-11.792943-2.611173-15.905966 4.403154-0.802125 1.023989-2.303976-3.805827-3.071968-5.39301-0.802125-1.023989-6.195135 3.071968-14.096919 3.071968-3.293832-1.023989-6.894861-7.167925-0.511994-9.710831 3.310899-0.29013 16.383828 2.303976 16.110764-1.02399a4.095957 4.095957 0 0 1 4.846882-0.341329z" fill="#2A6355" p-id="5544"></path><path d="M524.282495 334.537287c-2.303976-6.195135 3.071968-4.898082 5.905005-5.905004h1.297053c3.293832 3.310899 3.583962 5.905005-2.303976 5.905004h-4.898082z" fill="#1F63A5" p-id="5545"></path><path d="M445.861985 395.25985h2.303976c2.798904 0.307197 7.167925-0.785058 7.167925 2.798904 0 3.293832-1.023989 7.901784-6.399933 7.901783a6.758329 6.758329 0 0 1-7.167925-4.403153c-1.31412-3.49863 2.594106-4.198356 4.095957-6.297534z" fill="#A68503" p-id="5546"></path><path d="M580.653103 640.96607a10.922552 10.922552 0 0 1-1.297053 6.399933 9.659632 9.659632 0 0 0 0 12.287871c1.058122 1.962646 1.518917 4.181289 1.297053 6.399932 0 2.303976 0.29013 4.607952-2.303976 5.597808a4.556752 4.556752 0 0 1-5.905004-1.484784 14.694246 14.694246 0 0 0-8.191914-4.607952c-2.303976-1.023989-5.597808-0.785058-5.597808-4.590885a8.60151 8.60151 0 0 1 4.403154-9.506033c6.399933-2.303976 10.803087-5.119946 11.99774-11.997741 0.307197-1.484784 2.303976-4.403154 4.898082-3.601029 1.791981 0.716792 0.494928 3.515696 0.68266 5.119946z" fill="#AD1E17" p-id="5547"></path><path d="M587.855161 635.880257c5.39301 2.303976 1.297053 9.506034 5.39301 11.792942 4.095957 2.303976 9.215903 2.303976 12.287871 6.195135a7.065526 7.065526 0 0 1-3.293832 11.792943c-3.327965 0.853324-6.451132 2.355175-9.215903 4.403154-5.119946 3.310899-9.506034 1.501851-7.696986-3.583962 4.095957-10.308158 0.29013-20.01899 1.501851-30.019952 0.273064-0.375463 0.511995-0.375463 1.023989-0.58026z" fill="#AD1D17" p-id="5548"></path><path d="M589.135147 621.954003c2.218643-3.618095 5.563675-6.382866 9.506034-7.901784a9.386568 9.386568 0 0 0 7.714052-9.488967c0-2.303976 1.791981-3.805827 3.293832-5.597808 1.484784-1.809048 2.798904-5.410077 5.39301-3.618095 2.303976 1.501851-0.802125 3.805827-1.023989 5.905005-0.802125 4.095957-1.791981 8.191914 2.099178 11.792942 2.303976 2.303976 1.023989 4.607952-0.29013 6.690063-1.31412 2.303976-4.095957 4.915148-5.905005 3.310899-7.167925-5.614874-13.601991-0.511995-20.30912 0l-0.494928-0.511995 0.034133-0.58026z" fill="#AD1F17" p-id="5549"></path><path d="M609.956262 589.647142a18.141676 18.141676 0 0 1-10.000962 11.263882 9.215903 9.215903 0 0 0-7.696985 9.5231c0 2.594106-1.809048 5.887938-5.119947 4.403154-2.611173-1.023989-2.303976-4.403154-1.023989-6.399933a13.721456 13.721456 0 0 0 0.785059-13.31186c-1.484784-4.403154 2.303976-7.901784 6.195135-5.410077a17.305418 17.305418 0 0 0 16.861689-0.051199z" fill="#AE2117" p-id="5550"></path><path d="M557.357348 629.360858c6.143935 1.706649 12.629201 1.60425 18.70487-0.29013a12.10014 12.10014 0 0 1-6.399933 6.690063 14.335849 14.335849 0 0 0-10.803086 12.287871 4.727417 4.727417 0 0 1-6.195135 3.805827c-3.071968-1.023989-2.303976-4.095957-1.501851-6.399933 0.802125-2.798904 2.321042-5.597808 0-8.191914 0 0.102399 6.195135-7.901784 6.195135-7.901784z" fill="#AD2017" p-id="5551"></path><path d="M616.339128 634.088275a17.595549 17.595549 0 0 0-1.791981 16.383828c0.29013 1.023989-1.023989 2.082111-2.303976 2.28691-2.798904 0-5.39301-1.484784-5.39301-3.788761a14.079852 14.079852 0 0 0-11.502812-14.096918c-1.809048-0.511995-4.095957-2.303976-3.293832-4.403154 1.023989-2.611173 3.293832-0.511995 5.119946 0 3.857026 0.273064 7.731119-0.085332 11.485746-1.023989 3.327965-0.767992 7.099659-0.563194 7.679919 4.642084z" fill="#AE2217" p-id="5552"></path><path d="M589.135147 621.988136c0 0.29013 0.307197 0.802125 0.307197 1.023989-1.023989 9.506034-3.78876 10.990818-13.31186 5.905005v-5.905005c4.027691-3.549829 8.123648-5.956204 13.02173-1.023989z" fill="#368F53" p-id="5553"></path><path d="M464.549789 510.424507c1.809048 2.798904 3.037835 5.939138 3.618095 9.215903 0.307197 4.898082-1.484784 7.389789-6.399933 7.167925-7.696986-1.501851-3.805827-7.696986-4.403153-11.792943-0.204798-5.085813 3.583962-4.898082 7.202057-4.607951z" fill="#183B9F" p-id="5554"></path><path d="M489.961789 526.825402l-5.39301-0.511995c0-2.781837-0.511995-5.887938-0.511995-8.703909 0-3.293832 0.802125-5.887938 4.607952-6.195135a5.563675 5.563675 0 0 1 6.399932 4.898082c0 3.822893 0.802125 8.703909-5.119946 10.512957z" fill="#0C34AB" p-id="5555"></path><path d="M491.258842 499.416623c-3.071968 0-3.805827-2.303976-4.095957-4.403154 0-2.303976 0-5.39301 2.798904-5.905005 3.293832-0.511995 4.607952 2.099178 5.119946 5.119947 0.785058 2.884236-1.331186 4.181289-3.822893 5.188212z" fill="#9F8D00" p-id="5556"></path><path d="M458.457053 488.408738a5.495409 5.495409 0 0 1 4.403154 4.607952c0.307197 2.303976 0.511995 4.607952-2.594106 5.119946-2.594106 0.29013-3.293832-1.809048-3.293833-3.805826 0.204798-2.116244-0.102399-4.42022 1.484785-5.922072z" fill="#A18F00" p-id="5557"></path><path d="M474.875014 491.907368c1.791981 0 3.071968 0.802125 3.071968 2.303976 0 2.099178-0.511995 4.403154-2.798904 4.403154-1.809048 0-2.303976-2.303976-2.611173-3.805827-0.563194-1.60425 0.511995-2.611173 2.338109-2.901303z" fill="#AD9900" p-id="5558"></path><path d="M540.956453 551.742473c1.023989 1.023989 2.303976 1.484784 2.798904 2.594106 1.501851 3.293832 5.119946 7.696986 4.095957 9.506034a24.831739 24.831739 0 0 0-4.607951 8.994039c0 0.511995-2.286909 1.297053-3.293832 1.023989-5.887938-1.297053-5.39301-7.406856-6.399933-10.990818-0.597327-3.430364 3.618095-8.055382 7.406855-11.12735z" fill="#918D1A" p-id="5559"></path><path d="M530.153367 570.942272c3.071968 2.099178 3.618095 6.399933 5.410076 9.215903 2.594106 4.403154-2.611173 8.499111-4.915148 12.595068-1.023989 1.809048-4.898082 0.511995-5.39301-1.501851-1.023989-4.095957-6.70713-8.703909-0.307197-12.799866a5.597808 5.597808 0 0 0 2.099178-4.403154c0.307197-1.60425 0.597327-2.81597 3.106101-3.1061z" fill="#898314" p-id="5560"></path><path d="M525.545415 547.834248c0 8.499111 0 20.30912-6.690063 19.694726-3.293832-0.29013-2.798904-3.78876-4.095957-5.119946-8.191914-6.604731 6.690063-20.684583 10.803087-14.591847" fill="#657234" p-id="5561"></path><path d="M540.956453 686.397059c-2.303976 2.798904-12.287871 2.594106-18.70487 1.791982-3.78876-0.494928-4.607952-8.703909-1.023989-10.000962 6.007404-2.508774 12.629201-3.140234 18.995-1.791981 1.023989 4.095957 3.037835 6.092736 0.733859 10.000961z" fill="#D6B37C" p-id="5562"></path><path d="M527.66166 687.386916a18.960868 18.960868 0 0 1 1.023989-11.997741c2.594106-0.802125 3.071968 1.791981 4.403154 2.781838 2.798904 3.805827 1.297053 7.714052 0.511994 11.502812l-4.607951 0.307197-1.331186-2.594106z" fill="#822C24" p-id="5563"></path><path d="M594.050296 504.314705c2.611173-1.791981 2.611173-5.119946 4.403154-7.696986 5.119946-1.501851 5.119946-5.39301 4.095957-9.506034a10.803087 10.803087 0 0 1-0.290131-7.884717 5.205279 5.205279 0 0 1 6.195135-3.310898c3.071968 1.023989 2.099178 3.310899 1.484785 5.410076-1.331186 7.28739-1.160521 14.762512 0.511994 21.981636 2.303976 13.107062 0.802125 14.404115-11.502812 12.287871a26.726119 26.726119 0 0 1-4.898082-11.263882z" fill="#D7D4D5" p-id="5564"></path><path d="M581.762425 399.168075h-2.303976c-3.805827 0-7.167925-0.29013-6.70713-5.39301a3.583962 3.583962 0 0 1 3.618096-3.566896c0.614394 0 1.245854 0.170665 1.774914 0.494929 3.071968 1.484784 8.191914 3.071968 4.607952 8.49911-0.34133-0.34133-0.802125-0.034133-0.989856-0.034133z" fill="#B08D03" p-id="5565"></path><path d="M524.265429 393.962797v-2.798904c2.099178 0 4.095957-2.594106 6.195134 0a2.116244 2.116244 0 0 1 0.34133 2.611172 2.150377 2.150377 0 0 1-0.648526 0.68266c-1.996779 1.791981-4.095957 0.597327-5.887938-0.494928z" fill="#A91718" p-id="5566"></path></svg>