<svg width="30" height="30" viewBox="0 0 30 30" fill="none" xmlns="http://www.w3.org/2000/svg">
<g id="facebook-icon">
<path id="&#232;&#183;&#175;&#229;&#190;&#132;" d="M15 0C23.2843 0 30 6.71574 30 15C30 23.2843 23.2843 30 15 30C6.71574 30 0 23.2843 0 15C0 6.71574 6.71574 0 15 0Z" fill="#1877F2"/>
<path id="&#232;&#183;&#175;&#229;&#190;&#132;_2" d="M16.8082 29.8742V18.3197H20.0265L20.4531 14.2531H16.8082L16.8136 12.2175C16.8136 11.1569 16.9132 10.5888 18.4184 10.5888H20.4306V6.52148H17.2115C13.3448 6.52148 11.9841 8.49414 11.9841 11.812V14.2534H9.57373V18.3204H11.9841V29.7104C12.9231 29.8997 13.8939 29.9997 14.8879 29.9997C15.53 29.9998 16.1714 29.9578 16.8082 29.8742Z" fill="white"/>
</g>
</svg>
