<svg width="48" height="45" viewBox="0 0 48 45" fill="none" xmlns="http://www.w3.org/2000/svg">
<g clip-path="url(#clip0_2042_2180)">
<path d="M25.0933 40.91H9.76533C9.29702 40.9096 8.848 40.7233 8.51697 40.3921C8.18595 40.0608 8 39.6116 8 39.1433V10.6766C8 9.70064 8.79067 8.90997 9.76667 8.90997H38.2333C39.2093 8.90997 40 9.70064 40 10.6766V39.1433C40 40.1193 39.2093 40.91 38.2333 40.91H30.08V28.518H34.24L34.8613 23.6886H30.08V20.6033C30.08 19.206 30.4667 18.2526 32.4733 18.2526H35.0307V13.9326C34.588 13.8726 33.0707 13.742 31.304 13.742C27.616 13.742 25.092 15.9926 25.092 20.126V23.686H20.9227V28.5166H25.092V40.91H25.0933Z" fill="white"/>
</g>
<defs>
<clipPath id="clip0_2042_2180">
<rect width="32" height="32" fill="white" transform="translate(8 8.90997)"/>
</clipPath>
</defs>
</svg>
