<svg width="28" height="29" viewBox="0 0 28 29" fill="none" xmlns="http://www.w3.org/2000/svg">
<path d="M9.33103 5.41113C9.75488 5.41113 10.1454 5.64016 10.3511 6.0094L11.7782 8.57089C11.965 8.90628 11.9738 9.31194 11.8016 9.65505L10.4268 12.3949C10.4268 12.3949 10.8252 14.436 12.4926 16.0974C14.16 17.7589 16.2015 18.149 16.2015 18.149L18.9507 16.7794C19.2953 16.6076 19.7027 16.6165 20.0394 16.8031L22.6173 18.2312C22.9875 18.4363 23.2171 18.8252 23.2171 19.2473V22.1963C23.2171 23.6981 21.8172 24.7827 20.3891 24.3026C17.4562 23.3165 12.9034 21.4389 10.0178 18.5635C7.1321 15.6881 5.24782 11.1516 4.25817 8.22905C3.77632 6.80608 4.86488 5.41113 6.37201 5.41113H9.33103Z" stroke="#FF0000" stroke-width="2.33333" stroke-linejoin="round"/>
<path opacity="0.01" d="M23.9167 4.43121H16.3333V11.9876H23.9167V4.43121Z" fill="#FF0000"/>
<path d="M22.75 5.59375L17.5 10.8251" stroke="#FF0000" stroke-width="2.33333" stroke-linejoin="round"/>
<path d="M17.5 5.59375L22.75 10.8251" stroke="#FF0000" stroke-width="2.33333" stroke-linejoin="round"/>
</svg>
