<svg width="20" height="20" viewBox="0 0 20 20" fill="none" xmlns="http://www.w3.org/2000/svg">
<path d="M2.08325 3.33333C2.08325 2.8731 2.45635 2.5 2.91659 2.5H17.0833C17.5435 2.5 17.9166 2.8731 17.9166 3.33333V13.3333C17.9166 13.7936 17.5435 14.1667 17.0833 14.1667H2.91659C2.45635 14.1667 2.08325 13.7936 2.08325 13.3333V3.33333Z" stroke="#333333" stroke-width="1.66667" stroke-linejoin="round"/>
<path d="M2.08325 10.8333C2.08325 10.3731 2.45635 10 2.91659 10H17.0833C17.5435 10 17.9166 10.3731 17.9166 10.8333V13.3333C17.9166 13.7936 17.5435 14.1667 17.0833 14.1667H2.91659C2.45635 14.1667 2.08325 13.7936 2.08325 13.3333V10.8333Z" stroke="#333333" stroke-width="1.66667" stroke-linejoin="round"/>
<path d="M9.16667 5L7.5 7.08333" stroke="#333333" stroke-width="1.66667" stroke-linejoin="round"/>
<path d="M11.6667 5.83331L10.4167 7.49998" stroke="#333333" stroke-width="1.66667" stroke-linejoin="round"/>
<path d="M10.0001 12.9167C10.4603 12.9167 10.8334 12.5436 10.8334 12.0833C10.8334 11.6231 10.4603 11.25 10.0001 11.25C9.53984 11.25 9.16675 11.6231 9.16675 12.0833C9.16675 12.5436 9.53984 12.9167 10.0001 12.9167Z" fill="#333333"/>
<path d="M7.08325 14.1667L5.83325 17.5H14.1666L12.9166 14.1667" stroke="#333333" stroke-width="1.66667" stroke-linejoin="round"/>
</svg>
