<svg width="30" height="30" viewBox="0 0 30 30" fill="none" xmlns="http://www.w3.org/2000/svg">
<g id="instagram-icon">
<path id="&#232;&#183;&#175;&#229;&#190;&#132;" d="M7.60722 29.8939C5.8231 29.8128 4.85392 29.5159 4.20929 29.2644C3.35513 28.9319 2.74616 28.536 2.10509 27.8958C1.46402 27.2556 1.06726 26.6467 0.73647 25.7925C0.485036 25.1479 0.18813 24.1787 0.106993 22.3946C0.0178322 20.466 0 19.8874 0 15.0013C0 10.1153 0.0196154 9.53755 0.106102 7.60722C0.187238 5.8231 0.485927 4.85571 0.735578 4.20929C1.06815 3.35513 1.46492 2.74616 2.1042 2.1042C2.74438 1.46402 3.35334 1.06637 4.2084 0.735578C4.85303 0.484144 5.82221 0.187238 7.60632 0.106102C9.53577 0.0178322 10.1153 0 14.9996 0C19.8856 0 20.4633 0.0196154 22.3937 0.106102C24.1778 0.187238 25.1452 0.485927 25.7916 0.735578C26.6458 1.06637 27.2547 1.46402 27.8958 2.1042C28.5369 2.74438 28.9319 3.35424 29.2644 4.2084C29.5159 4.85303 29.8128 5.82221 29.8939 7.60632C29.9822 9.53666 30 10.1144 30 15.0004C30 19.8847 29.9822 20.4642 29.8939 22.3946C29.8128 24.1787 29.5141 25.1479 29.2644 25.7925C28.9319 26.6467 28.536 27.2556 27.8958 27.8958C27.2556 28.536 26.6458 28.9319 25.7916 29.2644C25.147 29.5159 24.1778 29.8128 22.3937 29.8939C20.4651 29.9822 19.8856 30 14.9996 30C10.1153 30 9.53577 29.9831 7.60722 29.8939Z" fill="url(#paint0_radial_129_859)"/>
<path id="&#229;&#189;&#162;&#231;&#138;&#182;" fill-rule="evenodd" clip-rule="evenodd" d="M7.73121 4.50313C8.43924 4.22762 9.24998 4.0395 10.4364 3.98546H10.4369C11.6259 3.93054 12.0065 3.91797 15.0327 3.91797C18.0589 3.91797 18.4386 3.93116 19.6272 3.98546C20.8127 4.0386 21.623 4.22762 22.3324 4.50313C23.0643 4.78765 23.6865 5.16836 24.3058 5.78866C24.9251 6.40895 25.306 7.03013 25.5913 7.76295C25.8668 8.47097 26.055 9.28163 26.109 10.4682C26.163 11.6565 26.1756 12.0364 26.1756 15.0631C26.1756 18.0898 26.163 18.4688 26.109 19.658C26.0558 20.8445 25.8668 21.6548 25.5913 22.3632C25.306 23.0961 24.9261 23.7182 24.3058 24.3375C23.6855 24.9568 23.0643 25.3377 22.3315 25.6231C21.623 25.8986 20.8128 26.0867 19.6263 26.1407C18.4379 26.1956 18.058 26.2082 15.0314 26.2082C12.0047 26.2082 11.6254 26.1948 10.4364 26.1407C9.24998 26.0867 8.44057 25.8986 7.73121 25.6231C6.9975 25.3377 6.37712 24.9566 5.75692 24.3375C5.13671 23.7185 4.75591 23.0961 4.47139 22.3632C4.19589 21.6548 4.00776 20.8446 3.95373 19.658C3.8988 18.4697 3.88623 18.0898 3.88623 15.0631C3.88623 12.0364 3.8988 11.6565 3.95373 10.4682C4.00776 9.28172 4.19589 8.47142 4.47139 7.76295C4.75591 7.02924 5.13662 6.40797 5.75692 5.78866C6.37721 5.16934 6.99839 4.78765 7.73121 4.50313ZM10.5286 24.135C9.44199 24.0855 8.85139 23.9045 8.4589 23.7516C7.93856 23.549 7.5673 23.3077 7.17695 22.9179C6.7866 22.5281 6.54498 22.1572 6.34329 21.6369C6.19029 21.2446 6.0093 20.6538 5.9599 19.5672C5.90587 18.3924 5.89508 18.0395 5.89508 15.0632C5.89508 12.0869 5.90676 11.735 5.9599 10.5592C6.00938 9.47263 6.19172 8.88301 6.34329 8.48954C6.54587 7.9692 6.78714 7.59793 7.17695 7.20759C7.56676 6.81724 7.93767 6.57561 8.4589 6.37393C8.85121 6.22093 9.44199 6.03994 10.5286 5.99054C11.7034 5.93651 12.0563 5.92572 15.0312 5.92572C18.0062 5.92572 18.3594 5.93722 19.5352 5.99072C20.6218 6.0402 21.2114 6.22254 21.6049 6.37411C22.1252 6.57579 22.4965 6.81795 22.8868 7.20777C23.2772 7.59758 23.5179 7.96938 23.7205 8.48972C23.8735 8.88203 24.0545 9.47281 24.1039 10.5594C24.1579 11.7352 24.1687 12.0871 24.1687 15.0634C24.1687 18.0397 24.1579 18.3916 24.1039 19.5674C24.0544 20.654 23.8725 21.2446 23.7205 21.637C23.5179 22.1574 23.2767 22.5287 22.8868 22.9181C22.497 23.3076 22.1252 23.5492 21.6049 23.7518C21.2126 23.9048 20.6218 24.0858 19.5352 24.1352C18.3604 24.1892 18.0075 24.2 15.0312 24.2C12.0549 24.2 11.703 24.1892 10.5286 24.1352V24.135ZM20.9802 10.4508C20.2416 10.4505 19.643 9.85151 19.6433 9.11288C19.644 8.3746 20.2425 7.77635 20.9807 7.776H20.9813C21.7199 7.7763 22.3185 8.37532 22.3182 9.11395C22.3179 9.85258 21.7188 10.4511 20.9802 10.4508ZM9.3084 15.0635C9.3084 18.2243 11.8705 20.7864 15.0313 20.7864C18.192 20.7864 20.7542 18.2243 20.7542 15.0635C20.7542 11.9028 18.192 9.34064 15.0313 9.34064C11.8705 9.34064 9.30848 11.9026 9.30848 15.0635H9.3084ZM11.3168 15.0628C11.3168 13.0111 12.9796 11.3475 15.0313 11.3475C17.083 11.3475 18.7466 13.0111 18.7466 15.0628C18.7466 17.1145 17.083 18.7782 15.0313 18.7782C12.9796 18.7782 11.3168 17.1145 11.3168 15.0628Z" fill="white"/>
</g>
<defs>
<radialGradient id="paint0_radial_129_859" cx="0" cy="0" r="1" gradientUnits="userSpaceOnUse" gradientTransform="translate(1.94157 29.3428) scale(38.0889)">
<stop offset="0.09" stop-color="#FA8F21"/>
<stop offset="0.78" stop-color="#D82D7E"/>
</radialGradient>
</defs>
</svg>
