<svg width="24" height="24" viewBox="0 0 24 24" fill="none" xmlns="http://www.w3.org/2000/svg">
<rect width="24" height="24" rx="12" fill="#6F767E"/>
<g clip-path="url(#clip0_832_35802)">
<path d="M15.3335 5.3335H8.66683C6.82588 5.3335 5.3335 6.82588 5.3335 8.66683V15.3335C5.3335 17.1744 6.82588 18.6668 8.66683 18.6668H15.3335C17.1744 18.6668 18.6668 17.1744 18.6668 15.3335V8.66683C18.6668 6.82588 17.1744 5.3335 15.3335 5.3335Z" stroke="white" stroke-width="1.5" stroke-linecap="round" stroke-linejoin="round"/>
<path d="M14.6668 11.5802C14.7491 12.135 14.6543 12.7017 14.396 13.1995C14.1376 13.6974 13.7289 14.1011 13.2279 14.3533C12.7269 14.6055 12.1591 14.6933 11.6053 14.6042C11.0515 14.515 10.54 14.2536 10.1434 13.857C9.74674 13.4604 9.48529 12.9488 9.39618 12.395C9.30707 11.8412 9.39484 11.2735 9.64701 10.7724C9.89919 10.2714 10.3029 9.86269 10.8008 9.60436C11.2987 9.34603 11.8653 9.25126 12.4201 9.33353C12.9861 9.41746 13.51 9.68118 13.9146 10.0857C14.3192 10.4903 14.5829 11.0143 14.6668 11.5802Z" stroke="white" stroke-width="1.5" stroke-linecap="round" stroke-linejoin="round"/>
<path d="M15.6665 8.3335H15.6732" stroke="white" stroke-width="1.5" stroke-linecap="round" stroke-linejoin="round"/>
</g>
<defs>
<clipPath id="clip0_832_35802">
<rect width="16" height="16" fill="white" transform="translate(4 4)"/>
</clipPath>
</defs>
</svg>
