<svg width="24" height="25" viewBox="0 0 24 25" fill="none" xmlns="http://www.w3.org/2000/svg">
<g clip-path="url(#clip0_327_2105)">
<path d="M14.2002 17.012C11.2889 15.7778 8.97363 13.4571 7.74621 10.543L11.1522 7.137L4.88721 0.872L1.71621 4.043C1.16602 4.59579 0.731027 5.25231 0.436461 5.97447C0.141895 6.69664 -0.00638695 7.4701 0.000210882 8.25C0.000210882 15.498 9.25221 24.75 16.5002 24.75C17.2801 24.7566 18.0536 24.6083 18.7757 24.3137C19.4979 24.0192 20.1544 23.5842 20.7072 23.034L23.8782 19.863L17.6132 13.598L14.2002 17.012ZM19.2942 21.62C18.9264 21.9838 18.4901 22.271 18.0105 22.465C17.5309 22.659 17.0175 22.7559 16.5002 22.75C10.2672 22.75 2.00021 14.483 2.00021 8.25C1.99449 7.73285 2.09142 7.21971 2.28538 6.74029C2.47935 6.26086 2.7665 5.82468 3.13021 5.457L4.88721 3.7L8.32421 7.137L5.38921 10.072L5.63521 10.686C6.35623 12.6153 7.48356 14.367 8.94078 15.8225C10.398 17.278 12.1511 18.4033 14.0812 19.122L14.6872 19.353L17.6132 16.426L21.0502 19.863L19.2942 21.62ZM24.0002 3.25V7.75H22.0002V4.193L16.4092 9.784L15.0002 8.37L20.6152 2.75H17.0002V0.75H21.5292C22.1882 0.754495 22.8185 1.02025 23.2818 1.48895C23.745 1.95765 24.0034 2.591 24.0002 3.25Z" fill="white"/>
</g>
<defs>
<clipPath id="clip0_327_2105">
<rect width="24" height="24" fill="white" transform="translate(0 0.75)"/>
</clipPath>
</defs>
</svg>
