<svg width="24" height="25" viewBox="0 0 24 25" fill="none" xmlns="http://www.w3.org/2000/svg">
<g clip-path="url(#clip0_327_2113)">
<path d="M21 4.25H15V3.25C15 2.45435 14.6839 1.69129 14.1213 1.12868C13.5587 0.56607 12.7956 0.25 12 0.25C11.2044 0.25 10.4413 0.56607 9.87868 1.12868C9.31607 1.69129 9 2.45435 9 3.25V4.25H3C2.20435 4.25 1.44129 4.56607 0.87868 5.12868C0.31607 5.69129 0 6.45435 0 7.25L0 24.25H24V7.25C24 6.45435 23.6839 5.69129 23.1213 5.12868C22.5587 4.56607 21.7956 4.25 21 4.25ZM11 3.25C11 2.98478 11.1054 2.73043 11.2929 2.54289C11.4804 2.35536 11.7348 2.25 12 2.25C12.2652 2.25 12.5196 2.35536 12.7071 2.54289C12.8946 2.73043 13 2.98478 13 3.25V6.25H11V3.25ZM22 22.25H2V7.25C2 6.98478 2.10536 6.73043 2.29289 6.54289C2.48043 6.35536 2.73478 6.25 3 6.25H9V8.25H15V6.25H21C21.2652 6.25 21.5196 6.35536 21.7071 6.54289C21.8946 6.73043 22 6.98478 22 7.25V22.25ZM4 20.25H11V10.25H4V20.25ZM6 12.25H9V18.25H6V12.25ZM13 14.25H20V16.25H13V14.25ZM13 10.25H20V12.25H13V10.25ZM13 18.25H18V20.25H13V18.25Z" fill="white"/>
</g>
<defs>
<clipPath id="clip0_327_2113">
<rect width="24" height="24" fill="white" transform="translate(0 0.25)"/>
</clipPath>
</defs>
</svg>
