<svg width="24" height="24" viewBox="0 0 24 24" fill="none" xmlns="http://www.w3.org/2000/svg">
<g clip-path="url(#clip0_327_3661)">
<path d="M4 23.9997L5.333 21.3327L8 19.9997L5.333 18.6668L4 15.9998L2.667 18.6668L0 19.9997L2.667 21.3327L4 23.9997Z" fill="#2A2A2A"/>
<path d="M21.333 21.3327L24 19.9997L21.333 18.6668L20 15.9998L18.667 18.6668L16 19.9997L18.667 21.3327L20 23.9997L21.333 21.3327Z" fill="#2A2A2A"/>
<path d="M13.333 2.667L12 0L10.667 2.667L8 4L10.667 5.333L12 8L13.333 5.333L16 4L13.333 2.667Z" fill="#2A2A2A"/>
<path d="M5 14C5.55228 14 6 13.5523 6 13C6 12.4477 5.55228 12 5 12C4.44771 12 4 12.4477 4 13C4 13.5523 4.44771 14 5 14Z" fill="#2A2A2A"/>
<path d="M1 10.0002C1.55228 10.0002 2 9.55253 2 9.00024C2 8.44796 1.55228 8.00024 1 8.00024C0.447715 8.00024 0 8.44796 0 9.00024C0 9.55253 0.447715 10.0002 1 10.0002Z" fill="#2A2A2A"/>
<path d="M5 5.99975C5.55228 5.99975 6 5.55204 6 4.99975C6 4.44747 5.55228 3.99976 5 3.99976C4.44771 3.99976 4 4.44747 4 4.99975C4 5.55204 4.44771 5.99975 5 5.99975Z" fill="#2A2A2A"/>
<path d="M1 2C1.55228 2 2 1.55228 2 1C2 0.447715 1.55228 0 1 0C0.447715 0 0 0.447715 0 1C0 1.55228 0.447715 2 1 2Z" fill="#2A2A2A"/>
<path d="M23 14C23.5523 14 24 13.5523 24 13C24 12.4477 23.5523 12 23 12C22.4477 12 22 12.4477 22 13C22 13.5523 22.4477 14 23 14Z" fill="#2A2A2A"/>
<path d="M19 10.0002C19.5523 10.0002 20 9.55253 20 9.00024C20 8.44796 19.5523 8.00024 19 8.00024C18.4477 8.00024 18 8.44796 18 9.00024C18 9.55253 18.4477 10.0002 19 10.0002Z" fill="#2A2A2A"/>
<path d="M23 5.99975C23.5523 5.99975 24 5.55204 24 4.99975C24 4.44747 23.5523 3.99976 23 3.99976C22.4477 3.99976 22 4.44747 22 4.99975C22 5.55204 22.4477 5.99975 23 5.99975Z" fill="#2A2A2A"/>
<path d="M19 2C19.5523 2 20 1.55228 20 1C20 0.447715 19.5523 0 19 0C18.4477 0 18 0.447715 18 1C18 1.55228 18.4477 2 19 2Z" fill="#2A2A2A"/>
<path d="M14 23.9997C14.5523 23.9997 15 23.552 15 22.9997C15 22.4475 14.5523 21.9998 14 21.9998C13.4477 21.9998 13 22.4475 13 22.9997C13 23.552 13.4477 23.9997 14 23.9997Z" fill="#2A2A2A"/>
<path d="M10 20C10.5523 20 11 19.5523 11 19C11 18.4477 10.5523 18 10 18C9.44771 18 9 18.4477 9 19C9 19.5523 9.44771 20 10 20Z" fill="#2A2A2A"/>
<path d="M14 16.0003C14.5523 16.0003 15 15.5525 15 15.0002C15 14.448 14.5523 14.0002 14 14.0002C13.4477 14.0002 13 14.448 13 15.0002C13 15.5525 13.4477 16.0003 14 16.0003Z" fill="#2A2A2A"/>
<path d="M10 11.9998C10.5523 11.9998 11 11.552 11 10.9998C11 10.4475 10.5523 9.99976 10 9.99976C9.44771 9.99976 9 10.4475 9 10.9998C9 11.552 9.44771 11.9998 10 11.9998Z" fill="#2A2A2A"/>
</g>
<defs>
<clipPath id="clip0_327_3661">
<rect width="24" height="24" fill="white"/>
</clipPath>
</defs>
</svg>
