<svg width="25" height="25" viewBox="0 0 25 25" fill="none" xmlns="http://www.w3.org/2000/svg">
<g clip-path="url(#clip0_327_2156)">
<path d="M21.5 0.25H3.5C2.70435 0.25 1.94129 0.56607 1.37868 1.12868C0.81607 1.69129 0.5 2.45435 0.5 3.25L0.5 24.25H18.85C21.056 22.043 22.293 20.806 24.5 18.6V3.25C24.5 2.45435 24.1839 1.69129 23.6213 1.12868C23.0587 0.56607 22.2956 0.25 21.5 0.25V0.25ZM2.5 3.25C2.5 2.98478 2.60536 2.73043 2.79289 2.54289C2.98043 2.35536 3.23478 2.25 3.5 2.25H21.5C21.7652 2.25 22.0196 2.35536 22.2071 2.54289C22.3946 2.73043 22.5 2.98478 22.5 3.25V16.25H16.5V22.25H2.5V3.25ZM18.5 21.771V18.25H22.021L18.5 21.771Z" fill="white"/>
<path d="M6.99853 5.25651L4.64453 11.4375H5.98253L6.49853 10.0735H8.54753L9.06153 11.4365H10.3985L8.06453 5.24951L6.99853 5.25651ZM6.97853 8.82351L7.52953 7.37651L8.07553 8.82351H6.97853Z" fill="white"/>
<path d="M12.9063 5.31201H11.6562V11.381H12.9063V5.31201Z" fill="white"/>
</g>
<defs>
<clipPath id="clip0_327_2156">
<rect width="24" height="24" fill="white" transform="translate(0.5 0.25)"/>
</clipPath>
</defs>
</svg>
