<svg width="25" height="25" viewBox="0 0 25 25" fill="none" xmlns="http://www.w3.org/2000/svg">
<path d="M9.5 12.75C8.31331 12.75 7.15328 12.3981 6.16658 11.7388C5.17989 11.0795 4.41085 10.1425 3.95673 9.0461C3.5026 7.94975 3.38378 6.74335 3.61529 5.57946C3.8468 4.41558 4.41825 3.34648 5.25736 2.50736C6.09648 1.66825 7.16558 1.0968 8.32946 0.865291C9.49335 0.63378 10.6997 0.7526 11.7961 1.20673C12.8925 1.66085 13.8295 2.42989 14.4888 3.41658C15.1481 4.40328 15.5 5.56331 15.5 6.75C15.4984 8.34081 14.8658 9.86602 13.7409 10.9909C12.616 12.1158 11.0908 12.7484 9.5 12.75ZM9.5 2.75C8.70888 2.75 7.93552 2.9846 7.27772 3.42412C6.61993 3.86365 6.10724 4.48836 5.80448 5.21927C5.50173 5.95017 5.42252 6.75444 5.57686 7.53036C5.7312 8.30629 6.11217 9.01902 6.67158 9.57843C7.23099 10.1378 7.94372 10.5188 8.71964 10.6731C9.49557 10.8275 10.2998 10.7483 11.0307 10.4455C11.7616 10.1428 12.3864 9.63008 12.8259 8.97228C13.2654 8.31449 13.5 7.54113 13.5 6.75C13.5 5.68914 13.0786 4.67172 12.3284 3.92158C11.5783 3.17143 10.5609 2.75 9.5 2.75Z" fill="white"/>
<path d="M18.5 24.7497H16.5V19.7067C16.4989 18.9228 16.1871 18.1713 15.6327 17.617C15.0784 17.0627 14.3269 16.7508 13.543 16.7498H5.457C4.67308 16.7508 3.92157 17.0627 3.36725 17.617C2.81294 18.1713 2.50106 18.9228 2.5 19.7067V24.7497H0.5V19.7067C0.501588 18.3926 1.02435 17.1326 1.95363 16.2034C2.8829 15.2741 4.14281 14.7513 5.457 14.7498H13.543C14.8572 14.7513 16.1171 15.2741 17.0464 16.2034C17.9756 17.1326 18.4984 18.3926 18.5 19.7067V24.7497Z" fill="white"/>
<path d="M22.4982 8.625C21.9417 8.65272 21.4188 8.89977 21.044 9.31207C20.6692 9.72437 20.473 10.2684 20.4983 10.825C20.5235 10.2684 20.3273 9.72437 19.9525 9.31207C19.5777 8.89977 19.0548 8.65272 18.4983 8.625C17.9417 8.65272 17.4189 8.89977 17.044 9.31207C16.6692 9.72437 16.473 10.2684 16.4983 10.825C16.4983 13.125 20.4983 15.958 20.4983 15.958C20.4983 15.958 24.4982 13.129 24.4982 10.825C24.5235 10.2684 24.3273 9.72437 23.9525 9.31207C23.5776 8.89977 23.0548 8.65272 22.4982 8.625Z" fill="white"/>
</svg>
