<svg width="28" height="29" viewBox="0 0 28 29" fill="none" xmlns="http://www.w3.org/2000/svg">
<path d="M13.9997 25.8226C20.443 25.8226 25.6663 20.5806 25.6663 14.1142C25.6663 7.64791 20.443 2.40591 13.9997 2.40591C7.55635 2.40591 2.33301 7.64791 2.33301 14.1142C2.33301 20.5806 7.55635 25.8226 13.9997 25.8226Z" stroke="black" stroke-width="2.33333" stroke-linejoin="round"/>
<path fill-rule="evenodd" clip-rule="evenodd" d="M8.75033 11.1872C9.55573 11.1872 10.2087 10.532 10.2087 9.72367C10.2087 8.91539 9.55573 8.26013 8.75033 8.26013C7.94492 8.26013 7.29199 8.91539 7.29199 9.72367C7.29199 10.532 7.94492 11.1872 8.75033 11.1872Z" fill="black"/>
<path fill-rule="evenodd" clip-rule="evenodd" d="M8.75033 15.8705C9.55573 15.8705 10.2087 15.2152 10.2087 14.4069C10.2087 13.5986 9.55573 12.9434 8.75033 12.9434C7.94492 12.9434 7.29199 13.5986 7.29199 14.4069C7.29199 15.2152 7.94492 15.8705 8.75033 15.8705Z" fill="black"/>
<path fill-rule="evenodd" clip-rule="evenodd" d="M14.0003 11.1872C14.8057 11.1872 15.4587 10.532 15.4587 9.72367C15.4587 8.91539 14.8057 8.26013 14.0003 8.26013C13.1949 8.26013 12.542 8.91539 12.542 9.72367C12.542 10.532 13.1949 11.1872 14.0003 11.1872Z" fill="black"/>
<path fill-rule="evenodd" clip-rule="evenodd" d="M14.0003 15.8705C14.8057 15.8705 15.4587 15.2152 15.4587 14.4069C15.4587 13.5986 14.8057 12.9434 14.0003 12.9434C13.1949 12.9434 12.542 13.5986 12.542 14.4069C12.542 15.2152 13.1949 15.8705 14.0003 15.8705Z" fill="black"/>
<path fill-rule="evenodd" clip-rule="evenodd" d="M19.2503 11.1872C20.0557 11.1872 20.7087 10.532 20.7087 9.72367C20.7087 8.91539 20.0557 8.26013 19.2503 8.26013C18.4449 8.26013 17.792 8.91539 17.792 9.72367C17.792 10.532 18.4449 11.1872 19.2503 11.1872Z" fill="black"/>
<path fill-rule="evenodd" clip-rule="evenodd" d="M19.2503 15.8705C20.0557 15.8705 20.7087 15.2152 20.7087 14.4069C20.7087 13.5986 20.0557 12.9434 19.2503 12.9434C18.4449 12.9434 17.792 13.5986 17.792 14.4069C17.792 15.2152 18.4449 15.8705 19.2503 15.8705Z" fill="black"/>
<path d="M9.91699 19.383H18.0837" stroke="black" stroke-width="2.33333" stroke-linejoin="round"/>
</svg>
