<svg width="17" height="17" viewBox="0 0 17 17" fill="none" xmlns="http://www.w3.org/2000/svg">
<path d="M0 2.39618C0 1.85745 0.188558 1.41301 0.565657 1.06285C0.942756 0.712676 1.433 0.537598 2.03636 0.537598C2.62896 0.537598 3.10841 0.709977 3.47475 1.05477C3.85185 1.41032 4.0404 1.87361 4.0404 2.44467C4.0404 2.96184 3.85724 3.39281 3.49091 3.7376C3.11381 4.09315 2.61818 4.27093 2.00404 4.27093H1.98788C1.39528 4.27093 0.91583 4.09315 0.549495 3.7376C0.18316 3.38204 0 2.9349 0 2.39618ZM0.210101 16.5376V5.74164H3.79798V16.5376H0.210101ZM5.78586 16.5376H9.37374V10.5093C9.37374 10.1322 9.41684 9.84129 9.50303 9.63659C9.65387 9.27025 9.88283 8.96048 10.1899 8.7073C10.497 8.45409 10.8822 8.3275 11.3455 8.3275C12.5522 8.3275 13.1556 9.14096 13.1556 10.7679V16.5376H16.7434V10.3477C16.7434 8.75308 16.3663 7.54366 15.6121 6.71942C14.8579 5.89517 13.8613 5.48305 12.6222 5.48305C11.2323 5.48305 10.1495 6.08103 9.37374 7.27699V7.30932H9.35758L9.37374 7.27699V5.74164H5.78586C5.8074 6.08641 5.81818 7.15846 5.81818 8.9578C5.81818 10.7571 5.8074 13.2837 5.78586 16.5376Z" fill="#E5E0FF"/>
</svg>
