<svg width="20" height="21" viewBox="0 0 20 21" fill="none" xmlns="http://www.w3.org/2000/svg">
<g clip-path="url(#clip0_2042_2469)">
<path fill-rule="evenodd" clip-rule="evenodd" d="M3.80176 4.12531C5.38259 2.54279 7.56887 1.5625 9.98227 1.5625C10.6124 1.5625 11.2278 1.62938 11.8216 1.75675C12.2711 1.85318 12.5574 2.29616 12.4611 2.74618C12.3648 3.19621 11.9223 3.48285 11.4727 3.38642C10.9929 3.2835 10.4944 3.22917 9.98227 3.22917C8.02816 3.22917 6.26037 4.02108 4.97899 5.30383L4.39037 4.71457L4.97899 5.30383C3.69762 6.5866 2.90657 8.35628 2.90657 10.3125C2.90657 12.2687 3.69763 14.0384 4.97899 15.3212C6.26037 16.6039 8.02816 17.3958 9.98227 17.3958C11.9364 17.3958 13.7042 16.6039 14.9855 15.3212C15.9321 14.3736 16.6107 13.1604 16.9009 11.8046C16.9972 11.3545 17.4397 11.0679 17.8893 11.1643C18.3388 11.2608 18.6251 11.7037 18.5288 12.1538C18.1695 13.8325 17.3299 15.3313 16.1628 16.4997C14.5819 18.0822 12.3957 19.0625 9.98227 19.0625C7.56887 19.0625 5.38259 18.0822 3.80175 16.4997L4.39037 15.9104L3.80175 16.4997C2.22093 14.9171 1.2417 12.7285 1.2417 10.3125C1.2417 7.8965 2.22093 5.70786 3.80175 4.12532L3.80176 4.12531Z" fill="#909AA8"/>
<path fill-rule="evenodd" clip-rule="evenodd" d="M17.9798 5.14007C18.3263 5.46551 18.3263 5.99315 17.9798 6.31859L10.881 12.9853C10.5345 13.3107 9.97264 13.3107 9.62611 12.9853L6.5204 10.0686C6.17387 9.74315 6.17387 9.21551 6.5204 8.89007C6.86693 8.56464 7.42876 8.56464 7.77529 8.89007L10.2536 11.2175L16.7249 5.14007C17.0714 4.81464 17.6332 4.81464 17.9798 5.14007Z" fill="#909AA8"/>
</g>
<defs>
<clipPath id="clip0_2042_2469">
<rect width="20" height="20" fill="white" transform="translate(0 0.3125)"/>
</clipPath>
</defs>
</svg>
