<svg width="183" height="32" viewBox="0 0 183 32" fill="none" xmlns="http://www.w3.org/2000/svg">
<g clip-path="url(#clip0_6867_30582)">
<path d="M16 0C7.16108 0 0 7.16108 0 16C0 17.2973 0.172973 18.5427 0.467027 19.7362C1.86811 18.9059 3.04432 17.6259 3.80541 16.64L3.96108 16.4324L4.11676 16.2249L4.27243 16.0173L4.41081 15.8097L4.61838 15.4984L4.82595 15.2043L5.08541 14.8065L5.69081 13.8724L5.86378 13.613L6.03676 13.3535L6.14054 13.1978L6.24432 13.0422C6.69405 12.4195 7.16108 11.9178 7.62811 11.52L7.76649 11.3989C8.00865 11.1914 8.25081 11.0357 8.47568 10.88L8.61405 10.7935C8.80432 10.6897 8.9773 10.5859 9.15027 10.5168L9.27135 10.4649H9.34054L9.46162 10.3957L9.5827 10.3611C9.5827 10.3611 9.65189 10.3438 9.68649 10.3265L9.79027 10.2919H9.84216L9.94595 10.2573C10.0151 10.2573 10.067 10.2227 10.1362 10.2227H10.2227C10.2227 10.2227 10.2746 10.2227 10.3092 10.2054H10.3784C10.5514 10.2054 10.6551 10.24 10.7243 10.2919C10.7762 10.3611 10.8281 10.5168 10.8627 10.7589V10.8973L10.8973 11.0357V11.2778L10.9665 11.987V12.2638L11.0011 12.3503V12.5232L11.0357 12.6962C11.1222 13.3881 11.2778 13.9762 11.6065 13.9762H11.7103H11.8486H12.0043H12.1254H12.2465H12.3849H12.5405L12.6962 13.9935H12.7827L12.9557 14.0281H13.0422L13.2151 14.0627H13.3016L13.4919 14.1146C15.7751 14.5297 19.5114 15.7405 19.8573 20.7568C19.8573 20.8951 19.9265 21.0508 19.9957 21.1892L20.0303 21.2584L20.0995 21.3795C20.307 21.6216 20.6357 22.3135 20.7222 22.6076C20.8432 23.0746 20.6876 23.9222 20.6876 23.9222C20.3935 25.773 19.2346 29.1978 13.6822 29.6822H13.4573C13.0941 29.7341 12.6789 29.7686 12.2638 29.8205C12.2638 29.8205 12.1081 29.8205 12.0389 29.8205C10.6205 29.8724 9.34054 29.8897 8.14703 29.8897C10.4822 31.2216 13.1805 32 16.0692 32C24.9081 32 32.0692 24.8389 32.0692 16C32.0692 7.16108 24.8389 0 16 0ZM23.9568 11.0703L22.5557 15.0314L21.1546 11.0703L17.1935 9.66919L21.1546 8.26811L22.5557 4.30703L23.9568 8.26811L27.9178 9.66919L23.9568 11.0703Z" fill="white"/>
</g>
<path fill-rule="evenodd" clip-rule="evenodd" d="M53.74 29.5106L53.4466 29.5106H46.4202L35.5371 2.57911H43.2126L50.0801 19.6804L56.9476 2.5791H64.623L53.74 29.5106Z" fill="white"/>
<path d="M174.34 29.7079V2.22217H179.493C180.442 2.22217 181.211 2.99128 181.211 3.94003V29.7079H174.34Z" fill="white"/>
<path fill-rule="evenodd" clip-rule="evenodd" d="M150.417 2.5805L150.122 2.58049L139.239 29.512H146.915L148.645 25.2034L158.921 25.2034L160.651 29.512H168.327L157.444 2.5805L157.149 2.58049L150.417 2.5805ZM156.542 19.2784L151.024 19.2784L153.782 12.4105L153.783 12.4084L153.784 12.4105L156.542 19.2784Z" fill="white"/>
<path fill-rule="evenodd" clip-rule="evenodd" d="M78.8952 9.31419C75.1768 9.31419 72.1624 12.3286 72.1624 16.0471C72.1624 19.7655 75.1768 22.7799 78.8952 22.7799C82.6137 22.7799 85.6281 19.7655 85.6281 16.0471C85.6281 12.3286 82.6137 9.31419 78.8952 9.31419ZM65.1602 16.0471C65.1602 8.4614 71.3096 2.31201 78.8952 2.31201C86.4809 2.31201 92.6303 8.4614 92.6303 16.0471C92.6303 23.6327 86.4809 29.7821 78.8952 29.7821C71.3096 29.7821 65.1602 23.6327 65.1602 16.0471Z" fill="white"/>
<path fill-rule="evenodd" clip-rule="evenodd" d="M105.086 3.07601C107.755 2.14634 110.647 2.06305 113.366 2.8375C116.084 3.61195 118.625 5.27447 120.375 7.56365L114.45 11.3341C113.508 10.5261 112.835 9.98748 111.447 9.57179C110.115 9.19215 108.697 9.23298 107.389 9.6887C106.08 10.1444 104.944 10.9928 104.135 12.1182C103.326 13.2435 102.885 14.5909 102.87 15.9766C102.856 17.3622 103.269 18.7186 104.054 19.8606C104.839 21.0026 105.957 21.8746 107.256 22.3577C108.555 22.8407 109.971 22.9112 111.311 22.5595C112.835 22.1066 113.373 21.7027 114.45 20.7601L120.375 24.5305C118.49 26.9543 115.823 28.6152 113.088 29.3325C110.354 30.0499 107.465 29.9061 104.815 28.9207C102.165 27.9353 99.8845 26.1564 98.2833 23.8267C96.6821 21.497 95.8388 18.73 95.8684 15.9032C95.898 13.0765 96.7991 10.3278 98.4487 8.03209C100.098 5.73643 102.416 4.00567 105.086 3.07601Z" fill="white"/>
<rect width="5.87696" height="5.87696" transform="matrix(0.707108 -0.707106 0.707108 0.707106 126.349 15.9792)" fill="white"/>
<defs>
<clipPath id="clip0_6867_30582">
<rect width="32" height="32" fill="white"/>
</clipPath>
</defs>
</svg>
