<svg width="32" height="32" viewBox="0 0 32 32" fill="none" xmlns="http://www.w3.org/2000/svg">
<g clip-path="url(#clip0_165_5416)">
<rect width="32" height="32" rx="16" fill="white"/>
<path d="M15.9655 0C7.14563 0 0 7.14563 0 15.9655C0 17.26 0.1726 18.5027 0.466019 19.6936C1.86408 18.8652 3.03776 17.5879 3.7972 16.6041L3.95253 16.397L4.10787 16.1899L4.26321 15.9827L4.40129 15.7756L4.60841 15.4649L4.81553 15.1715L5.07443 14.7745L5.67853 13.8425L5.85113 13.5836L6.02373 13.3247L6.12729 13.1694L6.23085 13.014C6.67961 12.3927 7.14563 11.8921 7.61165 11.4951L7.74973 11.3743C7.99137 11.1672 8.23301 11.0119 8.45739 10.8565L8.59547 10.7702C8.78533 10.6667 8.95793 10.5631 9.13053 10.4941L9.25135 10.4423H9.32039L9.44121 10.3732L9.56203 10.3387C9.56203 10.3387 9.63107 10.3215 9.66559 10.3042L9.76915 10.2697H9.82093L9.92449 10.2352C9.99353 10.2352 10.0453 10.2006 10.1143 10.2006H10.2006C10.2006 10.2006 10.2524 10.2006 10.2869 10.1834H10.356C10.5286 10.1834 10.6321 10.2179 10.7012 10.2697C10.753 10.3387 10.8047 10.4941 10.8393 10.7357V10.8738L10.8738 11.0119V11.2535L10.9428 11.9612V12.2373L10.9773 12.3236V12.4962L11.0119 12.6688C11.0982 13.3592 11.2535 13.9461 11.5814 13.9461H11.685H11.8231H11.9784H12.0992H12.2201H12.3581H12.5135L12.6688 13.9633H12.7551L12.9277 13.9978H13.014L13.1866 14.0324H13.2729L13.4628 14.0841C15.7411 14.4984 19.4693 15.7066 19.8145 20.712C19.8145 20.8501 19.8835 21.0054 19.9525 21.1435L19.9871 21.2125L20.0561 21.3333C20.2632 21.575 20.5912 22.2654 20.6775 22.5588C20.7983 23.0248 20.6429 23.8706 20.6429 23.8706C20.3495 25.7174 19.1931 29.1348 13.6526 29.6181H13.4283C13.0658 29.6699 12.6516 29.7044 12.2373 29.7562C12.2373 29.7562 12.082 29.7562 12.0129 29.7562C10.5976 29.808 9.32039 29.8252 8.12945 29.8252C10.4595 31.1543 13.1521 31.931 16.0345 31.931C24.8544 31.931 32 24.7853 32 15.9655C32 7.14563 24.7853 0 15.9655 0ZM23.9051 11.0464L22.507 14.9989L21.109 11.0464L17.1564 9.64833L21.109 8.25027L22.507 4.29773L23.9051 8.25027L27.8576 9.64833L23.9051 11.0464Z" fill="black"/>
</g>
<defs>
<clipPath id="clip0_165_5416">
<rect width="32" height="32" rx="16" fill="white"/>
</clipPath>
</defs>
</svg>
