<svg width="30" height="30" viewBox="0 0 30 30" fill="none" xmlns="http://www.w3.org/2000/svg">
<path d="M28.1291 17.4938C28.7441 17.4938 29.2428 17.0063 29.2428 16.4026V9.24384C29.2428 6.83259 27.2478 4.87134 24.7916 4.87134H5.20906C2.75656 4.87134 0.757812 6.83259 0.757812 9.24384V21.8663C0.757812 24.2776 2.75281 26.2388 5.20906 26.2388H24.7916C27.2441 26.2388 29.2428 24.2776 29.2428 21.8663C29.2428 21.2626 28.7441 20.7751 28.1291 20.7751C27.5141 20.7751 27.0153 21.2626 27.0153 21.8663C27.0153 23.0701 26.0178 24.0526 24.7916 24.0526H5.20906C3.98281 24.0526 2.98531 23.0738 2.98531 21.8663V9.47259L12.6528 15.3751C13.3766 15.8176 14.1903 16.0388 15.0041 16.0388C15.8178 16.0388 16.6278 15.8176 17.3553 15.3751L27.0228 9.47259V16.3988C27.0191 17.0026 27.5178 17.4938 28.1291 17.4938ZM16.1741 13.5226C15.4503 13.9651 14.5503 13.9651 13.8228 13.5226L3.91156 7.46634C4.29031 7.20009 4.74406 7.05384 5.20906 7.05759H24.7916C25.2566 7.05759 25.7103 7.20009 26.0891 7.46634L16.1741 13.5226Z" fill="white"/>
</svg>
