<svg width="20" height="20" viewBox="0 0 20 20" fill="none" xmlns="http://www.w3.org/2000/svg">
<path d="M1.66675 14.5833V11.5457C1.66675 10.5984 2.20211 9.73252 3.0495 9.30923L3.33364 9.16727L4.29612 5.8716C4.472 5.11715 5.14454 4.58331 5.91925 4.58331H14.1227C14.9032 4.58331 15.5792 5.12498 15.7493 5.88673L16.668 9.16727L16.9515 9.30898C17.7984 9.73248 18.3334 10.5981 18.3334 11.545V14.5833C18.3334 15.2737 17.7738 15.8333 17.0834 15.8333H16.2514V16.25C16.2514 17.1704 15.5052 17.9166 14.5847 17.9166C13.663 17.9166 12.9167 17.1704 12.9167 16.25V15.8333H7.08341V16.2501C7.08341 17.1705 6.33729 17.9166 5.41687 17.9166C4.49646 17.9166 3.7503 17.1705 3.7503 16.2501V15.8333H2.91675C2.22639 15.8333 1.66675 15.2737 1.66675 14.5833Z" stroke="#333333" stroke-width="1.66667" stroke-linejoin="round"/>
<path d="M5.62492 13.75C6.20021 13.75 6.66659 13.2836 6.66659 12.7084C6.66659 12.1331 6.20021 11.6667 5.62492 11.6667C5.04963 11.6667 4.58325 12.1331 4.58325 12.7084C4.58325 13.2836 5.04963 13.75 5.62492 13.75Z" fill="#333333"/>
<path d="M14.3749 13.75C14.9502 13.75 15.4166 13.2836 15.4166 12.7084C15.4166 12.1331 14.9502 11.6667 14.3749 11.6667C13.7996 11.6667 13.3333 12.1331 13.3333 12.7084C13.3333 13.2836 13.7996 13.75 14.3749 13.75Z" fill="#333333"/>
<path fill-rule="evenodd" clip-rule="evenodd" d="M7.5 4.58331H12.5L12.087 2.51835C12.0362 2.26416 11.8333 2.08331 11.5989 2.08331H8.40108C8.16675 2.08331 7.96383 2.26416 7.913 2.51835L7.5 4.58331Z" stroke="#333333" stroke-width="1.66667" stroke-linejoin="round"/>
<path d="M6.25 9.58331H13.75" stroke="#333333" stroke-width="1.66667" stroke-linejoin="round"/>
</svg>
