<svg width="25" height="25" viewBox="0 0 25 25" fill="none" xmlns="http://www.w3.org/2000/svg">
<path d="M15.0297 2.41356C15.0615 2.29458 15.1165 2.18304 15.1914 2.0853C15.2664 1.98757 15.3598 1.90556 15.4665 1.84397C15.5731 1.78237 15.6909 1.74239 15.813 1.72632C15.9351 1.71024 16.0592 1.71838 16.1781 1.75028C17.9161 2.20373 19.5018 3.11228 20.7718 4.38235C22.0419 5.65242 22.9505 7.23809 23.4039 8.97606C23.4358 9.09502 23.444 9.2191 23.4279 9.3412C23.4118 9.46331 23.3718 9.58105 23.3102 9.6877C23.2486 9.79435 23.1666 9.88782 23.0689 9.96277C22.9712 10.0377 22.8596 10.0927 22.7406 10.1245C22.6614 10.1453 22.5799 10.1559 22.4981 10.1561C22.2915 10.1561 22.0907 10.0879 21.9269 9.96201C21.763 9.83613 21.6454 9.65967 21.5922 9.46004C21.2224 8.04128 20.4809 6.74681 19.4441 5.71007C18.4074 4.67333 17.1129 3.93182 15.6942 3.56199C15.5751 3.5303 15.4634 3.47543 15.3655 3.40054C15.2677 3.32565 15.1855 3.2322 15.1238 3.12553C15.0621 3.01887 15.022 2.90108 15.0059 2.77892C14.9897 2.65675 14.9978 2.53259 15.0297 2.41356ZM14.7567 7.31199C16.3727 7.74324 17.4109 8.78153 17.8422 10.3975C17.8954 10.5972 18.013 10.7736 18.1769 10.8995C18.3407 11.0254 18.5415 11.0936 18.7481 11.0936C18.8299 11.0934 18.9114 11.0828 18.9906 11.062C19.1096 11.0302 19.2212 10.9752 19.3189 10.9003C19.4166 10.8253 19.4986 10.7319 19.5602 10.6252C19.6218 10.5186 19.6618 10.4008 19.6779 10.2787C19.694 10.1566 19.6858 10.0325 19.6539 9.91356C19.0539 7.66824 17.4859 6.10028 15.2406 5.50028C15.1217 5.4685 14.9976 5.46046 14.8756 5.47662C14.7535 5.49279 14.6358 5.53284 14.5292 5.59448C14.4226 5.65613 14.3292 5.73816 14.2543 5.83591C14.1795 5.93365 14.1246 6.04518 14.0928 6.16414C14.061 6.2831 14.053 6.40716 14.0691 6.52922C14.0853 6.65129 14.1253 6.76897 14.187 6.87556C14.2486 6.98215 14.3307 7.07555 14.4284 7.15043C14.5262 7.22532 14.6377 7.28022 14.7567 7.31199ZM24.359 18.4858C24.15 20.0737 23.3702 21.5313 22.1651 22.5863C20.9601 23.6413 19.4122 24.2215 17.8106 24.2186C8.50587 24.2186 0.935557 16.6483 0.935557 7.34363C0.932686 5.74202 1.51293 4.19413 2.5679 2.98906C3.62288 1.78399 5.08044 1.00415 6.66837 0.795197C7.06992 0.746167 7.47655 0.828317 7.82757 1.02938C8.17859 1.23045 8.45517 1.53965 8.61603 1.91082L11.091 7.43621V7.45028C11.2142 7.7344 11.265 8.0446 11.2391 8.35318C11.2131 8.66175 11.1111 8.95909 10.9422 9.21864C10.9211 9.25028 10.8988 9.27957 10.8754 9.30887L8.43556 12.2011C9.31329 13.9847 11.1789 15.8339 12.9859 16.7139L15.8383 14.287C15.8663 14.2634 15.8956 14.2415 15.9262 14.2214C16.1855 14.0484 16.4839 13.9428 16.7943 13.9142C17.1047 13.8855 17.4173 13.9347 17.7039 14.0573L17.7192 14.0643L23.2399 16.5382C23.6117 16.6984 23.9216 16.9748 24.1234 17.3259C24.3251 17.6769 24.4078 18.0839 24.359 18.4858ZM22.4981 18.2514C22.4981 18.2514 22.4899 18.2514 22.4852 18.2514L16.9774 15.7846L14.1238 18.2116C14.0962 18.2351 14.0672 18.257 14.0371 18.2772C13.7673 18.4572 13.4554 18.5642 13.1319 18.5876C12.8084 18.611 12.4843 18.5501 12.1914 18.4108C9.9965 17.3503 7.8086 15.1788 6.74689 13.0073C6.60629 12.7165 6.54321 12.3943 6.56374 12.072C6.58427 11.7496 6.68772 11.4381 6.86407 11.1675C6.88395 11.1357 6.90628 11.1055 6.93087 11.0772L9.37306 8.18153L6.91212 2.67371C6.91166 2.66904 6.91166 2.66433 6.91212 2.65965C5.7757 2.80789 4.73229 3.36531 3.97729 4.22752C3.22229 5.08973 2.80749 6.19759 2.81056 7.34363C2.8149 11.3205 4.39665 15.1333 7.20875 17.9454C10.0209 20.7575 13.8336 22.3393 17.8106 22.3436C18.9559 22.3476 20.0635 21.9342 20.9262 21.1809C21.7889 20.4275 22.3477 19.3857 22.4981 18.2503V18.2514Z" fill="white"/>
</svg>
