<svg width="69" height="68" viewBox="0 0 69 68" fill="none" xmlns="http://www.w3.org/2000/svg">
<path fill-rule="evenodd" clip-rule="evenodd" d="M0.5 34C0.5 15.2223 15.7223 0 34.5 0C53.2777 0 68.5 15.2223 68.5 34C68.5 52.7777 53.2777 68 34.5 68C15.7223 68 0.5 52.7777 0.5 34ZM25.1533 20.6259C25.6811 20.3227 26.3308 20.3249 26.8566 20.6316L47.2566 32.5316C47.7789 32.8362 48.1 33.3954 48.1 34C48.1 34.6046 47.7789 35.1638 47.2566 35.4684L26.8566 47.3684C26.3308 47.6751 25.6811 47.6773 25.1533 47.3741C24.6255 47.071 24.3 46.5087 24.3 45.9V22.1C24.3 21.4913 24.6255 20.929 25.1533 20.6259Z" fill="white"/>
</svg>
