<svg t="1687783238733" class="icon" viewBox="0 0 1027 1024" version="1.1" xmlns="http://www.w3.org/2000/svg" p-id="10156" width="200" height="200"><path d="M0 512.015953c0 220.138893 138.956744 407.796152 333.891412 480.112603l44.562791-480.112603-44.562791-480.149494C138.956744 104.214816 0 291.876063 0 512.015953" fill="#6DA544" p-id="10157"></path><path d="M1023.988035 512.015953C1023.988035 229.201007 794.763099 0 512.003988 0c-62.625204 0-122.63716 11.288509-178.089644 31.866459v960.294002c55.452484 20.581938 115.465438 31.839539 178.089644 31.839539 282.759111 0 511.984047-229.236901 511.984047-511.984047" fill="#D80027" p-id="10158"></path><path d="M333.914344 333.934285c98.357194 0 178.089644 79.704533 178.089644 178.081668 0 98.34523-79.73245 178.080671-178.089644 178.08067-98.365171 0-178.100612-79.736438-178.100612-178.08067 0-98.377135 79.735441-178.081668 178.100612-178.081668" fill="#FFDA44" p-id="10159"></path><path d="M233.737548 422.959166v111.313755c0 55.317883 44.853928 100.152867 100.18876 100.152867 55.314892 0 100.133923-44.834984 100.133923-100.152867V422.959166H233.737548z" fill="#D80027" p-id="10160"></path><path d="M333.914344 567.656877c-18.405395 0-33.387945-14.967594-33.387945-33.383956v-44.512939h66.780875v44.512939c-0.000997 18.416362-14.967594 33.383957-33.39293 33.383956" fill="#F0F0F0" p-id="10161"></path></svg>