<svg width="13" height="13" viewBox="0 0 13 13" fill="none" xmlns="http://www.w3.org/2000/svg">
<path d="M11.3236 3.95002C11.177 3.87813 11.0107 3.85658 10.8506 3.88869C10.6904 3.9208 10.5453 4.0048 10.4377 4.12767L8.85943 5.82877L7.1813 2.06517C7.18122 2.06361 7.18122 2.06205 7.1813 2.06049C7.1213 1.93034 7.02525 1.82011 6.90455 1.74284C6.78384 1.66557 6.64353 1.62451 6.50021 1.62451C6.35689 1.62451 6.21657 1.66557 6.09587 1.74284C5.97516 1.82011 5.87912 1.93034 5.81911 2.06049C5.81919 2.06205 5.81919 2.06361 5.81911 2.06517L4.14099 5.82877L2.56271 4.12767C2.45441 4.00477 2.30886 3.92071 2.14828 3.88832C1.98771 3.85594 1.82094 3.87701 1.67348 3.94833C1.52601 4.01964 1.40594 4.13728 1.33163 4.28326C1.25731 4.42924 1.23283 4.59553 1.26193 4.75674C1.26193 4.76189 1.26193 4.76658 1.26521 4.77174L2.32833 9.64064C2.36106 9.81209 2.45256 9.96675 2.58707 10.078C2.72157 10.1892 2.89067 10.2501 3.06521 10.25H9.93568C10.1101 10.25 10.2791 10.1891 10.4135 10.0778C10.5479 9.96661 10.6394 9.81201 10.6721 9.64064L11.7352 4.77174C11.7352 4.76658 11.7352 4.76189 11.7385 4.75674C11.7681 4.59533 11.7435 4.42866 11.6685 4.28272C11.5934 4.13678 11.4722 4.01979 11.3236 3.95002ZM9.93849 9.48502L9.93568 9.50002H3.06474L3.06193 9.48502L2.00021 4.62502L2.00677 4.63252L3.97552 6.75314C4.01768 6.7987 4.07048 6.83308 4.1292 6.85319C4.18792 6.87331 4.25071 6.87854 4.31194 6.86841C4.37318 6.85828 4.43094 6.83311 4.48006 6.79516C4.52917 6.75721 4.56809 6.70766 4.59333 6.65096L6.50021 2.37502L8.40755 6.65236C8.4328 6.70906 8.47172 6.75861 8.52083 6.79657C8.56994 6.83452 8.62771 6.85969 8.68894 6.86982C8.75018 6.87995 8.81297 6.87472 8.87169 6.8546C8.9304 6.83448 8.98321 6.8001 9.02536 6.75455L10.9941 4.63392L11.0002 4.62502L9.93849 9.48502Z" fill="#686868"/>
</svg>
