<svg width="212" height="55" viewBox="0 0 212 55" fill="none" xmlns="http://www.w3.org/2000/svg">
<g clip-path="url(#clip0_269_549)">
<path d="M18.5 0C8.28 0 0 8.28 0 18.5C0 20 0.2 21.44 0.54 22.82C2.16 21.86 3.52 20.38 4.4 19.24L4.58 19L4.76 18.76L4.94 18.52L5.1 18.28L5.34 17.92L5.58 17.58L5.88 17.12L6.58 16.04L6.78 15.74L6.98 15.44L7.1 15.26L7.22 15.08C7.74 14.36 8.28 13.78 8.82 13.32L8.98 13.18C9.26 12.94 9.54 12.76 9.8 12.58L9.96 12.48C10.18 12.36 10.38 12.24 10.58 12.16L10.72 12.1H10.8L10.94 12.02L11.08 11.98C11.08 11.98 11.16 11.96 11.2 11.94L11.32 11.9H11.38L11.5 11.86C11.58 11.86 11.64 11.82 11.72 11.82H11.82C11.82 11.82 11.88 11.82 11.92 11.8H12C12.2 11.8 12.32 11.84 12.4 11.9C12.46 11.98 12.52 12.16 12.56 12.44V12.6L12.6 12.76V13.04L12.68 13.86V14.18L12.72 14.28V14.48L12.76 14.68C12.86 15.48 13.04 16.16 13.42 16.16H13.54H13.7H13.88H14.02H14.16H14.32H14.5L14.68 16.18H14.78L14.98 16.22H15.08L15.28 16.26H15.38L15.6 16.32C18.24 16.8 22.56 18.2 22.96 24C22.96 24.16 23.04 24.34 23.12 24.5L23.16 24.58L23.24 24.72C23.48 25 23.86 25.8 23.96 26.14C24.1 26.68 23.92 27.66 23.92 27.66C23.58 29.8 22.24 33.76 15.82 34.32H15.56C15.14 34.38 14.66 34.42 14.18 34.48C14.18 34.48 14 34.48 13.92 34.48C12.28 34.54 10.8 34.56 9.42 34.56C12.12 36.1 15.24 37 18.58 37C28.8 37 37.08 28.72 37.08 18.5C37.08 8.28 28.72 0 18.5 0ZM27.7 12.8L26.08 17.38L24.46 12.8L19.88 11.18L24.46 9.56L26.08 4.98L27.7 9.56L32.28 11.18L27.7 12.8Z" fill="white"/>
</g>
<path d="M8.732 53L7.904 50.672H4.328L3.488 53H2.096L5.24 44.672H7.04L10.16 53H8.732ZM4.748 49.508H7.496L6.2 45.896H6.056L4.748 49.508ZM18.5057 53V44.672H19.8497V53H18.5057ZM38.7873 45.536C38.7713 46.264 38.7353 47.452 38.6793 49.1C38.6233 50.748 38.5793 51.84 38.5473 52.376C38.5313 52.752 38.4713 53.036 38.3673 53.228C38.2713 53.42 38.1113 53.556 37.8873 53.636C37.6633 53.724 37.3313 53.792 36.8913 53.84L36.1233 53.924L35.7993 52.856L36.5193 52.772C36.7913 52.74 36.9913 52.704 37.1193 52.664C37.2473 52.616 37.3393 52.54 37.3953 52.436C37.4513 52.324 37.4873 52.152 37.5033 51.92C37.5353 51.2 37.5713 50.3 37.6113 49.22C37.6513 48.14 37.6793 47.252 37.6953 46.556H36.0753L36.0513 47.204C36.0033 48.476 35.9113 49.492 35.7753 50.252C35.6393 51.012 35.3913 51.72 35.0313 52.376C34.6713 53.024 34.1233 53.696 33.3873 54.392L32.5353 53.6C33.0313 53.152 33.4153 52.756 33.6873 52.412C31.1593 52.82 29.4833 53.096 28.6593 53.24L28.5033 52.16L29.5113 52.004V44.06H33.4833V51.368L34.0473 51.272L34.0713 51.692L34.0833 51.836C34.4033 51.3 34.6233 50.692 34.7433 50.012C34.8713 49.324 34.9593 48.376 35.0073 47.168L35.0193 46.556H33.9273V45.536H35.0433L35.0553 44.456C35.0553 43.928 35.0593 43.58 35.0673 43.412L36.1353 43.46C36.1513 43.596 36.1433 44.288 36.1113 45.536H38.7873ZM32.4393 46.604V45.08H30.5553V46.604H32.4393ZM30.5553 49.064H32.4393V47.6H30.5553V49.064ZM30.5553 50.036V51.848L32.4393 51.536V50.036H30.5553ZM57.3318 45.632C57.2998 46.472 57.2558 47.556 57.1998 48.884C57.1438 50.212 57.0958 51.32 57.0558 52.208C57.0318 52.656 56.9478 53.004 56.8038 53.252C56.6598 53.5 56.4318 53.68 56.1198 53.792C55.8078 53.912 55.3638 53.992 54.7878 54.032L53.7438 54.104L53.3718 52.952L54.4758 52.868C54.8918 52.844 55.1958 52.8 55.3878 52.736C55.5798 52.664 55.7158 52.548 55.7958 52.388C55.8758 52.228 55.9238 51.98 55.9398 51.644C55.9718 51.012 56.0078 50.128 56.0478 48.992C56.0958 47.856 56.1238 47.12 56.1318 46.784H52.5438C52.4798 48.128 52.3198 49.216 52.0638 50.048C51.8078 50.872 51.3998 51.608 50.8398 52.256C50.2798 52.896 49.4598 53.608 48.3798 54.392L47.5518 53.42C48.5598 52.724 49.3158 52.104 49.8198 51.56C50.3318 51.016 50.7078 50.384 50.9478 49.664C51.1878 48.944 51.3438 47.984 51.4158 46.784H48.1518V45.632H51.4638L51.4878 44.936C51.4958 44.592 51.5118 44.064 51.5358 43.352L52.6518 43.388C52.6598 43.532 52.6478 44.02 52.6158 44.852L52.5918 45.632H57.3318ZM75.5883 48.32H72.5523V49.88H75.8883V50.924H72.5523V52.82H76.9203V53.816H67.0803V52.82H71.3883V50.924H68.1243V49.88H71.3883V48.32H68.4243V47.684C68.0243 47.94 67.5563 48.208 67.0203 48.488L66.4803 47.432C67.7043 46.824 68.7243 46.196 69.5403 45.548C70.3563 44.9 71.0203 44.18 71.5323 43.388H72.4803C73.4643 44.932 75.1443 46.288 77.5203 47.456L76.9683 48.464C76.4323 48.184 75.9723 47.924 75.5883 47.684V48.32ZM69.0723 47.264H74.9523C73.6563 46.384 72.6763 45.468 72.0123 44.516C71.3483 45.476 70.3683 46.392 69.0723 47.264ZM96.6768 52.304L95.8968 53.192C94.6248 52.048 93.6528 50.708 92.9808 49.172V52.748C92.9808 53.084 92.9368 53.34 92.8488 53.516C92.7608 53.692 92.6088 53.82 92.3928 53.9C92.1848 53.988 91.8768 54.052 91.4688 54.092L90.7968 54.164L90.4728 53.096L91.1808 53.024C91.4128 53 91.5808 52.972 91.6848 52.94C91.7888 52.908 91.8608 52.856 91.9008 52.784C91.9408 52.704 91.9608 52.584 91.9608 52.424V50.3C91.2888 50.9 90.5728 51.488 89.8128 52.064L89.2488 51.152C89.6968 50.832 90.1728 50.472 90.6768 50.072C91.1888 49.664 91.6168 49.296 91.9608 48.968V46.376H89.5008V45.332H91.9608V43.316L92.9808 43.364V45.332H94.7208C94.5528 45.124 94.3448 44.896 94.0968 44.648C93.8488 44.392 93.6208 44.172 93.4128 43.988L94.0128 43.376C94.2528 43.576 94.5048 43.808 94.7688 44.072C95.0328 44.328 95.2408 44.552 95.3928 44.744L94.8288 45.332H96.1368V46.376H92.9808V46.628C93.1568 47.284 93.4128 47.964 93.7488 48.668C94.3328 48.076 94.8208 47.48 95.2128 46.88L96.0168 47.576C95.3528 48.416 94.7608 49.076 94.2408 49.556C94.5768 50.108 94.9528 50.62 95.3688 51.092C95.7848 51.564 96.2208 51.968 96.6768 52.304ZM88.1808 51.848C88.4608 51.792 88.8928 51.692 89.4768 51.548L89.5248 52.64C89.2608 52.696 88.9488 52.76 88.5888 52.832C88.2288 52.896 87.8528 52.968 87.4608 53.048L85.7088 53.384L85.5768 52.364C85.7128 52.348 86.0928 52.28 86.7168 52.16L87.1728 52.064V49.052H85.9128V48.02H87.1728V45.5H85.8648V44.48H89.3328V45.5H88.1808V48.02H89.2368V49.052H88.1808V51.848ZM90.7368 49.484C90.5608 49.188 90.3328 48.852 90.0528 48.476C89.7808 48.1 89.5208 47.764 89.2728 47.468L89.9808 46.904C90.6448 47.688 91.1368 48.328 91.4568 48.824L90.7368 49.484ZM115.269 48.02V49.112H110.601V54.2H109.425V49.112H104.733V48.02H109.425V45.404C108.073 45.532 106.829 45.624 105.693 45.68L105.597 44.54C106.805 44.5 108.229 44.392 109.869 44.216C111.517 44.032 112.881 43.84 113.961 43.64L114.189 44.792C113.205 44.96 112.009 45.12 110.601 45.272V48.02H115.269ZM128.09 45.116C128.082 45.7 128.054 46.304 128.006 46.928V47.012H132.878C132.838 47.612 132.786 48.396 132.722 49.364C132.666 50.324 132.614 51.1 132.566 51.692C132.518 52.26 132.426 52.684 132.29 52.964C132.162 53.236 131.954 53.428 131.666 53.54C131.378 53.652 130.95 53.728 130.382 53.768L129.29 53.828L128.906 52.7L130.022 52.64C130.406 52.616 130.682 52.576 130.85 52.52C131.026 52.456 131.154 52.34 131.234 52.172C131.314 51.996 131.37 51.712 131.402 51.32C131.442 50.888 131.482 50.352 131.522 49.712C131.57 49.064 131.606 48.528 131.63 48.104H127.898C127.794 49.008 127.622 49.8 127.382 50.48C127.15 51.152 126.81 51.792 126.362 52.4C125.914 53 125.318 53.612 124.574 54.236L123.65 53.348C124.466 52.684 125.09 52.064 125.522 51.488C125.954 50.904 126.266 50.268 126.458 49.58C126.65 48.884 126.778 47.996 126.842 46.916L126.854 46.628C126.87 46.428 126.898 45.924 126.938 45.116H123.986V44H134.21V45.116H128.09ZM144.51 43.7H151.506V47.732H144.51V43.7ZM145.602 46.7H150.414V44.732H145.602V46.7ZM144.318 53.924H143.286V48.836H147.534V53.924H146.502V53.264H144.318V53.924ZM148.422 53.924V48.836H152.73V53.924H151.698V53.264H149.454V53.924H148.422ZM146.502 52.268V49.832H144.318V52.268H146.502ZM149.454 49.844V52.268H151.698V49.844H149.454ZM172.415 51.26V52.196H169.883V54.212H168.815V52.196H165.635V51.26H166.619L166.307 50.816C166.955 50.448 167.439 50.088 167.759 49.736H166.259V44.468H168.035C168.243 43.996 168.399 43.572 168.503 43.196L169.547 43.472C169.451 43.768 169.323 44.1 169.163 44.468H171.707V49.736H168.851C168.531 50.296 168.039 50.804 167.375 51.26H168.815V50.012L169.883 50.06V51.26H172.415ZM163.463 48.896V49.196H165.359V54.164H164.411V50.24H163.427C163.371 51.024 163.263 51.736 163.103 52.376C162.951 53.016 162.731 53.664 162.443 54.32L161.471 53.876C161.743 53.268 161.947 52.736 162.083 52.28C162.227 51.824 162.331 51.316 162.395 50.756C162.459 50.188 162.491 49.48 162.491 48.632V43.868L163.463 43.916V46.88H164.351V43.652L165.287 43.7V46.88H165.923V47.924H163.463V48.896ZM168.527 46.652V45.404H167.207V46.652H168.527ZM169.451 46.652H170.747V45.404H169.451V46.652ZM167.207 48.788H168.299C168.419 48.436 168.491 48.036 168.515 47.588H167.207V48.788ZM170.747 48.788V47.588H169.439C169.415 48.036 169.351 48.436 169.247 48.788H170.747ZM191.067 44.672V48.704H184.491V44.672H186.039C185.855 44.368 185.639 44.056 185.391 43.736L186.243 43.208C186.539 43.584 186.823 44.008 187.095 44.48L186.855 44.672H188.235C188.675 44.08 188.999 43.584 189.207 43.184L190.119 43.688C190.023 43.864 189.807 44.192 189.471 44.672H191.067ZM184.263 51.188L184.395 51.824C183.363 52.176 182.203 52.552 180.915 52.952L180.651 51.896C180.771 51.864 181.127 51.756 181.719 51.572L182.139 51.44V47.384H180.951V46.34H182.139V43.388L183.123 43.436V46.34H184.167V47.384H183.123V51.116L184.179 50.756L184.263 51.188ZM187.299 45.596H185.391V47.792H187.299V45.596ZM188.175 47.792H190.143V45.596H188.175V47.792ZM186.183 45.788C186.527 46.26 186.807 46.716 187.023 47.156L186.375 47.636C186.263 47.412 186.123 47.164 185.955 46.892C185.795 46.62 185.651 46.4 185.523 46.232L186.183 45.788ZM188.343 47.12C188.711 46.672 189.015 46.232 189.255 45.8L189.927 46.256C189.695 46.664 189.383 47.116 188.991 47.612L188.343 47.12ZM185.955 54.188H184.959V49.424H190.491V54.188H189.483V53.708H185.955V54.188ZM189.483 51.104V50.3H185.955V51.104H189.483ZM185.955 51.992V52.844H189.483V51.992H185.955ZM205.832 48.92C206.128 49.568 206.472 50.124 206.864 50.588C207.264 51.044 207.752 51.452 208.328 51.812C208.904 52.172 209.616 52.508 210.464 52.82L209.84 53.876C208.48 53.324 207.4 52.668 206.6 51.908C205.808 51.148 205.144 50.152 204.608 48.92H202.856V52.616L205.628 51.584L205.664 52.808C205.432 52.88 204.968 53.048 204.272 53.312C203.576 53.576 203.004 53.804 202.556 53.996C202.38 54.068 202.22 54.148 202.076 54.236C202.028 54.268 201.956 54.308 201.86 54.356L201.308 53.144C201.484 53.08 201.6 53.008 201.656 52.928C201.712 52.848 201.74 52.736 201.74 52.592V48.92H199.952V47.828H201.74V43.4L202.856 43.448V47.828H210.176V48.92H205.832ZM209.156 44.696C208.38 45.192 207.548 45.656 206.66 46.088C205.78 46.512 204.884 46.88 203.972 47.192L203.552 46.124C205.296 45.532 206.984 44.7 208.616 43.628L209.156 44.696Z" fill="white"/>
<path d="M54.0037 35C50.5741 35 47.7661 34.1191 45.5582 32.3572C43.3611 30.5657 42.1715 28.0021 42 24.6863H49.1486C49.9739 24.6863 50.7241 25.2406 51.0242 26.0918C51.1743 26.5273 51.3993 26.8836 51.6673 27.1509C52.1925 27.6656 52.8784 27.9229 53.7144 27.9229C54.4646 27.9229 55.0755 27.725 55.5578 27.329C56.0615 26.9034 56.308 26.3293 56.308 25.5969C56.308 24.6566 55.9007 23.9241 55.0969 23.4094C54.2931 22.8947 52.9748 22.3107 51.1636 21.6773C49.2451 20.9745 47.6803 20.3113 46.48 19.668C45.3117 18.9949 44.2829 18.0447 43.3826 16.7876C42.5252 15.5108 42.0965 13.8479 42.0965 11.8089C42.0965 9.76995 42.568 7.9784 43.5219 6.5135C44.4651 5.0189 45.7833 3.90042 47.4553 3.13827C49.1272 2.37612 51.0242 2 53.1356 2C56.5652 2 59.2982 2.88092 61.3239 4.64277C63.3816 6.37493 64.4856 8.82963 64.6249 11.9871H57.0475C56.3938 11.9871 55.7614 11.5714 55.5471 10.8785C55.4077 10.4331 55.1827 10.0768 54.8826 9.78974C54.3788 9.30474 53.7251 9.05729 52.9212 9.05729C52.3103 9.05729 51.8066 9.25525 51.4208 9.65117C51.0349 10.0471 50.8313 10.6113 50.8313 11.3437C50.8313 11.9475 51.0349 12.482 51.4637 12.9373C51.9138 13.3629 52.4497 13.7391 53.0927 14.0756C53.7358 14.3824 54.6789 14.7783 55.9329 15.2633C57.7978 15.9661 59.3304 16.659 60.5308 17.3617C61.7526 18.0348 62.8029 18.985 63.6603 20.2421C64.5499 21.4595 65 23.0135 65 24.8941C65 26.7747 64.5499 28.5267 63.6603 30.051C62.7922 31.5753 61.5275 32.7729 59.8555 33.6539C58.2157 34.5348 56.2651 34.9802 54.0037 34.9802V35Z" fill="white"/>
<path d="M96 3V35H88.2389V23.5229C88.2389 22.765 87.7107 22.1547 87.0605 22.1547H79.9191C79.2893 22.1547 78.7712 22.7552 78.7712 23.4835V32.677C78.7712 33.9566 77.8671 35 76.7395 35H71V3H78.7611V13.3156C78.7611 14.2605 79.4214 15.0283 80.2341 15.0283H86.644C87.5177 15.0283 88.2288 14.2015 88.2288 13.1876V3H95.9898H96Z" fill="white"/>
<path d="M109.716 3V21.3832C109.716 23.0889 110.061 24.4048 110.74 25.3405C111.45 26.2665 112.525 26.7344 113.944 26.7344C115.364 26.7344 116.439 26.2665 117.148 25.3405C117.888 24.3853 118.253 23.0597 118.253 21.3832V7.60067C118.253 5.05666 120.068 3 122.299 3H126V21.3832C126 24.2878 125.463 26.7734 124.378 28.8398C123.293 30.8769 121.823 32.417 119.947 33.4697C118.101 34.4931 116.043 35 113.782 35C111.521 35 109.483 34.4931 107.688 33.4697C105.924 32.417 104.525 30.8769 103.501 28.8398C102.497 26.8026 102 24.3171 102 21.3832V7.23028C102 4.89095 103.663 3 105.721 3H109.706H109.716Z" fill="white"/>
<path d="M140.027 26.1286C140.027 27.2708 140.847 28.1963 141.866 28.1963H148.004C149.107 28.1963 150 29.1809 150 30.4018V35H132V3H137.432C138.861 3 140.027 4.28985 140.027 5.87508V26.1286Z" fill="white"/>
<path d="M202.311 35L196.576 25.964L191.678 35H182.333L191.925 18.6112L182 3H190.303C191.162 3 191.968 3.46263 192.462 4.24023L197.252 11.8096L201.205 4.52568C201.721 3.58074 202.644 3 203.643 3H211.366L201.903 19.1132L212 35H202.322H202.311Z" fill="white"/>
<path d="M163.201 9.34555V13.3831C163.201 14.1227 163.737 14.7323 164.401 14.7323H174.746V21.7081H164.401C163.737 21.7081 163.201 22.3077 163.201 23.0572V27.6545H176V35H155V2H176V9.34555H163.201Z" fill="white"/>
<defs>
<clipPath id="clip0_269_549">
<rect width="37" height="37" fill="white"/>
</clipPath>
</defs>
</svg>
