<svg width="24" height="25" viewBox="0 0 24 25" fill="none" xmlns="http://www.w3.org/2000/svg">
<path d="M8.21053 8.71053C6.46864 10.4524 3.09205 10.994 1.25847 11.1618C0.561642 11.2256 0 11.8003 0 12.5C0 13.1997 0.561642 13.7744 1.25847 13.8382C3.09205 14.006 6.46864 14.5476 8.21053 16.2895C9.95241 18.0314 10.494 21.4079 10.6618 23.2415C10.7256 23.9384 11.3003 24.5 12 24.5C12.6997 24.5 13.2744 23.9384 13.3382 23.2415C13.506 21.4079 14.0476 18.0314 15.7895 16.2895C17.5314 14.5476 20.9079 14.006 22.7415 13.8382C23.4384 13.7744 24 13.1997 24 12.5C24 11.8003 23.4384 11.2256 22.7415 11.1618C20.9079 10.994 17.5314 10.4524 15.7895 8.71053C14.0476 6.96864 13.506 3.59205 13.3382 1.75847C13.2744 1.06164 12.6997 0.5 12 0.5C11.3003 0.5 10.7256 1.06164 10.6618 1.75847C10.494 3.59205 9.95241 6.96864 8.21053 8.71053Z" fill="white"/>
</svg>
