<svg width="20" height="20" viewBox="0 0 20 20" fill="none" xmlns="http://www.w3.org/2000/svg">
<path d="M2.31454 9.66417C2.2375 9.50129 2.16589 9.33617 2.10053 9.169C1.83035 8.47804 1.66675 7.75175 1.66675 7C1.66675 4.51471 3.70182 2.5 6.21221 2.5C7.79325 2.5 9.18575 3.29913 10.0001 4.51167C10.8144 3.29913 12.2069 2.5 13.788 2.5C16.2983 2.5 18.3334 4.51471 18.3334 7C18.3334 10.2353 15.3031 13 13.788 14.5C12.7779 15.5 11.5152 16.5 10.0001 17.5C8.48491 16.5 7.22229 15.5 6.21221 14.5C6.05966 14.349 5.89179 14.1852 5.71316 14.0093" stroke="#333333" stroke-width="1.66667" stroke-linejoin="round"/>
<path d="M3.33325 12.4889L7.964 7.93319L10.6575 10.7108L14.6924 6.59119" stroke="#333333" stroke-width="1.66667" stroke-linejoin="round"/>
</svg>
