<svg width="25" height="24" viewBox="0 0 25 24" fill="none" xmlns="http://www.w3.org/2000/svg">
<path d="M17.6765 8.66347C19.2198 9.77064 21.1105 10.4221 23.1525 10.4221V6.47861C22.7661 6.47869 22.3806 6.43825 22.0025 6.35786V9.46193C19.9606 9.46193 18.0702 8.81049 16.5265 7.7034V15.7509C16.5265 19.7766 13.2745 23.0399 9.26333 23.0399C7.76666 23.0399 6.37556 22.5858 5.21997 21.807C6.53888 23.1604 8.37821 24 10.4131 24C14.4245 24 17.6766 20.7367 17.6766 16.7108V8.66347H17.6765ZM19.0951 4.68499C18.3064 3.82023 17.7885 2.70267 17.6765 1.46717V0.959961H16.5867C16.861 2.53028 17.7966 3.87187 19.0951 4.68499ZM7.75706 18.7178C7.31638 18.1379 7.07824 17.4286 7.07931 16.6992C7.07931 14.858 8.56672 13.3651 10.4018 13.3651C10.7438 13.365 11.0837 13.4176 11.4096 13.5214V9.48977C11.0287 9.43739 10.6443 9.41515 10.2601 9.4233V12.5613C9.93394 12.4575 9.59384 12.4048 9.25177 12.4051C7.41671 12.4051 5.92938 13.8979 5.92938 15.7393C5.92938 17.0414 6.67284 18.1687 7.75706 18.7178Z" fill="#FF004F"/>
<path d="M16.5265 7.70332C18.0702 8.81041 19.9607 9.46185 22.0025 9.46185V6.35778C20.8628 6.11414 19.8538 5.5164 19.0951 4.68499C17.7966 3.87179 16.861 2.5302 16.5867 0.959961H13.7241V16.7106C13.7176 18.5468 12.2327 20.0336 10.4016 20.0336C9.32257 20.0336 8.36394 19.5174 7.75682 18.7178C6.67269 18.1687 5.92923 17.0413 5.92923 15.7394C5.92923 13.8981 7.41655 12.4052 9.25161 12.4052C9.6032 12.4052 9.94208 12.4602 10.26 12.5614V9.42338C6.31921 9.50509 3.1499 12.7365 3.1499 16.7107C3.1499 18.6946 3.93913 20.4931 5.22006 21.8071C6.37565 22.5858 7.76675 23.04 9.26342 23.04C13.2747 23.04 16.5265 19.7765 16.5265 15.7509V7.70332H16.5265Z" fill="black"/>
<path d="M22.0025 6.3578V5.51848C20.9748 5.52005 19.9672 5.23119 19.0952 4.68493C19.8671 5.53306 20.8835 6.11787 22.0025 6.3578ZM16.5867 0.959983C16.5605 0.809911 16.5404 0.658851 16.5265 0.507214V0H12.574V15.7508C12.5677 17.5868 11.0829 19.0736 9.25164 19.0736C8.714 19.0736 8.20638 18.9455 7.75685 18.7179C8.36397 19.5174 9.32259 20.0336 10.4016 20.0336C12.2326 20.0336 13.7177 18.5469 13.7241 16.7107V0.959983H16.5867ZM10.2601 9.42341V8.52989C9.92988 8.48459 9.59691 8.46186 9.26353 8.46202C5.25192 8.46194 2 11.7254 2 15.7508C2 18.2745 3.27806 20.4987 5.22017 21.807C3.93924 20.493 3.15001 18.6944 3.15001 16.7106C3.15001 12.7365 6.31924 9.50511 10.2601 9.42341Z" fill="#00F2EA"/>
</svg>
