<svg width="31" height="31" viewBox="0 0 31 31" fill="none" xmlns="http://www.w3.org/2000/svg">
<g clip-path="url(#clip0_7328_7327)">
<path d="M26.0871 5.142C23.2553 2.31025 19.492 0.75 15.4869 0.75C11.4831 0.75 7.71924 2.31025 4.88876 5.1425C2.05727 7.9755 0.498047 11.743 0.498047 15.75C0.497298 19.7577 2.05528 23.524 4.88651 26.359C7.7165 29.1895 11.4808 30.75 15.4842 30.75C19.4893 30.75 23.2548 29.1885 26.0871 26.356C31.9301 20.5082 31.9311 10.9923 26.0871 5.142ZM24.7057 24.9735C22.2426 27.438 18.9678 28.7965 15.4842 28.7965C12.0031 28.7965 8.72901 27.4385 6.26741 24.9765C3.80607 22.5128 2.45064 19.236 2.45139 15.75C2.45139 12.2645 3.80732 8.9875 6.26941 6.5245C8.73151 4.06125 12.0046 2.705 15.4869 2.705C18.9695 2.705 22.2431 4.06125 24.7057 6.52475C29.7877 11.6115 29.7877 19.8885 24.7057 24.9735ZM21.9641 19.426L16.7826 16.4275V8.25C16.7826 7.56 16.2232 7 15.5334 7C14.844 7 14.2846 7.55975 14.2846 8.25V17.0002C14.2846 17.464 14.8605 17.8528 15.2352 18.0678C15.3388 18.2238 15.6235 18.3652 15.7974 18.4653L20.9501 21.5905C21.547 21.9352 22.1941 21.7303 22.5388 21.133C22.8834 20.535 22.5625 19.7712 21.9641 19.426Z" fill="white"/>
</g>
<defs>
<clipPath id="clip0_7328_7327">
<rect width="30" height="30" fill="white" transform="translate(0.498047 0.75)"/>
</clipPath>
</defs>
</svg>
