<svg width="16" height="16" viewBox="0 0 16 16" fill="none" xmlns="http://www.w3.org/2000/svg">
<g clip-path="url(#clip0_2744_2485)">
<path d="M7.99992 14.6663C9.84085 14.6663 11.5075 13.9201 12.714 12.7137C13.9204 11.5073 14.6666 9.84061 14.6666 7.99967C14.6666 6.15874 13.9204 4.49207 12.714 3.28563C11.5075 2.0792 9.84085 1.33301 7.99992 1.33301C6.15899 1.33301 4.49232 2.0792 3.28587 3.28563C2.07945 4.49207 1.33325 6.15874 1.33325 7.99967C1.33325 9.84061 2.07945 11.5073 3.28587 12.7137C4.49232 13.9201 6.15899 14.6663 7.99992 14.6663Z" stroke="#333333" stroke-width="1.33333" stroke-linejoin="round"/>
<path d="M8 9.54134V8.20801C9.10457 8.20801 10 7.31257 10 6.20801C10 5.10344 9.10457 4.20801 8 4.20801C6.89543 4.20801 6 5.10344 6 6.20801" stroke="#333333" stroke-width="1.33333" stroke-linecap="round" stroke-linejoin="round"/>
<path fill-rule="evenodd" clip-rule="evenodd" d="M8.00008 12.5417C8.46031 12.5417 8.83341 12.1686 8.83341 11.7083C8.83341 11.2481 8.46031 10.875 8.00008 10.875C7.53985 10.875 7.16675 11.2481 7.16675 11.7083C7.16675 12.1686 7.53985 12.5417 8.00008 12.5417Z" fill="#333333"/>
</g>
<defs>
<clipPath id="clip0_2744_2485">
<rect width="16" height="16" fill="white"/>
</clipPath>
</defs>
</svg>
