<svg width="231" height="66" viewBox="0 0 231 66" fill="none" xmlns="http://www.w3.org/2000/svg">
<path d="M30.8862 24.813L30.0569 25.8792C28.1878 28.2486 26.9241 29.8149 26.266 30.5784H34.3612V34.9617H1.78285V30.5784H9.91757C9.41738 29.9466 8.983 29.4069 8.61444 28.9594C7.19283 27.1429 6.1398 25.8397 5.45532 25.05L7.62721 23.115H3.87577V18.6133H15.604V15.6911H8.18006V13.3217C6.31092 14.4801 4.31014 15.5595 2.17774 16.5598L0.00585431 11.9791C7.45609 8.89899 12.8924 4.96327 16.3148 0.171945H20.0662C21.7511 2.51495 23.9625 4.67368 26.7004 6.64813C29.4382 8.59624 32.5974 10.2811 36.1777 11.7027L34.2032 16.3229C32.1498 15.4805 30.0701 14.4143 27.964 13.1243V15.6911H20.5401V18.6133H32.3078V23.115H28.5958L30.8862 24.813ZM11.4576 11.1499H24.9234C22.1591 9.20174 19.8951 7.26678 18.1313 5.34499C16.6307 7.13515 14.4061 9.07011 11.4576 11.1499ZM9.52268 23.115C11.2602 25.1684 12.7476 26.9586 13.9849 28.4855L11.4181 30.5784H15.604V23.115H9.52268ZM20.5401 23.115V30.5784H24.5285L22.0801 28.367C23.6071 26.6558 25.0418 24.9052 26.3844 23.115H20.5401ZM74.4967 25.6028V29.9071H66.8754V35.6725H62.2552V29.9071H52.6989V25.6028H55.5026L54.3969 24.0627C55.8975 23.273 57.0558 22.5227 57.8719 21.8119H53.7651V3.60748H59.9253L60.952 0.645813L65.6907 1.0407L64.7035 3.60748H72.7197V21.8119H62.9265C62.0314 23.1018 60.7678 24.3655 59.1355 25.6028H62.2552V22.8781L66.8754 23.0755V25.6028H74.4967ZM45.7488 15.7306V18.4948H51.9486V35.554H47.8812V23.194H45.6698C45.5645 25.5107 45.3013 27.722 44.8801 29.8281C44.4852 31.9342 43.8402 33.9876 42.9451 35.9884L38.4039 34.3693C39.6149 31.921 40.4046 29.5517 40.7732 27.2613C41.1418 24.971 41.326 22.1804 41.326 18.8897V2.14639L45.7488 2.34383V10.9919H47.6443V1.47508L51.6721 1.67253V10.9919H52.8963V15.7306H45.7488ZM61.1495 10.6365V7.95126H57.9114V10.6365H61.1495ZM65.3353 10.6365H68.4154V7.95126H65.3353V10.6365ZM57.9114 14.8223V17.5471H60.5966C60.8072 16.8363 60.952 15.928 61.031 14.8223H57.9114ZM68.4154 17.5471V14.8223H65.2168C65.0589 16.0333 64.9141 16.9416 64.7825 17.5471H68.4154ZM96.3094 25.2079H85.1735L82.8042 32H76.565L86.7926 4.5947H94.8483L104.997 32H98.6393L96.3094 25.2079ZM94.5719 20.2323L91.0179 9.84673H90.544L86.911 20.2323H94.5719ZM108.101 4.5947H114.103V32H108.101V4.5947ZM153.421 2.97566V7.16148H147.616L148.761 9.13593L144.694 10.6365C144.247 9.68877 143.641 8.53043 142.878 7.16148H141.219C140.851 7.81963 140.363 8.59624 139.758 9.49133L138.494 8.93848L138.889 10.8339H152.631V16.6388H148.84V24.734H128.622V26.2346H149.749V35.396H123.568V16.6388H120.329V10.8339H122.462L119.026 8.38564C120.211 7.17464 121.356 5.83202 122.462 4.35777C123.594 2.85719 124.449 1.44875 125.029 0.132457L129.886 0.843257C129.544 1.63303 129.175 2.34383 128.78 2.97566H137.033V5.46346C137.481 4.70001 137.863 3.93655 138.178 3.1731C138.521 2.38332 138.916 1.3961 139.363 0.211433L144.22 0.76428C144.062 1.18549 143.931 1.50141 143.825 1.71201C143.615 2.29118 143.444 2.7124 143.312 2.97566H153.421ZM134.19 10.8339L133.756 8.97797L138.139 8.78053L135.572 7.67484L135.967 7.16148H132.097L133.084 9.33337L128.899 10.676C128.398 9.3597 127.911 8.18819 127.437 7.16148H126.016C125.094 8.45145 124.12 9.67561 123.094 10.8339H134.19ZM125.463 15.9675H147.458V14.5459H125.463V15.9675ZM128.622 21.2985H143.825V19.5215H128.622V21.2985ZM144.655 31.842V29.8281H128.622V31.842H144.655ZM183.25 30.4599H192.609V34.9222H169.508V30.9733C167.586 31.3682 165.427 31.8289 163.032 32.3554C160.662 32.8819 159.096 33.2505 158.333 33.4611L157.622 28.8409C158.175 28.7619 159.794 28.446 162.479 27.8932V19.2451H159.004V14.6644H162.479V7.71433H158.727V3.13361H170.298V7.71433H166.981V14.6644H170.061V19.2451H166.981V26.8664C167.981 26.6032 168.415 26.4979 168.284 26.5505C168.995 26.3926 169.705 26.2215 170.416 26.0372L170.772 30.4599H178.788V28.0116H171.324V23.5889H178.788V21.1406H171.166V1.94895H190.832V21.1406H183.25V23.5889H190.832V28.0116H183.25V30.4599ZM178.788 9.41235V6.45068H175.708V9.41235H178.788ZM183.25 9.41235H186.409V6.45068H183.25V9.41235ZM178.788 13.7561H175.708V16.7178H178.788V13.7561ZM183.25 13.7561V16.7178H186.409V13.7561H183.25ZM204.747 0.882746L209.13 1.08019V15.4542C209.13 19.2188 208.906 22.2726 208.459 24.6156C208.011 26.9323 207.235 28.9857 206.129 30.7758C205.023 32.5397 203.391 34.422 201.232 36.4228L197.244 33.3426C199.429 31.5261 201.035 29.9203 202.062 28.525C203.088 27.1034 203.786 25.458 204.155 23.5889C204.549 21.7197 204.747 19.1266 204.747 15.8096V0.882746ZM230.967 6.60864H222.359V9.88622H229.704V26.5505C229.704 27.7615 229.599 28.6566 229.388 29.2358C229.177 29.7886 228.796 30.1967 228.243 30.4599C227.69 30.6969 226.821 30.8811 225.636 31.0128L223.899 31.2102L222.714 26.59L224.254 26.3926C224.807 26.3399 225.149 26.2215 225.281 26.0372C225.439 25.8266 225.518 25.4054 225.518 24.7735V14.5459H222.359V35.7909H218.055V14.5459H215.014V31.0523H210.749V9.88622H218.055V6.60864H210.433V2.02792H230.967V6.60864ZM198.389 3.37055L202.496 3.56799V26.6295H198.389V3.37055Z" fill="#4D4D4D"/>
<path fill-rule="evenodd" clip-rule="evenodd" d="M116.224 50L118.204 56.108H124.612L119.428 59.876L121.408 65.972L116.224 62.204L111.028 65.972L113.008 59.876L107.824 56.108H114.244L116.224 50Z" fill="#FF9729"/>
<path fill-rule="evenodd" clip-rule="evenodd" d="M139.948 52.9041L141.208 56.792H145.3L141.988 59.192L143.248 63.08L139.948 60.68L136.636 63.08L137.896 59.192L134.596 56.792H138.688L139.948 52.9041Z" fill="#FF9729"/>
<path fill-rule="evenodd" clip-rule="evenodd" d="M92.5004 52.9041L93.7604 56.792H97.8404L94.5404 59.192L95.8004 63.08L92.5004 60.68L89.1885 63.08L90.4484 59.192L87.1484 56.792H91.2284L92.5004 52.9041Z" fill="#FF9729"/>
</svg>
