<svg width="25" height="133" viewBox="0 0 25 133" fill="none" xmlns="http://www.w3.org/2000/svg">
<path d="M6.04169 4.79036C4.94169 6.89036 6.03169 9.22035 7.71169 11.0903C8.66169 12.1403 10.3917 11.7404 10.8217 10.3904C11.7417 7.46036 12.2117 3.18035 6.70169 3.88035C6.44169 4.15035 6.22169 4.46036 6.04169 4.79036Z" fill="#825534"/>
<path d="M6.30157 56.1204C5.86157 66.3004 11.5516 71.3704 12.2316 71.9404C9.79157 69.8004 8.34157 63.6204 8.46157 56.8704C7.70157 56.7204 6.98157 56.4804 6.30157 56.1204Z" fill="#825534"/>
<path d="M6.30078 56.1204C6.97078 56.4804 7.69078 56.7204 8.46078 56.8704C8.57078 50.4604 10.1208 43.5604 13.6008 39.1704C17.6008 34.1504 18.9808 28.0804 19.4208 23.6804C18.9308 24.3004 18.4208 24.9004 17.9008 25.4804C16.5708 31.5104 16.7808 27.4004 9.70078 43.0504C7.42078 48.0804 6.46078 52.4404 6.30078 56.1204Z" fill="#825534"/>
<path d="M17.3327 46.1504C15.8327 48.0204 15.3727 50.9004 18.6127 53.2904L18.8127 53.5204C19.6927 52.6804 20.4127 51.6704 20.8827 50.5404C21.2927 49.5604 21.4727 48.4804 21.4127 47.4204C21.2827 45.2804 18.6827 44.4904 17.3327 46.1504Z" fill="#825534"/>
<path d="M17.9023 25.4704C18.4323 24.8904 18.9323 24.2904 19.4223 23.6704C19.7623 20.1504 19.5023 17.7004 19.5023 17.7004C18.7423 21.4404 18.2623 23.8304 17.9023 25.4704Z" fill="#825534"/>
<path d="M6.70169 3.88035C6.44169 4.16035 6.22169 4.46033 6.04169 4.80033C4.94169 6.90033 6.03169 9.23035 7.71169 11.1004C8.66169 12.1504 10.3917 11.7503 10.8217 10.4003C11.7417 7.46034 12.2117 3.18035 6.70169 3.88035Z" stroke="#825534" stroke-miterlimit="10"/>
<path d="M18.6116 53.2902C15.3716 50.9002 15.8216 48.0202 17.3316 46.1502C18.6916 44.4902 21.2816 45.2802 21.4116 47.4202C21.4716 48.4802 21.2916 49.5702 20.8816 50.5402C20.4116 51.6702 19.6916 52.6802 18.8116 53.5202C17.9616 54.3502 16.9716 55.0502 15.9316 55.6102C13.6816 56.8202 10.9116 57.3502 8.4616 56.8602C7.6916 56.7202 6.97161 56.4702 6.30161 56.1102C5.53161 55.7102 4.8416 55.1802 4.2616 54.4802C3.3416 53.3702 2.8016 51.9702 2.5316 50.5502C1.4716 44.9002 4.5516 39.2702 8.3816 35.0102C11.3816 31.6702 14.9116 28.8002 17.9016 25.4702C18.4316 24.8902 18.9316 24.2902 19.4216 23.6702C19.7016 23.3202 19.9716 22.9602 20.2416 22.5802C24.1316 17.1302 25.8816 9.18022 20.6416 4.05022C17.2516 0.740215 12.1316 0.260227 8.1016 2.75023C7.6016 3.06023 7.1016 3.44022 6.7016 3.87022" stroke="#825534" stroke-miterlimit="10"/>
<path d="M6.04169 128.51C4.94169 126.4 6.03169 124.07 7.71169 122.2C8.66169 121.16 10.3917 121.56 10.8217 122.9C11.7417 125.83 12.2117 130.13 6.70169 129.41C6.44169 129.15 6.22169 128.85 6.04169 128.51Z" fill="#825534"/>
<path d="M6.3025 77.1601C5.8725 66.9901 11.5525 61.9201 12.2325 61.3601C9.7925 63.5001 8.3425 69.6801 8.4625 76.4301C7.7125 76.5701 6.9825 76.8101 6.3025 77.1601Z" fill="#825534"/>
<path d="M6.30078 77.1602C6.97078 76.8102 7.70078 76.5702 8.46078 76.4202C8.57078 82.8302 10.1108 89.7301 13.6008 94.1201C17.6108 99.1501 18.9908 105.22 19.4208 109.62C18.9308 109 18.4208 108.4 17.9008 107.82C16.5708 101.78 16.7808 105.9 9.70078 90.2401C7.41078 85.2001 6.46078 80.8402 6.30078 77.1602Z" fill="#825534"/>
<path d="M17.3327 87.15C15.8327 85.28 15.3727 82.4 18.6127 80L18.8127 79.77C19.6927 80.63 20.4127 81.62 20.8827 82.75C21.2927 83.73 21.4727 84.81 21.4127 85.87C21.2827 88.02 18.6827 88.82 17.3327 87.15Z" fill="#825534"/>
<path d="M17.9023 107.83C18.4323 108.41 18.9323 109.01 19.4223 109.63C19.7623 113.14 19.5023 115.59 19.5023 115.59C18.7423 111.85 18.2623 109.47 17.9023 107.83Z" fill="#825534"/>
<path d="M6.70169 129.41C6.44169 129.14 6.22169 128.84 6.04169 128.51C4.94169 126.4 6.03169 124.07 7.71169 122.2C8.66169 121.16 10.3917 121.56 10.8217 122.9C11.7417 125.83 12.2117 130.13 6.70169 129.41Z" stroke="#825534" stroke-miterlimit="10"/>
<path d="M18.6116 80.0001C15.3716 82.4001 15.8216 85.2801 17.3316 87.1501C18.6916 88.8101 21.2816 88.0201 21.4116 85.8701C21.4716 84.8101 21.2916 83.7201 20.8816 82.7501C20.4116 81.6201 19.6916 80.6301 18.8116 79.7701C17.9616 78.9501 16.9716 78.2501 15.9316 77.6901C13.6816 76.4801 10.9116 75.9501 8.4616 76.4201C7.7016 76.5601 6.97161 76.8101 6.30161 77.1601C5.53161 77.5601 4.8416 78.1001 4.2616 78.8001C3.3416 79.9101 2.8016 81.3101 2.5316 82.7301C1.4716 88.3801 4.5516 94.0101 8.3816 98.2801C11.3816 101.62 14.9116 104.49 17.9016 107.82C18.4316 108.4 18.9316 109 19.4216 109.62C19.7016 109.97 19.9716 110.33 20.2416 110.71C24.1316 116.16 25.8816 124.11 20.6416 129.23C17.2516 132.55 12.1316 133.03 8.1016 130.53C7.6016 130.22 7.1016 129.85 6.7016 129.41" stroke="#825534" stroke-miterlimit="10"/>
<path d="M4.90125 70.2903L8.53125 66.6502L4.90125 63.0103L1.28125 66.6502L4.90125 70.2903Z" stroke="#825534" stroke-miterlimit="10"/>
</svg>
