<svg width="372" height="109" viewBox="0 0 372 109" fill="none" xmlns="http://www.w3.org/2000/svg">
<path d="M38.9505 70.36C36.8205 70.68 34.4705 70.89 31.9205 70.89C26.2705 70.89 21.1605 69.72 16.4705 67.48C11.4605 64.92 7.52046 61.3 4.85046 56.72C1.97046 51.6 0.480469 45.85 0.480469 39.56C0.480469 32.21 2.29046 25.49 5.92046 19.52C9.86046 13.12 15.0905 8.86001 21.8005 6.62001C13.1705 13.76 8.90047 22.39 8.90047 32.73C8.90047 39.12 11.0305 45.2 15.4005 50.95C16.3605 49.14 16.8905 46.37 16.8905 42.85V17.48L37.5705 0C44.2805 4.05 51.3205 6.07001 58.4605 6.07001L49.2905 16.09C44.7105 14.28 39.8005 12.47 34.6905 10.76V61.28C35.8605 61.28 38.6305 61.81 39.8105 61.81C44.2905 61.81 48.6605 60.43 52.8105 57.65C53.2405 57.33 55.6905 55.52 60.2705 52.11L60.8005 52.22C55.4705 62.8 48.2205 68.87 38.9505 70.36ZM32.1305 9.08L27.5505 12.81V32.85C27.5505 37.01 26.5905 40.52 24.6705 43.61C23.1805 45.95 20.5105 48.73 16.7805 52.03C20.5105 56.4 25.6305 59.38 32.1305 60.98V9.08Z" fill="#4B4C50"/>
<path d="M75.7213 47.77V58.85L84.6712 62.79L91.7012 58.31L92.8712 59.59C91.0612 60.76 89.1412 62.04 87.0112 63.53L77.7413 70.03C73.0513 67.47 68.1512 65.66 63.0312 64.7C65.0512 62.57 66.0112 60.01 66.0112 56.92V28.46C70.9112 26.22 75.7112 23.34 80.4012 20.04L94.1512 33.79C86.3712 39.24 80.3013 43.83 75.7213 47.77ZM75.6113 26.99V45.32L85.7312 37.33L75.6113 26.99Z" fill="#4B4C50"/>
<path d="M123.881 33.8101L117.491 27.5201L113.331 30.7201V58.3201L119.091 62.8001L122.181 60.5601L123.461 61.8401L113.761 70.1501C109.711 66.6301 105.131 63.9701 100.121 62.0501C102.041 60.4501 103.001 57.8901 103.001 54.3801V32.9601C103.001 31.1501 102.151 29.4401 100.441 28.0601L98.6309 29.2301L97.4609 28.0601L106.521 20.0701C108.761 21.2401 110.251 22.3101 111.101 23.2701C112.171 24.4401 112.911 26.1501 113.231 28.3901L123.991 20.1801L130.921 27.7501L123.881 33.8101Z" fill="#4B4C50"/>
<path d="M145.941 26.99V58L151.591 62.69L154.571 60.35L155.741 61.84L146.151 70.15C141.251 66.21 136.771 63.44 132.721 62.05C134.641 60.02 135.601 57.47 135.601 54.38V26.88H131.871L131.981 25.39L145.841 8.02002L145.951 21.56H156.821V27H145.941V26.99Z" fill="#4B4C50"/>
<path d="M169.92 70.3599C165.12 67.7999 162.89 64.1799 163.21 59.5999L163.32 57.6799V29.8599L160.23 26.5599L168.12 20.0599L176.33 26.8799L173.67 29.8599V59.3799C173.99 60.7699 174.95 61.9399 176.65 62.7899L178.57 61.5099L179.64 62.4699L169.92 70.3599ZM167.79 15.2599H166.4L168.96 4.38989H176.85L167.79 15.2599Z" fill="#4B4C50"/>
<path d="M201.46 70.15C197.52 67.17 192.4 64.5 186.11 62.05C187.92 60.24 188.77 57.68 188.77 54.38V26.99H183.33L184.29 21.55H188.98V10.68C192.6 9.08004 196.44 6.52004 200.6 2.79004L210.83 5.24004L208.7 12.59L199.53 10.67V21.54H207.52L206.77 26.98H199.52V57.46L207.19 62.36L210.81 59.38L211.98 60.66L201.46 70.15Z" fill="#4B4C50"/>
<path d="M225.01 70.3599C220.21 67.7999 217.98 64.1799 218.3 59.5999L218.41 57.6799V29.8599L215.32 26.5599L223.21 20.0599L231.42 26.8799L228.76 29.8599V59.3799C229.08 60.7699 230.04 61.9399 231.74 62.7899L233.66 61.5099L234.73 62.4699L225.01 70.3599ZM222.88 15.2599H221.49L224.05 4.38989H231.94L222.88 15.2599Z" fill="#4B4C50"/>
<path d="M253.47 70.0401C248.25 66.4201 243.34 64.18 238.76 63.22C240.68 61.51 241.64 58.9601 241.64 55.6501V28.47C246.44 26.45 250.8 23.57 254.75 20.05L265.51 26.7601L260.93 33.2601L251.34 27.8201V58.0901L260.72 62.78L265.3 59.3701L266.37 60.5401C261.99 63.7601 257.73 66.9501 253.47 70.0401Z" fill="#4B4C50"/>
<path d="M300.14 70.15C295.56 67.7 293.32 63.86 293.32 58.64L278.83 70.26H278.3C273.29 65.57 270.73 60.99 270.73 56.62C270.73 50.01 274.25 43.62 281.28 37.33L276.17 24.01L277.56 24.12C281.5 24.44 285.23 23.05 288.54 19.96L303.67 24.97L306.65 22.62L306.86 23.05C305.15 25.71 303.98 28.38 303.24 31.26V59.18C303.77 60.99 304.84 62.06 306.22 62.48L308.14 61.52L309.31 62.48L300.14 70.15ZM293.32 30.72L277.87 24.96L282.35 37.11L293.33 42.44V30.72H293.32ZM293.43 44.36L282.35 38.82C280.32 42.44 279.26 45.96 279.26 49.26C279.26 54.06 281.28 58.53 285.44 62.69L293.43 55.87V44.36Z" fill="#4B4C50"/>
<path d="M326.14 26.99V58L331.79 62.69L334.77 60.35L335.94 61.84L326.35 70.15C321.45 66.21 316.97 63.44 312.92 62.05C314.84 60.02 315.8 57.47 315.8 54.38V26.88H312.07L312.18 25.39L326.03 8.02002L326.14 21.56H337.01V27H326.14V26.99Z" fill="#4B4C50"/>
<path d="M353.53 47.77V58.85L362.48 62.79L369.51 58.31L370.68 59.59C368.87 60.76 366.95 62.04 364.82 63.53L355.55 70.03C350.86 67.47 345.96 65.66 340.84 64.7C342.86 62.57 343.82 60.01 343.82 56.92V28.46C348.72 26.22 353.52 23.34 358.21 20.04L371.96 33.79C364.19 39.24 358.11 43.83 353.53 47.77ZM353.42 26.99V45.32L363.54 37.33L353.42 26.99Z" fill="#4B4C50"/>
<path d="M124.88 100.77C122 103.28 119.21 104.53 116.48 104.53C114.98 104.53 113.6 104.09 112.37 103.24C111.15 102.36 110.27 101.2 109.74 99.7901C109.3 98.6001 109.08 97.3101 109.08 95.9301C109.08 94.0201 109.39 92.1401 110.02 90.2301C111.68 89.2601 113.34 88.1901 115.04 87.0601C116.45 86.1201 118.08 84.9601 119.93 83.6101C122.12 83.8601 124.04 84.5201 125.63 85.5501C127.48 86.7101 128.7 88.2801 129.3 90.1901C129.52 90.9101 129.64 91.6301 129.64 92.3501C129.64 95.1601 128.04 97.9801 124.88 100.77ZM114.38 88.1701C112.56 90.0201 111.65 92.0601 111.65 94.2801C111.65 96.0401 112.28 97.6701 113.56 99.1701C114.09 98.3201 114.37 97.3501 114.37 96.2901V88.1701H114.38ZM118.36 86.6601H117.11V94.4601C117.11 95.3101 116.92 96.0601 116.55 96.7201C116.33 97.1301 115.48 98.1301 114.01 99.7001C115.48 101.17 116.93 101.89 118.37 101.89V86.6601H118.36ZM119.11 86.7601V90.3301C120.24 91.3001 121.33 91.8001 122.43 91.8001C123.53 91.8001 124.5 91.3001 125.41 90.2601C124.28 88.4801 122.18 87.3201 119.11 86.7601ZM122.56 95.0301C121.46 95.0301 120.3 95.5601 119.11 96.6001V101.9C121.9 101.9 124.12 100.24 125.85 96.9201C124.88 95.6601 123.78 95.0301 122.56 95.0301ZM125.79 90.8301C124.69 91.7701 123.53 92.2401 122.31 92.2401C121.24 92.2401 120.18 91.9001 119.14 91.2401V95.7201C120.36 94.9401 121.55 94.5301 122.65 94.5301C123.81 94.5301 124.97 95.0301 126.13 96.0701C126.47 95.1301 126.63 94.3801 126.63 93.7801C126.63 92.7401 126.35 91.7401 125.79 90.8301Z" fill="#4B4C50"/>
<path d="M135.82 104.31C134.66 103.43 133.16 102.65 131.31 101.93C131.84 101.4 132.09 100.64 132.09 99.6702V91.6102H130.49L130.77 90.0102H132.15V86.8102C133.22 86.3402 134.34 85.5902 135.57 84.4902L138.58 85.2102L137.95 87.3702L135.25 86.8102V90.0102H137.6L137.38 91.6102H135.25V100.57L137.51 102.01L138.58 101.13L138.92 101.51L135.82 104.31Z" fill="#4B4C50"/>
<path d="M158.74 104.31C157.39 103.59 156.73 102.46 156.73 100.93L152.47 104.35H152.31C150.84 102.97 150.08 101.62 150.08 100.34C150.08 98.4001 151.11 96.5201 153.18 94.6701L151.68 90.7501L152.09 90.7801C153.25 90.8701 154.35 90.4701 155.32 89.5601L159.77 91.0301L160.65 90.3401L160.71 90.4701C160.21 91.2501 159.86 92.0401 159.64 92.8801V101.09C159.8 101.62 160.11 101.94 160.52 102.06L161.08 101.78L161.42 102.06L158.74 104.31ZM156.74 92.7101L152.19 91.0201L153.51 94.5901L156.74 96.1601V92.7101ZM156.77 96.7201L153.51 95.0901C152.91 96.1601 152.6 97.1901 152.6 98.1601C152.6 99.5701 153.2 100.89 154.42 102.11L156.77 100.1V96.7201Z" fill="#4B4C50"/>
<path d="M171.69 102.65C171.41 102.87 170.78 103.4 169.87 104.22C169.27 103.97 168.4 103.56 167.24 103L167.15 104.13C167.09 104.79 167.18 105.51 167.43 106.26C167.59 106.79 167.99 107.51 168.62 108.36C167.74 108.24 167.02 107.95 166.49 107.48C166.33 107.39 165.99 107.01 165.42 106.38C164.95 106.79 164.57 107.07 164.35 107.23C163.94 107.48 163.54 107.64 163.13 107.7C163.98 106.67 164.35 105.57 164.32 104.35L164.26 102.28C164.01 102.19 163.7 102.15 163.35 102.15H162.66V101.24C163 101.08 163.57 100.9 164.32 100.68V93.53C164.32 92.59 164.07 91.9601 163.6 91.6801L162.85 92.1501L162.51 91.9001L165.14 89.55C166.39 90.21 167.11 91.2101 167.3 92.6201L170.53 89.58C172.63 90.3 173.66 91.9001 173.66 94.3801V101.34C173.07 101.68 172.41 102.11 171.69 102.65ZM170.87 93.6501C170.87 92.9901 169.87 92.15 169.11 91.89L167.23 93.55V100.73C168.51 101.08 169.71 101.45 170.87 101.86V93.6501Z" fill="#4B4C50"/>
<path d="M184.1 102.65C183.82 102.87 183.19 103.4 182.28 104.22C181.68 103.97 180.81 103.56 179.65 103L179.56 104.13C179.5 104.79 179.59 105.51 179.84 106.26C180 106.79 180.4 107.51 181.03 108.36C180.15 108.24 179.43 107.95 178.9 107.48C178.74 107.39 178.4 107.01 177.83 106.38C177.36 106.79 176.98 107.07 176.76 107.23C176.35 107.48 175.94 107.64 175.54 107.7C176.39 106.67 176.76 105.57 176.73 104.35L176.67 102.28C176.42 102.19 176.11 102.15 175.76 102.15H175.07V101.24C175.41 101.08 175.98 100.9 176.73 100.68V93.53C176.73 92.59 176.48 91.9601 176.01 91.6801L175.26 92.1501L174.92 91.9001L177.55 89.55C178.8 90.21 179.52 91.2101 179.71 92.6201L182.94 89.58C185.04 90.3 186.07 91.9001 186.07 94.3801V101.34C185.48 101.68 184.83 102.11 184.1 102.65ZM183.29 93.6501C183.29 92.9901 182.29 92.15 181.53 91.89L179.65 93.55V100.73C180.93 101.08 182.13 101.45 183.29 101.86V93.6501Z" fill="#4B4C50"/>
<path d="M195.051 93.6201L193.171 91.7701L191.951 92.7101V100.83L193.641 102.15L194.551 101.49L194.931 101.87L192.081 104.31C190.891 103.28 189.541 102.49 188.071 101.93C188.631 101.46 188.921 100.71 188.921 99.6701V93.3701C188.921 92.8401 188.671 92.3401 188.171 91.9301L187.641 92.2701L187.291 91.9301L189.951 89.5801C190.611 89.9201 191.051 90.2401 191.301 90.5201C191.611 90.8601 191.831 91.3701 191.931 92.0201L195.101 89.6101L197.141 91.8401L195.051 93.6201Z" fill="#4B4C50"/>
<path d="M201.41 97.7301V100.99L204.04 102.15L206.11 100.83L206.45 101.21C205.92 101.55 205.35 101.93 204.73 102.37L202 104.28C200.62 103.53 199.18 102.99 197.67 102.71C198.26 102.08 198.55 101.33 198.55 100.42V92.0501C199.99 91.3901 201.4 90.5501 202.78 89.5701L206.82 93.6101C204.55 95.2201 202.76 96.5701 201.41 97.7301ZM201.38 91.6101V97.0001L204.36 94.6501L201.38 91.6101Z" fill="#4B4C50"/>
<path d="M212.291 104.28C210.751 103.21 209.311 102.56 207.961 102.27C208.521 101.77 208.811 101.02 208.811 100.04V92.0501C210.221 91.4501 211.511 90.6101 212.671 89.5701L215.841 91.5401L214.491 93.4501L211.671 91.8501V100.75L214.431 102.13L215.781 101.13L216.091 101.47C214.801 102.43 213.551 103.37 212.291 104.28Z" fill="#4B4C50"/>
<path d="M220.13 104.37C218.72 103.62 218.06 102.55 218.15 101.2L218.18 100.64V92.4602L217.27 91.4902L219.59 89.5802L222 91.5902L221.22 92.4702V101.15C221.31 101.56 221.6 101.9 222.1 102.15L222.66 101.77L222.97 102.05L220.13 104.37ZM219.5 88.1702H219.09L219.84 84.9702H222.16L219.5 88.1702Z" fill="#4B4C50"/>
<path d="M232.73 104.31C231.38 103.59 230.72 102.46 230.72 100.93L226.46 104.35H226.3C224.83 102.97 224.07 101.62 224.07 100.34C224.07 98.4001 225.1 96.5201 227.17 94.6701L225.67 90.7501L226.08 90.7801C227.24 90.8701 228.34 90.4701 229.31 89.5601L233.76 91.0301L234.64 90.3401L234.7 90.4701C234.2 91.2501 233.85 92.0401 233.63 92.8801V101.09C233.79 101.62 234.1 101.94 234.51 102.06L235.07 101.78L235.41 102.06L232.73 104.31ZM230.73 92.7101L226.19 91.0201L227.51 94.5901L230.74 96.1601V92.7101H230.73ZM230.76 96.7201L227.5 95.0901C226.9 96.1601 226.59 97.1901 226.59 98.1601C226.59 99.5701 227.18 100.89 228.41 102.11L230.76 100.1V96.7201Z" fill="#4B4C50"/>
<path d="M240.38 91.61V100.73L242.04 102.11L242.92 101.42L243.26 101.86L240.44 104.3C239 103.14 237.68 102.32 236.49 101.92C237.05 101.32 237.34 100.57 237.34 99.66V91.57H236.24L236.27 91.13L240.35 86.02L240.38 90H243.58V91.6H240.38V91.61Z" fill="#4B4C50"/>
<path d="M247.44 104.37C246.03 103.62 245.37 102.55 245.47 101.2L245.5 100.64V92.4602L244.59 91.4902L246.91 89.5802L249.32 91.5902L248.54 92.4702V101.15C248.63 101.56 248.92 101.9 249.42 102.15L249.98 101.77L250.29 102.05L247.44 104.37ZM246.81 88.1702H246.4L247.15 84.9702H249.47L246.81 88.1702Z" fill="#4B4C50"/>
<path d="M256.97 104.4C255.31 103.18 253.43 102.36 251.33 101.92C251.9 101.45 252.18 100.67 252.18 99.5101V92.0801C253.87 91.6101 255.35 90.7601 256.63 89.5701C258.6 90.8501 260.27 91.5801 261.61 91.7601V101.98C259.73 102.55 258.19 103.37 256.97 104.4ZM258.66 93.3101L255.05 91.9301V100.58C255.74 100.86 256.49 101.18 257.28 101.46C257.84 101.68 258.31 101.84 258.66 101.93V93.3101Z" fill="#4B4C50"/>
<path d="M273.459 104.4C271.959 103.43 271.549 102.52 271.549 100.64V93.1501L270.139 91.9301L267.909 93.5601V101.33L268.759 102.4L266.499 104.41L264.119 102.4L264.999 101.43V93.3701C264.999 92.8401 264.749 92.3401 264.249 91.9301L263.749 92.2701L263.439 91.9301L266.009 89.5801C267.329 90.3601 267.979 91.4601 267.979 92.8701C269.739 91.5901 271.079 90.4901 271.989 89.6401L274.149 91.6501L275.499 90.5801L275.809 90.9201C275.339 91.5201 274.869 92.1701 274.429 92.8901V101.13C274.589 101.51 274.899 101.85 275.309 102.13L275.969 101.75L276.279 102.06L273.459 104.4Z" fill="#4B4C50"/>
</svg>
