<svg width="30" height="30" viewBox="0 0 30 30" fill="none" xmlns="http://www.w3.org/2000/svg">
<g clip-path="url(#clip0_237_2551)">
<path fill-rule="evenodd" clip-rule="evenodd" d="M3.33333 30H26.6667C28.5076 30 30 28.5076 30 26.6667V3.33333C30 1.49238 28.5076 0 26.6667 0H3.33333C1.49238 0 0 1.49238 0 3.33333V26.6667C0 28.5076 1.49238 30 3.33333 30Z" fill="#2DAAE1"/>
<path d="M24.6179 9.03305C23.9104 9.34701 23.1504 9.55925 22.3514 9.65465C23.1669 9.16634 23.7916 8.39256 24.0865 7.47162C23.3119 7.9317 22.4642 8.25559 21.5801 8.42923C20.8607 7.66237 19.8348 7.18359 18.6998 7.18359C16.5212 7.18359 14.7543 8.94972 14.7543 11.1296C14.7543 11.4384 14.7891 11.7398 14.856 12.0291C11.5764 11.8643 8.66888 10.2933 6.7227 7.90624C6.38287 8.48923 6.18835 9.16706 6.18835 9.89027C6.18835 11.2591 6.88507 12.4669 7.94373 13.1743C7.31702 13.1549 6.70407 12.9857 6.15611 12.681V12.7308C6.15611 14.6429 7.51609 16.2372 9.32139 16.5998C8.98976 16.6907 8.64173 16.7382 8.28168 16.7382C8.02711 16.7382 7.78013 16.7141 7.53886 16.6687C8.04102 18.2359 9.49833 19.3766 11.2246 19.4089C9.87407 20.4675 8.17237 21.0986 6.32414 21.0986C6.0058 21.0986 5.69119 21.0796 5.38232 21.0424C7.12889 22.1623 9.20266 22.8161 11.4312 22.8161C18.689 22.8161 22.6584 16.8033 22.6584 11.5889C22.6584 11.4177 22.6546 11.2478 22.6464 11.0784C23.4197 10.5191 24.0873 9.82647 24.6179 9.03305Z" fill="white"/>
</g>
<defs>
<clipPath id="clip0_237_2551">
<rect width="30" height="30" fill="white"/>
</clipPath>
</defs>
</svg>
