<svg width="32" height="33" viewBox="0 0 32 33" fill="none" xmlns="http://www.w3.org/2000/svg">
<rect y="0.281738" width="32" height="32" rx="16" fill="#1971F5" fill-opacity="0.1"/>
<g clip-path="url(#clip0_83_12127)">
<path d="M23.3332 10.2816C22.6948 10.7319 21.9879 11.0763 21.2398 11.3016C20.8383 10.8399 20.3047 10.5127 19.7112 10.3642C19.1177 10.2157 18.4928 10.2531 17.9212 10.4712C17.3496 10.6894 16.8588 11.0779 16.5152 11.5841C16.1715 12.0903 15.9916 12.6898 15.9998 13.3016V13.9683C14.8283 13.9987 13.6674 13.7388 12.6205 13.2119C11.5737 12.685 10.6734 11.9074 9.99984 10.9483C9.99984 10.9483 7.33317 16.9483 13.3332 19.6149C11.9602 20.5469 10.3246 21.0142 8.6665 20.9483C14.6665 24.2816 21.9998 20.9483 21.9998 13.2816C21.9992 13.0959 21.9814 12.9107 21.9465 12.7283C22.6269 12.0573 23.1071 11.2101 23.3332 10.2816V10.2816Z" stroke="#E5E0FF" stroke-width="1.5" stroke-linecap="round" stroke-linejoin="round"/>
</g>
<defs>
<clipPath id="clip0_83_12127">
<rect width="16" height="16" fill="white" transform="translate(8 8.28174)"/>
</clipPath>
</defs>
</svg>
