<svg width="24" height="24" viewBox="0 0 24 24" fill="none" xmlns="http://www.w3.org/2000/svg">
<rect width="24" height="24" rx="12" fill="#6F767E"/>
<path d="M19.3332 5.99987C18.6948 6.45019 17.9879 6.79461 17.2398 7.01987C16.8383 6.55821 16.3047 6.231 15.7112 6.08249C15.1177 5.93397 14.4928 5.97133 13.9212 6.1895C13.3496 6.40768 12.8588 6.79614 12.5152 7.30235C12.1715 7.80856 11.9916 8.40809 11.9998 9.01987V9.68653C10.8283 9.71691 9.66735 9.45708 8.62051 8.93017C7.57367 8.40325 6.67338 7.62563 5.99984 6.66653C5.99984 6.66653 3.33317 12.6665 9.33317 15.3332C7.96019 16.2652 6.32461 16.7325 4.6665 16.6665C10.6665 19.9999 17.9998 16.6665 17.9998 8.99987C17.9992 8.81417 17.9814 8.62893 17.9465 8.44653C18.6269 7.77553 19.1071 6.92834 19.3332 5.99987Z" fill="white"/>
</svg>
