<svg width="16" height="16" viewBox="0 0 16 16" fill="none" xmlns="http://www.w3.org/2000/svg">
<path d="M8.00002 6.66667C9.28869 6.66667 10.3334 5.622 10.3334 4.33333C10.3334 3.04467 9.28869 2 8.00002 2C6.71135 2 5.66669 3.04467 5.66669 4.33333C5.66669 5.622 6.71135 6.66667 8.00002 6.66667Z" stroke="black" stroke-width="1.33333" stroke-linejoin="round"/>
<path d="M2 13.5999V13.9999H14V13.5999C14 12.1065 14 11.3597 13.7094 10.7893C13.4537 10.2875 13.0457 9.87955 12.544 9.62389C11.9735 9.33325 11.2268 9.33325 9.73333 9.33325H6.26667C4.7732 9.33325 4.02647 9.33325 3.45603 9.62389C2.95426 9.87955 2.54631 10.2875 2.29065 10.7893C2 11.3597 2 12.1065 2 13.5999Z" stroke="black" stroke-width="1.33333" stroke-linejoin="round"/>
</svg>
