<svg width="32" height="33" viewBox="0 0 32 33" fill="none" xmlns="http://www.w3.org/2000/svg">
<rect y="0.281738" width="32" height="32" rx="16" fill="#1971F5" fill-opacity="0.1"/>
<g clip-path="url(#clip0_83_12123)">
<path d="M23.0269 12.5618C22.9477 12.2454 22.7864 11.9555 22.5593 11.7214C22.3322 11.4873 22.0474 11.3173 21.7336 11.2285C20.5869 10.9485 16.0002 10.9485 16.0002 10.9485C16.0002 10.9485 11.4136 10.9485 10.2669 11.2552C9.95305 11.3439 9.6682 11.514 9.44112 11.7481C9.21403 11.9822 9.05274 12.2721 8.97355 12.5885C8.76369 13.7522 8.66104 14.9327 8.66689 16.1152C8.6594 17.3065 8.76206 18.496 8.97355 19.6685C9.06086 19.9751 9.22576 20.2539 9.45231 20.4781C9.67887 20.7024 9.95943 20.8644 10.2669 20.9485C11.4136 21.2552 16.0002 21.2552 16.0002 21.2552C16.0002 21.2552 20.5869 21.2552 21.7336 20.9485C22.0474 20.8597 22.3322 20.6897 22.5593 20.4555C22.7864 20.2214 22.9477 19.9315 23.0269 19.6152C23.2351 18.4602 23.3378 17.2887 23.3336 16.1152C23.341 14.9238 23.2384 13.7343 23.0269 12.5618V12.5618Z" stroke="#E5E0FF" stroke-width="1.5" stroke-linecap="round" stroke-linejoin="round"/>
<path d="M14.5 18.2951L18.3333 16.1151L14.5 13.9351V18.2951Z" stroke="#E5E0FF" stroke-width="1.5" stroke-linecap="round" stroke-linejoin="round"/>
</g>
<defs>
<clipPath id="clip0_83_12123">
<rect width="16" height="16" fill="white" transform="translate(8 8.28174)"/>
</clipPath>
</defs>
</svg>
